<?xml version="1.0" encoding="UTF-8" standalone="no"?>
<!-- Generator: Adobe Illustrator 22.0.0, SVG Export Plug-In . SVG Version: 6.00 Build 0)  -->
<svg id="レイヤー_1" style="enable-background:new 0 0 425.2 116.2" xmlns="http://www.w3.org/2000/svg" xml:space="preserve" viewBox="0 0 425.2 116.2" version="1.1" y="0px" x="0px" xmlns:xlink="http://www.w3.org/1999/xlink">
<style type="text/css">
	.st0{fill:#F4A994;}
	.st1{fill:#4E4D4D;}
	.st2{fill:#126684;}
	.st3{fill:#D02334;}
	.st4{fill:#E8373E;}
	.st5{fill:#FFFFFF;}
	.st6{fill:#2184A0;}
	.st7{fill:#F7C1B0;}
	.st8{fill:#D5A363;}
	.st9{fill:#E2B277;}
	.st10{fill:#FCDFBF;}
	.st11{fill:#6E6E6D;}
	.st12{fill:#0A5073;}
	.st13{fill:#F18C1B;}
	.st14{fill:#DB740E;}
</style>
	<path class="st0" d="m62 59.7c-1-0.2-2.1-0.3-2.1-0.3s0.1-0.2 0.3-0.9c0.2-0.7 0-1.3-0.3-0.7s-0.7 1.5-2.3 2.2c-1.6 0.7-6.2-2-6.2-2l-0.3 0.4c-0.4 3.4 2.2 3.1 2.2 3.1s2.4 0.6 4 0.6c1.8-0.1 3.3-0.2 4.3-0.5 2.3-0.4 1.4-1.6 0.4-1.9z"/>
		<path class="st1" d="m74.6 91s-0.8 0.8-1.8 1.9c-1 0.9-1.3 1.2-2.2 2.1-0.5 0.5-0.1 1 0.9 0.9 0.9 0 2.9-0.5 4-0.9 0.8-0.3 2.2-1.1 3-1.5 0.7-0.5 0.9-1.1 0.9-1.1v-1.6l-4.8 0.2z"/>
		<path class="st1" d="m88.9 89.6s-0.5 0.7-1.5 1.7c-1 0.9-1.2 1.3-2.1 2.4-0.2 0.3-0.3 1 0.7 0.9 0.9 0 2.2-0.4 3.3-0.8 1.3-0.5 2.3-1.7 3.1-2.2 0.7-0.5 1.1-1.5 1.1-1.5l-0.5-1.5-4.1 1z"/>
		<path class="st2" d="m88.5 64.2c0.4-5.7-2.8-8.8-2.8-8.8 0.3-1.9-8.7 0.8-8.7 0.8s-1.9 10.4-2.7 15.9c-1 6.2-0.5 18.9-0.5 18.9s0.1 1.4 2.4 1.3c1.8 0 3.1-1.6 3.1-1.6l0.2-14.4 2.1-10.2s2 8.3 2.6 11.3c0.7 3.2 3.2 12.6 3.2 12.6s1.7 1.9 3.7 0.9c2.1-1 1.7-2.2 1.7-2.2s-0.4-6.7-3-12.7c-0.2-4.5-1.5-9.2-1.3-11.8z"/>
		<path class="st3" d="m78.2 41.1s-1.3-0.1-2.6 2.4-2.6 5.1-2.6 5.1 1.9 0.3 4 2.2c2.9-2.5 3.3-8.5 1.2-9.7z"/>
		<path class="st4" d="m78.2 41.1s-0.7 1.4-1.4 3.9-0.4 14.4-0.4 14.4 2.7 1.9 7.3 1.6c2.7-0.2 4.1-1.9 4.1-1.9s1.6-11.6 1.4-13.2c-0.2-1.7-3.7-5.6-3.7-5.6s-4.6-0.3-7.3 0.8z"/>
		<path class="st0" d="m81.3 39.5l-0.5 3.1s1.6 1.8 3.1 0.4c1.5-1.3 1.8-1.9 1.8-1.9l-0.8-4.2-3.6 2.6z"/>
			<path class="st2" d="m82 48.3s2-3 3.6-3.8 2.4-1 2.4-1-0.6-1.2-1-1.3c-0.7 0.1-1.1 0.3-2.5 1s-3 2.5-3.6 3.6c-1.2 2.2 0.2 2.8 1.1 1.5z"/>
			<path class="st2" d="m78.8 40.8s-1.3 3.1-1.5 4.6 0.1 2 0.7 2c0.6 0.1 0.6-1 0.8-2.2 0.2-1.1 1.3-4.8 1.3-4.8l-1.3 0.4z"/>
			<path class="st2" d="m88 57.4s-1.5 1.2-2.9 1c-1.3-0.1-3.1-1.4-3-5.4s0.5-5.8 0.5-5.8l-4.8-2.2s-1.3 3-1.6 9l-0.4 8s5.2 0.3 8.2 0 4.3-0.7 4.3-0.7l-0.3-3.9z"/>
			<path class="st5" d="m78.3 46.1c0 0.2-0.1 0.4-0.3 0.4s-0.3-0.2-0.3-0.4 0.1-0.4 0.3-0.4 0.3 0.2 0.3 0.4z"/>
			<path class="st5" d="m81.2 47.5c-0.1 0.2-0.1 0.4 0 0.5s0.4 0 0.5-0.2 0.1-0.4 0-0.5-0.4 0-0.5 0.2z"/>
			<path class="st6" d="m77.3 48.1c-0.2 1-0.1 4.1 1.7 4.6 1.6 0.4 2-1.5 2.4-3-2.1-0.4-4.1-1.6-4.1-1.6z"/>
		<path class="st7" d="m83.5 32.2c-1.3-1-4.5-1.3-5.6 1.9-1.2 3.4 1.9 7.6 3.5 6.9 0.9-0.4 2.8-1.8 3.4-3.6 0.6-2-0.3-4.4-1.3-5.2z"/>
			<polygon points="70.9 69.1 70.9 56.8 80.8 51.9 80.8 63.5" class="st8"/>
			<polygon points="70.9 69.1 70.9 56.8 61 51.9 61 63.5" class="st9"/>
			<polygon points="70.9 69.2 70.9 56.8 80.8 51.1 80.8 63.5" class="st8"/>
			<polygon points="70.9 69.2 70.9 56.8 61 51.1 61 63.5" class="st9"/>
			<polygon points="61 51.1 70.9 56.8 80.8 51.1 70.9 45.4" class="st10"/>
				<polygon points="77.1 56.8 74.9 58.1 74.9 54.5 77.1 53.2" class="st1"/>
				<polygon points="77.1 53.2 67.2 47.5 65 48.8 74.9 54.5" class="st11"/>
				<polygon points="72.2 67.4 72.2 66.8 75.5 64.9 75.5 65.5" class="st1"/>
				<polygon points="72.2 66.3 72.2 65.7 75.5 63.7 75.5 64.4" class="st1"/>
				<polygon points="78.5 61.7 78.5 63.9 80.1 63 80.1 60.7" class="st1"/>
				<polygon points="63.1 61.4 63.1 63.7 61.5 62.8 61.5 60.5" class="st1"/>
				<polygon points="65.3 62.7 65.3 65 63.7 64.1 63.7 61.8" class="st1"/>
				<polygon points="64.8 54.7 64.8 58 61.5 56.1 61.5 52.8" class="st5"/>
				<polygon points="64.4 55.4 64.4 54.8 61.8 53.3 61.8 53.9" class="st1"/>
		<path class="st7" d="m83.2 51.8s-1.9 3.9-2.7 5-3.9 3.6-4.6 4c-0.6 0.4-2.1 0.8-2.9 0.8-0.8-0.1-1.3 0.3-0.6 0.6s1.5 0.3 1.5 0.3-1.4 1-1.9 1.9c-0.4 0.7-0.8 2 0.9 1.6 1.4-0.3 3.2-2.4 3.7-2.8 0.9-0.9 4.6-2.9 5.5-3.5 1.2-0.8 4.5-5.8 4.5-5.8s-0.9-2.6-3.4-2.1z"/>
		<path class="st3" d="m88.6 44.4c-1-0.8-3.1 1.9-4.2 3.5-1.1 1.7-2 4.1-2 4.1s1.3 1 2.5 1.7c1 0.6 2.1 1.1 2.1 1.1s4.9-7.7 1.6-10.4z"/>
		<path class="st1" d="m77.6 35.2c0.5 0.6 1.3 1.2 3 0.9 1.3-0.2 2.3-0.8 2.3-0.8l0.3 1.8s0.3 0 0.5-0.2c0-0.7 0.3-0.9 0.7-0.7s0.5 1.3 0.5 1.3 1.3-1.3 0.9-3.3c-0.3-1.3-2-3.8-4.4-3.5-2.4 0.2-3.8 1.8-4.1 3.2-0.2 0.5 0.1 1 0.3 1.3z"/>
			<path class="st2" d="m77.1 33.6s-3.1 2.2-3.6 2.6c-0.5 0.5 2.4 2.4 4.5 1.8s5.2-3 5.2-3l-6.1-1.4z"/>
			<path class="st12" d="m77.1 33.6s3.5 2.2 5.7 1.5c2.2-0.6 2.8-1.2 2.8-1.2s-0.2-4.5-4.2-4.5c-4 0.1-4.3 4.2-4.3 4.2z"/>
			<path class="st2" d="m81.6 29.6c0 0.2-0.3 0.3-0.6 0.3s-0.6-0.1-0.6-0.3 0.3-0.3 0.6-0.3 0.6 0.1 0.6 0.3z"/>
			<path class="st7" d="m46.8 103.7c1.2-0.6 2.3-1.3 1.9-1.9-0.2-0.3-0.5-0.4-0.9-0.5-1.1 0.4-1.6 0.6-1.6 0.6s0.1-6.2 0.6-8.8c0.2-0.8-3.9-0.9-3.9-0.9-0.1 0.6-0.3 5.8 0 9 0.1 1.1 0 1.8 0 2.3 0.3 0.1 0.8 0.4 1.3 0.6s1.5 0.2 2.6-0.4z"/>
			<path class="st1" d="m42.8 105.2c0.4 0.9 1.3 0.8 3.1 0.2 1.6-0.6 2.9-1.2 4.1-2.1 1.1-0.8 1.2-1 1.3-1.5 0.2-0.8-1-1.2-2.9-0.6-0.2 0.1-0.4 0.1-0.5 0.2 0.4 0.1 0.7 0.2 0.9 0.5 0.4 0.7-0.7 1.4-1.9 1.9-1.2 0.6-2.1 0.6-2.7 0.3-0.4-0.2-1-0.4-1.3-0.6-0.2 0.8-0.3 1.1-0.1 1.7z"/>
			<path class="st7" d="m52.4 107c1.2-0.6 2.3-1.3 1.9-1.9-0.2-0.3-0.5-0.4-0.9-0.5-1.1 0.4-1.6 0.6-1.6 0.6s0.3-9.7 0.8-12.3c0.2-0.8-3.9 0.4-3.9 0.4-0.1 0.6-0.4 8-0.2 11.2 0.1 1.1 0 1.8 0 2.3 0.3 0.1 0.8 0.4 1.3 0.6s1.5 0.2 2.6-0.4z"/>
			<path class="st1" d="m48.4 108.4c0.4 0.9 1.3 0.8 3.1 0.2 1.6-0.6 2.9-1.2 4.1-2.1 1.1-0.8 1.2-1 1.3-1.5 0.2-0.8-1-1.2-2.9-0.6-0.2 0.1-0.4 0.1-0.5 0.2 0.4 0.1 0.7 0.2 0.9 0.5 0.4 0.7-0.7 1.4-1.9 1.9-1.2 0.6-2.1 0.6-2.7 0.3-0.4-0.2-1-0.4-1.3-0.6-0.1 0.8-0.3 1.2-0.1 1.7z"/>
		<path class="st7" d="m48.2 40.9c0.5 0.3 2.3 0.7 2.8 4.7 0.4 3.5-0.3 4.4-1 4.7-0.4 0.2-1.8 0.2-1.8 0.2l0.1 2.9s-1.7 0.7-3.4 0-1.7-0.7-1.7-0.7 0.6-1.1 0.5-3c-0.1-2.4-1-5.8-0.4-7.1 1.1-2.3 3.6-2.6 4.9-1.7z"/>
		<path class="st13" d="m42.3 50.8s4.7 1.4 5.9 1.8c1.1 0.4 2 1.2 3.2 3.6s0.3 6 0.3 6l-0.4 6.5s-2.5 3-4.7 3.2c-3 0.3-3.3-1.4-3.3-1.4s-3.8-8.4-3.2-12.3c0.7-3.6 2.2-7.4 2.2-7.4z"/>
		<path class="st1" d="m51.1 44.2c-0.1 1.4-1.2 1.8-2.2 2.8s-1.1 2.4-1.4 3.3c-0.3 0.9 0.1 5-1.4 8.1-1.6 3.3-3.7 4-3.7 4s-2.9-4.4-3.9-9.7 2.7-12.3 6.6-13.1c4.3-0.8 6.3 1.9 6 4.6z"/>
		<path class="st7" d="m50.4 54.8c-1-0.1-2 1.7-1.9 3.9 0.1 2.8 6 7.7 6 7.7 2 1.2 8-0.6 9.5-0.7 1.4-0.2 3.1 0.3 4 0.1s2.1-1.6 1.5-2.1c-0.5-0.4-3.2-0.4-3.2-0.4s0.5-1.1 0.5-1.5c0-1.3-0.6 0.2-1.5 0.8-1 0.8-1.5 0.8-2.4 0.9-3.7 0.5-7.1-0.3-7.1-0.3s-3.6-8.2-5.4-8.4z"/>
		<path class="st13" d="m45.6 39.6s3.8 0.3 3.5 3.6-0.3 3.8-0.3 3.8 0.7-2 1.1-3.5-0.1-5-4.3-3.9z"/>
		<path class="st7" d="m49.9 46.2s-1-1.8-1.5 0c-0.4 1.6 1 2.2 1 2.2l0.5-2.2z"/>
		<path class="st13" d="m43.1 67.3s-1.3 3.9-1.7 6.3c-1 5.8-0.7 18.7-0.7 18.7s5.3 3 8.9 2.8c5.3-0.4 6.9-2.8 6.9-2.8s-2.1-12.4-2.5-15.1c-0.7-5.2-3-10.2-3-10.2l-7.9 0.3z"/>
		<path class="st14" d="m42.3 69.9s3.5 1.2 6.1 0.4c2.5-0.9 3.4-1.4 3.4-1.4l-0.3-1.5s-1.7 0.8-4.4 1.2c-2.4 0.4-4.7-0.6-4.7-0.6l-0.1 1.9z"/>
</svg>
