<?xml version="1.0" encoding="UTF-8" standalone="no"?>
<!-- Generator: Adobe Illustrator 22.0.0, SVG Export Plug-In . SVG Version: 6.00 Build 0)  -->
<svg id="レイヤー_1" style="enable-background:new 0 0 425.2 162.7" xmlns="http://www.w3.org/2000/svg" xml:space="preserve" viewBox="0 0 425.2 162.7" version="1.1" y="0px" x="0px" xmlns:xlink="http://www.w3.org/1999/xlink">
<style type="text/css">
	.st0{fill:#4E4D4D;}
	.st1{fill:#126684;}
	.st2{fill:#D02334;}
	.st3{fill:#E8373E;}
	.st4{fill:#F4A994;}
	.st5{fill:#F7C1B0;}
	.st6{fill:#FFFFFF;}
	.st7{fill:#2184A0;}
	.st8{fill:#AFAFAF;}
	.st9{fill:#393A3A;}
	.st10{fill:#D3D3D3;}
	.st11{fill:#7C7C7D;}
	.st12{fill:#D5A363;}
	.st13{fill:#E2B277;}
	.st14{fill:#FCDFBF;}
	.st15{fill:#6E6E6D;}
	.st16{fill:#A4A4A3;}
	.st17{fill:#41AEC1;}
	.st18{fill:#2193A6;}
	.st19{fill:#35A1BA;}
	.st20{fill:#D66D26;}
	.st21{fill:#A84D23;}
	.st22{fill:#BE5C1D;}
</style>
	<path class="st0" d="m33 132s0.8 0.9 2 2c1 1 1.4 1.3 2.3 2.2 0.6 0.5 0.1 1.1-1 1-0.9 0-3.1-0.5-4.3-0.9-0.8-0.3-2.4-1.2-3.2-1.7s-0.9-1.2-0.9-1.2v-1.7l5.1 0.3z"/>
	<path class="st0" d="m17.7 130.5s0.5 0.8 1.7 1.9c1 1 1.3 1.4 2.3 2.6 0.2 0.3 0.3 1.1-0.7 1-0.9 0-2.4-0.4-3.6-0.9-1.4-0.5-2.5-1.9-3.3-2.4s-1.1-1.6-1.1-1.6l0.5-1.7 4.2 1.1z"/>
	<path class="st1" d="m18.1 103.2c-0.4-6.2 3-9.4 3-9.4-0.3-2.1 9.4 0.8 9.4 0.8s2.1 11.2 2.9 17.1c1 6.7 0.4 20.4 0.4 20.4s-0.1 1.5-2.6 1.4c-1.9 0-3.3-1.7-3.3-1.7l-0.2-15.5-2.2-11s-2.1 9-2.8 12.2c-0.7 3.4-3.5 13.5-3.5 13.5s-1.8 2.1-4 0.9c-2.2-1.1-1.8-2.4-1.8-2.4s0.4-7.2 3.3-13.6c0.2-4.8 1.6-9.9 1.4-12.7z"/>
	<path class="st2" d="m29.2 78.4s1.4-0.1 2.8 2.6 2.8 5.5 2.8 5.5-2.1 0.3-4.3 2.4c-3.1-2.8-3.6-9.2-1.3-10.5z"/>
	<path class="st3" d="m29.2 78.4s0.8 1.5 1.5 4.2 0.5 15.5 0.5 15.5-2.9 2.1-7.9 1.7c-2.9-0.2-4.4-2.1-4.4-2.1s-1.8-12.5-1.5-14.2c0.2-1.8 4-6 4-6s4.8-0.3 7.8 0.9z"/>
	<path class="st1" d="m25.2 86.2s-2.1-3.2-3.9-4.1c-1.7-0.9-2.9-1.1-2.9-1.1s0.6-1.3 1-1.4c0.7 0.1 1.4 0.3 3 1.1s3.2 2.7 3.9 3.9c1.4 2.3-0.1 3-1.1 1.6z"/>
	<path class="st1" d="m28.7 78.2s1.4 3.3 1.6 4.9-0.2 2.1-0.8 2.2c-0.6 0.1-0.7-1.1-0.9-2.4-0.2-1.2-1.4-5.2-1.4-5.2l1.5 0.5z"/>
	<path class="st1" d="m18.6 96.3s1.7 1 3.2 0.8c1.4-0.1 3.3-1.5 3.2-5.8 0-4.3-0.4-6.3-0.4-6.3l5.2-2.3s1.4 3.3 1.7 9.7 0.4 8.6 0.4 8.6-5.6 0.3-8.8 0-4.7-1.3-4.7-1.3l0.2-3.4z"/>
	<path class="st4" d="m25.8 76.6l0.6 3.3s-1.7 1.9-3.4 0.5-1.9-2.1-1.9-2.1l0.8-4.6 3.9 2.9z"/>
	<path class="st5" d="m22.1 74.4c0.6 1.9 2.7 3.5 3.6 3.9 1.8 0.8 5.1-3.8 3.8-7.4-1.2-3.5-4.6-3.1-6-2-1.1 0.7-2.1 3.3-1.4 5.5z"/>
	<path class="st0" d="m29.8 72c-0.6 0.6-1.4 1.3-3.2 1-1.4-0.2-2.5-0.9-2.5-0.9l-0.3 1.9s-0.3-0.1-0.5-0.2c0-0.8-0.3-1-0.7-0.8-0.5 0.3-0.5 1.3-0.5 1.3s-1.4-1.4-1-3.6c0.3-1.4 2.1-4 4.7-3.8s4 1.9 4.4 3.4c0.1 0.8-0.2 1.4-0.4 1.7z"/>
	<path class="st6" d="m29.2 83.9c0 0.3 0.1 0.5 0.3 0.5s0.3-0.2 0.3-0.5-0.1-0.5-0.3-0.5c-0.1 0-0.3 0.2-0.3 0.5z"/>
	<path class="st6" d="m26.1 85.3c0.2 0.2 0.2 0.5 0 0.6-0.1 0.1-0.4 0-0.5-0.2-0.2-0.2-0.2-0.5 0-0.6 0.1-0.1 0.3 0 0.5 0.2z"/>
	<path class="st7" d="m30.2 86c0.2 1.1 0.1 4.5-1.8 5-1.7 0.5-2.2-1.6-2.6-3.2 2.3-0.5 4.4-1.8 4.4-1.8z"/>
		<path class="st8" d="m44.8 151.8s-0.2 1-0.6 1.8c-0.3 0.8-1.2 0.8-1.6 0.3-0.5-0.5-0.5-1.1-0.6-2.3-0.1-1.5 0-1.4 0-1.4l2.8 1.6z"/>
			<path class="st9" d="m41.3 153.5c-0.1 0.9 0.5 1.8 1.3 2.1 0.9 0.3 1.7-0.2 1.8-1 0.1-0.9-0.5-1.8-1.3-2.1-0.8-0.4-1.6 0.1-1.8 1z"/>
			<polygon points="43.2 155.9 43.9 155.5 42.1 152.5 41.3 152.9" class="st9"/>
			<path class="st0" d="m40.7 153.8c-0.1 0.9 0.5 1.8 1.3 2.1 0.9 0.3 1.7-0.2 1.8-1 0.1-0.9-0.5-1.8-1.3-2.1-0.9-0.3-1.7 0.2-1.8 1z"/>
		<path class="st8" d="m43.8 152.1s-0.4 1.7-0.7 2.5-1 0.7-1.3 0.3c-0.5-0.5-0.5-1.6-0.6-2.7-0.1-1.4 0-1.9 0-1.9l2.6 1.8z"/>
		<path class="st6" d="m42 154.5c0 0.2 0.1 0.3 0.3 0.4s0.3 0 0.3-0.2-0.1-0.3-0.3-0.4c-0.2-0.1-0.3 0-0.3 0.2z"/>
		<path class="st8" d="m65.1 140.1s-0.2 1-0.6 1.8c-0.3 0.8-1.2 0.8-1.6 0.3-0.5-0.5-0.5-1.1-0.6-2.3-0.1-1.5 0-1.4 0-1.4l2.8 1.6z"/>
			<path class="st9" d="m61.7 141.8c-0.1 0.9 0.5 1.8 1.3 2.1 0.9 0.3 1.7-0.2 1.8-1 0.1-0.9-0.5-1.8-1.3-2.1s-1.7 0.1-1.8 1z"/>
			<polygon points="63.5 144.2 64.2 143.8 62.4 140.8 61.6 141.2" class="st9"/>
			<path class="st0" d="m61 142.2c-0.1 0.9 0.5 1.8 1.3 2.1 0.9 0.3 1.7-0.2 1.8-1 0.1-0.9-0.5-1.8-1.3-2.1-0.9-0.3-1.7 0.1-1.8 1z"/>
		<path class="st8" d="m64.1 140.4s-0.4 1.7-0.7 2.5-1 0.7-1.3 0.3c-0.5-0.5-0.5-1.6-0.6-2.7-0.1-1.4 0-1.9 0-1.9l2.6 1.8z"/>
		<path class="st6" d="m62.3 142.8c0 0.2 0.1 0.3 0.3 0.4s0.3 0 0.3-0.2-0.1-0.3-0.3-0.4c-0.1-0.1-0.3 0-0.3 0.2z"/>
		<path class="st8" d="m33.2 145.1s-0.2 1-0.6 1.8c-0.3 0.8-1.2 0.8-1.6 0.3-0.5-0.5-0.5-1.1-0.6-2.3-0.1-1.5 0-1.4 0-1.4l2.8 1.6z"/>
			<path class="st9" d="m29.7 146.8c-0.1 0.9 0.5 1.8 1.3 2.1 0.9 0.3 1.7-0.2 1.8-1 0.1-0.9-0.5-1.8-1.3-2.1s-1.6 0.1-1.8 1z"/>
			<polygon points="31.6 149.2 32.3 148.8 30.5 145.8 29.7 146.2" class="st9"/>
			<path class="st0" d="m29.1 147.1c-0.1 0.9 0.5 1.8 1.3 2.1 0.9 0.3 1.7-0.2 1.8-1 0.1-0.9-0.5-1.8-1.3-2.1-0.9-0.3-1.7 0.2-1.8 1z"/>
		<path class="st8" d="m32.2 145.4s-0.4 1.7-0.7 2.5-1 0.7-1.3 0.3c-0.5-0.5-0.5-1.6-0.6-2.7-0.1-1.4 0-1.9 0-1.9l2.6 1.8z"/>
		<path class="st6" d="m30.4 147.8c0 0.2 0.1 0.3 0.3 0.4s0.3 0 0.3-0.2-0.1-0.3-0.3-0.4c-0.2-0.1-0.3 0-0.3 0.2z"/>
		<polygon points="45.5 107.8 41.9 97.2 43.1 96.7 46.8 107.1 46.8 133.5 45.5 132.8" class="st8"/>
		<polygon points="29.2 104.3 33.2 115.3 33.2 141.6 31.8 141 31.8 116 28 104.8" class="st8"/>
		<polygon points="28 141.5 46 151.9 67.6 139.5 49.6 129.1" class="st10"/>
		<polygon points="46 151.9 46 153.5 28 143.1 28 141.5" class="st11"/>
		<polygon points="46 153.5 46 151.9 67.6 139.5 67.6 141" class="st8"/>
	<polygon points="32.6 125.5 46 117.8 46 119.3 32.6 127" class="st8"/>
	<polygon points="32.6 121.4 46 113.7 46 115.2 32.6 122.9" class="st8"/>
	<path class="st11" d="m25.9 105.3l15-8.7 3.1-1.8c0.3-0.2 0.7-0.1 0.9 0.2s0.1 0.7-0.2 0.9l-15 8.7-3.1 1.8c-0.3 0.2-0.7 0.1-0.9-0.2-0.3-0.3-0.1-0.7 0.2-0.9z"/>
<path class="st5" d="m23.8 89.9s2 4.2 2.9 5.4c0.8 1.2 4.2 4.3 4.9 4.7 0.3 0.2 1.2 0.4 1.8 0.4s1.2-0.2 1.7-0.1c0.1 0.6-1.4 1-1.4 1s0.7 0.6 0.8 1.4c0.1 0.5-0.9 1.3-2 1.9-0.8 0.4-2-0.5-2.4-1.1-0.4-0.7-0.2-1.1-0.9-1.7-1.3-1.2-4.1-3-4.8-3.9-1-1.2-4.2-5.7-4.2-5.7s0.9-2.9 3.6-2.3z"/>
<path class="st5" d="m34.1 86.7s0.6 0.9 1.2 1.9 3.3 6.5 3.8 7.2 0.9 0.7 1.7 1.8c0.8 1.1 0.4 1.7-0.1 2.3-0.5 0.5-1.1 0.9-1.5 0.9-0.9 0-1.3-0.7-1.3-0.7s0.5-0.2 0-0.8c-0.3-0.4-0.8-0.3-0.8-0.3s0.1-0.8 0.1-1.4c0-1.1-1.3-2.5-1.9-3.5s-2-2.9-2.6-3.9c-0.4-0.6-1.2-2-1.2-2s1.1-1.3 2.6-1.5z"/>
<path class="st2" d="m18 81.9c1-0.8 3.3 2 4.5 3.8s2.1 4.5 2.1 4.5-1.4 1-2.7 1.8c-1.1 0.7-2.2 1.2-2.2 1.2s-5.3-8.4-1.7-11.3z"/>
	<polygon points="47.9 148.5 47.9 139 34.2 131.1 34.2 140.5" class="st12"/>
	<polygon points="47.9 148.5 47.9 139 61.6 131.1 61.6 140.5" class="st13"/>
	<polygon points="61.6 131.1 47.9 139 34.2 131.1 47.9 123.2" class="st14"/>
		<polygon points="39.3 139 42.3 140.8 42.3 135.8 39.3 134" class="st0"/>
		<polygon points="39.3 134 53 126.1 56 127.9 42.3 135.8" class="st15"/>
		<polygon points="46.1 146 46.1 145.1 41.5 142.5 41.5 143.4" class="st0"/>
		<polygon points="46.1 144.5 46.1 143.6 41.5 140.9 41.5 141.8" class="st0"/>
		<polygon points="37.3 138 37.3 141.1 35.1 139.8 35.1 136.7" class="st0"/>
		<polygon points="58.8 138.2 58.8 141.4 61 140.1 61 136.9" class="st0"/>
		<polygon points="55.8 140 55.8 143.1 58 141.9 58 138.7" class="st0"/>
		<polygon points="48.5 139.4 48.5 144 53 141.4 53 136.8" class="st6"/>
		<polygon points="49 140.4 49 139.6 52.6 137.6 52.6 138.3" class="st0"/>
		<polygon points="170.6 79.2 171 15.2 170 14.6 169.6 78.6" class="st9"/>
		<polygon points="170.6 79.2 171.9 78.5 172.3 14.5 171 15.2" class="st0"/>
		<polygon points="193.4 66.6 193.8 2.6 192.7 2 192.3 66" class="st9"/>
		<polygon points="193.4 66.6 194.6 65.9 195.1 1.9 193.8 2.6" class="st0"/>
		<polygon points="170 14.6 171 15.2 172.3 14.5 171.3 13.9" class="st16"/>
		<polygon points="192.7 2 193.8 2.6 195.1 1.9 194 1.3" class="st16"/>
	<polygon points="194.2 64.3 193.4 65.1 171.4 47.6 171.8 46.3" class="st0"/>
	<polygon points="171.4 76.4 171.6 77.6 194.1 35.3 193.6 34.5" class="st0"/>
	<polygon points="194.4 34.1 193.6 35 171.6 17.4 172 16.1" class="st0"/>
	<polygon points="171.6 46.2 171.8 47.4 194.3 5.1 193.7 4.3" class="st0"/>
	<polygon points="193.7 62.2 171 74.9 219.7 103.4 242.4 90.8" class="st17"/>
	<polygon points="219.7 105 219.7 103.3 242.4 90.7 242.4 92.3" class="st18"/>
	<polygon points="171 74.9 171 76.5 219.7 104.9 219.7 103.3" class="st19"/>
			<polygon points="235.1 88.6 218.1 98 218.6 98.4 235.7 88.9" class="st20"/>
			<polygon points="235.7 88.9 218.6 98.4 218.6 100.7 235.6 91.3" class="st21"/>
			<polygon points="218.1 100.4 218.1 98 218.6 98.4 218.6 100.7" class="st22"/>
			<polygon points="216.2 77.5 199.2 87 199.7 87.3 216.8 77.8" class="st20"/>
			<polygon points="216.8 77.8 199.7 87.3 199.7 89.7 216.8 80.2" class="st21"/>
			<polygon points="199.2 89.4 199.2 87 199.7 87.3 199.7 89.7" class="st22"/>
			<polygon points="225.4 82.8 208.4 92.2 208.9 92.6 226 83.1" class="st20"/>
			<polygon points="226 83.1 208.9 92.6 208.9 95 225.9 85.5" class="st21"/>
			<polygon points="208.4 94.6 208.4 92.2 208.9 92.6 208.9 95" class="st22"/>
			<polygon points="218.6 97.6 199.2 86.3 199.2 87.1 218.6 98.4" class="st22"/>
			<polygon points="220.6 96.5 218.6 97.6 199.2 86.3 201.3 85.2" class="st20"/>
			<polygon points="220.6 96.5 218.6 97.6 218.6 99.1 220.6 97.9" class="st21"/>
			<polygon points="222.4 95.5 203 84.1 203 84.9 222.4 96.2" class="st22"/>
			<polygon points="224.5 94.4 222.4 95.5 203 84.1 205 83" class="st20"/>
			<polygon points="224.5 94.4 222.4 95.5 222.4 96.9 224.4 95.8" class="st21"/>
			<polygon points="226.3 93.3 206.8 82 206.8 82.8 226.3 94.1" class="st22"/>
			<polygon points="228.4 92.2 226.3 93.3 206.8 82 208.9 80.9" class="st20"/>
			<polygon points="228.4 92.2 226.3 93.3 226.3 94.8 228.3 93.6" class="st21"/>
			<polygon points="230.1 91.2 210.7 79.9 210.7 80.7 230.1 92" class="st22"/>
			<polygon points="232.2 90.1 230.1 91.2 210.7 79.9 212.7 78.8" class="st20"/>
			<polygon points="232.2 90.1 230.1 91.2 230.1 92.6 232.2 91.5" class="st21"/>
			<polygon points="233.6 89.3 214.1 78 214.1 78.7 233.6 90.1" class="st22"/>
			<polygon points="235.7 88.2 233.6 89.3 214.1 78 216.2 76.9" class="st20"/>
			<polygon points="235.7 88.2 233.6 89.3 233.6 90.7 235.7 89.6" class="st21"/>
		<polygon points="210 91.2 210 85.2 201.2 80.1 201.2 86" class="st12"/>
		<polygon points="210 91.2 210 85.2 222.7 78.1 222.7 84.1" class="st13"/>
		<polygon points="222.7 78.1 210 85.2 201.2 80.1 213.9 73" class="st14"/>
			<polygon points="204.5 85.1 206.4 86.3 206.5 83.1 204.5 82" class="st0"/>
			<polygon points="204.5 82 217.2 74.9 219.1 76.1 206.5 83.1" class="st15"/>
			<polygon points="209.3 90.2 209.3 89.6 206.4 87.9 206.4 88.4" class="st0"/>
			<polygon points="209.3 89.2 209.3 88.6 206.4 86.9 206.4 87.5" class="st0"/>
			<polygon points="220.9 82.4 220.9 84.4 222.3 83.6 222.3 81.6" class="st0"/>
			<polygon points="219 83.4 218.9 85.5 220.4 84.7 220.4 82.7" class="st0"/>
			<polygon points="217 84.5 217 86.5 218.4 85.8 218.4 83.7" class="st0"/>
			<polygon points="210.4 85.4 210.4 88.3 213.3 86.7 213.3 83.8" class="st6"/>
			<polygon points="210.7 86 210.7 85.6 213 84.3 213 84.8" class="st0"/>
		<polygon points="219.6 96.8 219.6 90.9 210.9 85.8 210.8 91.7" class="st12"/>
		<polygon points="219.6 96.8 219.6 90.9 232.3 83.8 232.3 89.8" class="st13"/>
		<polygon points="232.3 83.8 219.6 90.9 210.9 85.8 223.6 78.7" class="st14"/>
			<polygon points="214.1 90.8 216 92 216.1 88.8 214.1 87.7" class="st0"/>
			<polygon points="214.1 87.7 226.8 80.6 228.8 81.7 216.1 88.8" class="st15"/>
			<polygon points="218.9 95.8 218.9 95.3 216 93.6 216 94.1" class="st0"/>
			<polygon points="218.9 94.8 218.9 94.3 216 92.6 216 93.1" class="st0"/>
			<polygon points="230.5 88.1 230.5 90.1 231.9 89.3 231.9 87.3" class="st0"/>
			<polygon points="228.6 89.1 228.6 91.1 230 90.4 230 88.3" class="st0"/>
			<polygon points="226.6 90.2 226.6 92.2 228 91.4 228 89.4" class="st0"/>
			<polygon points="220 91.1 220 94 222.9 92.4 222.9 89.5" class="st6"/>
			<polygon points="220.3 91.7 220.4 91.2 222.6 90 222.6 90.4" class="st0"/>
		<polygon points="210 84.6 210 78.6 201.3 73.5 201.3 79.5" class="st12"/>
		<polygon points="210 84.6 210 78.6 222.7 71.5 222.7 77.5" class="st13"/>
		<polygon points="222.7 71.5 210 78.6 201.3 73.5 214 66.4" class="st14"/>
			<polygon points="204.5 78.5 206.5 79.7 206.5 76.5 204.5 75.4" class="st0"/>
			<polygon points="204.5 75.4 217.2 68.3 219.2 69.5 206.5 76.5" class="st15"/>
			<polygon points="209.4 83.6 209.4 83 206.4 81.3 206.4 81.9" class="st0"/>
			<polygon points="209.4 82.6 209.4 82 206.4 80.3 206.4 80.9" class="st0"/>
			<polygon points="220.9 75.8 220.9 77.8 222.3 77 222.4 75" class="st0"/>
			<polygon points="219 76.9 219 78.9 220.4 78.1 220.4 76.1" class="st0"/>
			<polygon points="217 77.9 217 80 218.4 79.2 218.5 77.2" class="st0"/>
			<polygon points="210.4 78.9 210.4 81.7 213.3 80.1 213.3 77.2" class="st6"/>
			<polygon points="210.8 79.4 210.8 79 213.1 77.7 213.1 78.2" class="st0"/>
		<polygon points="219.6 90.3 219.7 84.3 210.9 79.2 210.9 85.1" class="st12"/>
		<polygon points="219.6 90.3 219.7 84.3 232.4 77.2 232.3 83.2" class="st13"/>
		<polygon points="232.4 77.2 219.7 84.3 210.9 79.2 223.6 72.1" class="st14"/>
			<polygon points="214.1 84.2 216.1 85.4 216.1 82.2 214.2 81.1" class="st0"/>
			<polygon points="214.2 81.1 226.8 74 228.8 75.2 216.1 82.2" class="st15"/>
			<polygon points="219 89.3 219 88.7 216 87 216 87.5" class="st0"/>
			<polygon points="219 88.3 219 87.7 216 86 216 86.6" class="st0"/>
			<polygon points="230.5 81.5 230.5 83.5 232 82.7 232 80.7" class="st0"/>
			<polygon points="228.6 82.5 228.6 84.6 230 83.8 230 81.8" class="st0"/>
			<polygon points="226.7 83.6 226.6 85.6 228.1 84.9 228.1 82.8" class="st0"/>
			<polygon points="220 84.5 220 87.4 222.9 85.8 222.9 82.9" class="st6"/>
			<polygon points="220.4 85.1 220.4 84.7 222.7 83.4 222.7 83.9" class="st0"/>
	<polygon points="193.8 37.8 171.2 50.4 219.9 79 242.6 66.3" class="st17"/>
	<polygon points="219.8 80.5 219.9 78.9 242.6 66.2 242.6 67.9" class="st18"/>
	<polygon points="171.2 50.4 171.1 52.1 219.8 80.5 219.9 78.8" class="st19"/>
			<polygon points="212 50.7 195 60.2 195.6 60.5 212.6 51" class="st20"/>
			<polygon points="212.6 51 195.6 60.5 195.5 62.9 212.6 53.4" class="st21"/>
			<polygon points="195 62.6 195 60.2 195.6 60.5 195.5 62.9" class="st22"/>
			<polygon points="193.2 39.7 176.2 49.2 176.7 49.5 193.8 40" class="st20"/>
			<polygon points="193.8 40 176.7 49.5 176.7 51.9 193.7 42.4" class="st21"/>
			<polygon points="176.2 51.6 176.2 49.2 176.7 49.5 176.7 51.9" class="st22"/>
			<polygon points="202.3 45 185.3 54.4 185.9 54.7 202.9 45.3" class="st20"/>
			<polygon points="202.9 45.3 185.9 54.7 185.8 57.1 202.9 47.6" class="st21"/>
			<polygon points="185.3 56.8 185.3 54.4 185.9 54.7 185.8 57.1" class="st22"/>
			<polygon points="195.6 59.8 176.2 48.5 176.2 49.3 195.6 60.6" class="st22"/>
			<polygon points="197.6 58.7 195.6 59.8 176.2 48.5 178.2 47.4" class="st20"/>
			<polygon points="197.6 58.7 195.6 59.8 195.6 61.2 197.6 60.1" class="st21"/>
			<polygon points="199.4 57.6 179.9 46.3 179.9 47.1 199.4 58.4" class="st22"/>
			<polygon points="201.4 56.5 199.4 57.6 179.9 46.3 182 45.2" class="st20"/>
			<polygon points="201.4 56.5 199.4 57.6 199.4 59.1 201.4 57.9" class="st21"/>
			<polygon points="203.3 55.5 183.8 44.2 183.8 44.9 203.3 56.3" class="st22"/>
			<polygon points="205.3 54.4 203.3 55.5 183.8 44.2 185.8 43.1" class="st20"/>
			<polygon points="205.3 54.4 203.3 55.5 203.3 56.9 205.3 55.8" class="st21"/>
			<polygon points="207.1 53.4 187.6 42.1 187.6 42.8 207.1 54.1" class="st22"/>
			<polygon points="209.1 52.3 207.1 53.4 187.6 42.1 189.7 41" class="st20"/>
			<polygon points="209.1 52.3 207.1 53.4 207.1 54.8 209.1 53.6" class="st21"/>
			<polygon points="210.6 51.5 191.1 40.1 191.1 40.9 210.6 52.2" class="st22"/>
			<polygon points="212.6 50.4 210.6 51.5 191.1 40.1 193.1 39" class="st20"/>
			<polygon points="212.6 50.4 210.6 51.5 210.6 52.9 212.6 51.8" class="st21"/>
		<polygon points="194.3 48.9 194.3 38.4 202.8 33.7 202.8 44.1" class="st12"/>
		<polygon points="194.3 48.9 194.3 38.4 185.9 33.5 185.8 43.9" class="st13"/>
		<polygon points="185.9 33.5 194.3 38.4 202.8 33.7 194.4 28.8" class="st14"/>
			<polygon points="199.7 38.5 197.8 39.6 197.8 36.5 199.7 35.5" class="st0"/>
			<polygon points="199.7 35.5 191.3 30.5 189.4 31.6 197.8 36.5" class="st15"/>
			<polygon points="195.4 47.4 195.4 46.9 198.3 45.3 198.3 45.8" class="st0"/>
			<polygon points="195.4 46.4 195.4 45.9 198.3 44.3 198.3 44.9" class="st0"/>
			<polygon points="200.8 42.6 200.8 44.5 202.2 43.7 202.2 41.8" class="st0"/>
			<polygon points="187.7 42.2 187.7 44.2 186.4 43.4 186.4 41.5" class="st0"/>
			<polygon points="189.6 43.3 189.6 45.3 188.2 44.5 188.2 42.5" class="st0"/>
			<polygon points="189.2 36.6 189.2 39.4 186.4 37.8 186.4 35" class="st6"/>
			<polygon points="188.8 37.2 188.8 36.7 186.7 35.4 186.7 35.9" class="st0"/>
		<polygon points="203.5 54.2 203.6 43.8 212.1 39 212 49.5" class="st12"/>
		<polygon points="203.5 54.2 203.6 43.8 195.1 38.8 195.1 49.3" class="st13"/>
		<polygon points="195.1 38.8 203.6 43.8 212.1 39 203.6 34.1" class="st14"/>
			<polygon points="208.9 43.8 207 44.9 207 41.8 208.9 40.8" class="st0"/>
			<polygon points="208.9 40.8 200.5 35.9 198.6 36.9 207 41.8" class="st15"/>
			<polygon points="204.6 52.7 204.6 52.2 207.5 50.6 207.5 51.1" class="st0"/>
			<polygon points="204.6 51.8 204.6 51.2 207.5 49.6 207.5 50.2" class="st0"/>
			<polygon points="210.1 47.9 210.1 49.8 211.4 49 211.4 47.1" class="st0"/>
			<polygon points="196.9 47.6 196.9 49.5 195.6 48.7 195.6 46.8" class="st0"/>
			<polygon points="198.8 48.6 198.8 50.6 197.4 49.8 197.4 47.9" class="st0"/>
			<polygon points="198.4 41.9 198.4 44.7 195.6 43.1 195.6 40.3" class="st6"/>
			<polygon points="198.1 42.5 198.1 42 195.9 40.7 195.9 41.2" class="st0"/>
		<polygon points="185.5 54 185.6 43.5 194.1 38.8 194 49.2" class="st12"/>
		<polygon points="185.5 54 185.6 43.5 177.2 38.6 177.1 49" class="st13"/>
		<polygon points="177.2 38.6 185.6 43.5 194.1 38.8 185.7 33.9" class="st14"/>
			<polygon points="190.9 43.6 189 44.6 189 41.6 190.9 40.5" class="st0"/>
			<polygon points="190.9 40.5 182.5 35.6 180.6 36.7 189 41.6" class="st15"/>
			<polygon points="186.7 52.5 186.7 51.9 189.5 50.3 189.5 50.9" class="st0"/>
			<polygon points="186.7 51.5 186.7 51 189.5 49.4 189.5 49.9" class="st0"/>
			<polygon points="192.1 47.7 192.1 49.5 193.4 48.8 193.5 46.9" class="st0"/>
			<polygon points="179 47.3 179 49.3 177.6 48.5 177.6 46.5" class="st0"/>
			<polygon points="180.8 48.4 180.8 50.3 179.4 49.6 179.5 47.6" class="st0"/>
			<polygon points="180.4 41.7 180.4 44.5 177.6 42.8 177.7 40" class="st6"/>
			<polygon points="180.1 42.2 180.1 41.8 177.9 40.5 177.9 41" class="st0"/>
		<polygon points="194.8 59.3 194.8 48.8 203.3 44.1 203.3 54.5" class="st12"/>
		<polygon points="194.8 59.3 194.8 48.8 186.4 43.9 186.3 54.3" class="st13"/>
		<polygon points="186.4 43.9 194.8 48.8 203.3 44.1 194.9 39.2" class="st14"/>
			<polygon points="200.1 48.9 198.2 50 198.3 46.9 200.2 45.9" class="st0"/>
			<polygon points="200.2 45.9 191.7 40.9 189.8 42 198.3 46.9" class="st15"/>
			<polygon points="195.9 57.8 195.9 57.3 198.7 55.7 198.7 56.2" class="st0"/>
			<polygon points="195.9 56.8 195.9 56.3 198.7 54.7 198.7 55.3" class="st0"/>
			<polygon points="201.3 53 201.3 54.9 202.7 54.1 202.7 52.2" class="st0"/>
			<polygon points="188.2 52.6 188.2 54.6 186.8 53.8 186.8 51.9" class="st0"/>
			<polygon points="190 53.7 190 55.7 188.7 54.9 188.7 52.9" class="st0"/>
			<polygon points="189.7 47 189.6 49.8 186.9 48.2 186.9 45.4" class="st6"/>
			<polygon points="189.3 47.6 189.3 47.1 187.1 45.8 187.1 46.3" class="st0"/>
	<polygon points="194 13.9 171.3 26.6 220 55.1 242.7 42.5" class="st17"/>
	<polygon points="220 56.7 220 55 242.7 42.4 242.7 44" class="st18"/>
	<polygon points="171.3 26.6 171.3 28.2 220 56.6 220 55" class="st19"/>
			<polygon points="212.2 26 195.2 35.4 195.7 35.8 212.8 26.3" class="st20"/>
			<polygon points="212.8 26.3 195.7 35.8 195.7 38.2 212.8 28.7" class="st21"/>
			<polygon points="195.2 37.9 195.2 35.4 195.7 35.8 195.7 38.2" class="st22"/>
			<polygon points="193.3 15 176.3 24.4 176.9 24.7 193.9 15.3" class="st20"/>
			<polygon points="193.9 15.3 176.9 24.7 176.8 27.1 193.9 17.6" class="st21"/>
			<polygon points="176.3 26.8 176.3 24.4 176.9 24.7 176.8 27.1" class="st22"/>
			<polygon points="202.5 20.2 185.5 29.7 186 30 203.1 20.5" class="st20"/>
			<polygon points="203.1 20.5 186 30 186 32.4 203.1 22.9" class="st21"/>
			<polygon points="185.5 32.1 185.5 29.7 186 30 186 32.4" class="st22"/>
			<polygon points="195.7 35 176.3 23.8 176.3 24.5 195.7 35.8" class="st22"/>
			<polygon points="197.8 33.9 195.7 35 176.3 23.8 178.4 22.7" class="st20"/>
			<polygon points="197.8 33.9 195.7 35 195.7 36.5 197.8 35.3" class="st21"/>
			<polygon points="199.5 32.9 180.1 21.5 180.1 22.3 199.5 33.7" class="st22"/>
			<polygon points="201.6 31.8 199.5 32.9 180.1 21.5 182.1 20.4" class="st20"/>
			<polygon points="201.6 31.8 199.5 32.9 199.5 34.3 201.6 33.2" class="st21"/>
			<polygon points="203.4 30.8 183.9 19.4 183.9 20.2 203.4 31.5" class="st22"/>
			<polygon points="205.5 29.7 203.4 30.8 183.9 19.4 186 18.3" class="st20"/>
			<polygon points="205.5 29.7 203.4 30.8 203.4 32.2 205.5 31.1" class="st21"/>
			<polygon points="207.2 28.6 187.8 17.3 187.8 18.1 207.2 29.4" class="st22"/>
			<polygon points="209.3 27.5 207.2 28.6 187.8 17.3 189.8 16.2" class="st20"/>
			<polygon points="209.3 27.5 207.2 28.6 207.2 30 209.3 28.9" class="st21"/>
			<polygon points="210.7 26.7 191.2 15.4 191.2 16.1 210.7 27.5" class="st22"/>
			<polygon points="212.8 25.6 210.7 26.7 191.2 15.4 193.3 14.3" class="st20"/>
			<polygon points="212.8 25.6 210.7 26.7 210.7 28.1 212.8 27" class="st21"/>
		<polygon points="194.4 24.1 194.5 13.7 203 9 202.9 19.4" class="st12"/>
		<polygon points="194.4 24.1 194.5 13.7 186.1 8.8 186 19.2" class="st13"/>
		<polygon points="186.1 8.8 194.5 13.7 203 9 194.6 4" class="st14"/>
			<polygon points="199.8 13.8 197.9 14.8 197.9 11.8 199.8 10.7" class="st0"/>
			<polygon points="199.8 10.7 191.4 5.8 189.5 6.8 197.9 11.8" class="st15"/>
			<polygon points="195.6 22.6 195.6 22.1 198.4 20.5 198.4 21.1" class="st0"/>
			<polygon points="195.6 21.7 195.6 21.2 198.4 19.6 198.4 20.1" class="st0"/>
			<polygon points="201 17.8 201 19.7 202.3 18.9 202.4 17.1" class="st0"/>
			<polygon points="187.9 17.5 187.9 19.4 186.5 18.6 186.5 16.7" class="st0"/>
			<polygon points="189.7 18.6 189.7 20.5 188.4 19.7 188.4 17.8" class="st0"/>
			<polygon points="189.3 11.8 189.3 14.6 186.5 13 186.6 10.2" class="st6"/>
			<polygon points="189 12.4 189 11.9 186.8 10.7 186.8 11.1" class="st0"/>
		<polygon points="203.7 29.5 203.7 19 212.2 14.3 212.2 24.7" class="st12"/>
		<polygon points="203.7 29.5 203.7 19 195.3 14.1 195.2 24.5" class="st13"/>
		<polygon points="195.3 14.1 203.7 19 212.2 14.3 203.8 9.4" class="st14"/>
			<polygon points="209 19.1 207.2 20.1 207.2 17.1 209.1 16" class="st0"/>
			<polygon points="209.1 16 200.6 11.1 198.7 12.2 207.2 17.1" class="st15"/>
			<polygon points="204.8 28 204.8 27.4 207.6 25.8 207.6 26.4" class="st0"/>
			<polygon points="204.8 27 204.8 26.5 207.7 24.9 207.7 25.4" class="st0"/>
			<polygon points="210.2 23.2 210.2 25 211.6 24.3 211.6 22.4" class="st0"/>
			<polygon points="197.1 22.8 197.1 24.8 195.7 24 195.7 22" class="st0"/>
			<polygon points="198.9 23.9 198.9 25.8 197.6 25 197.6 23.1" class="st0"/>
			<polygon points="198.6 17.2 198.6 19.9 195.8 18.3 195.8 15.5" class="st6"/>
			<polygon points="198.2 17.7 198.2 17.3 196 16 196 16.4" class="st0"/>
		<polygon points="185.7 29.2 185.8 18.8 194.2 14 194.2 24.5" class="st12"/>
		<polygon points="185.7 29.2 185.8 18.8 177.3 13.8 177.2 24.3" class="st13"/>
		<polygon points="177.3 13.8 185.8 18.8 194.2 14 185.8 9.1" class="st14"/>
			<polygon points="191.1 18.8 189.2 19.9 189.2 16.8 191.1 15.8" class="st0"/>
			<polygon points="191.1 15.8 182.7 10.9 180.8 11.9 189.2 16.8" class="st15"/>
			<polygon points="186.8 27.7 186.8 27.2 189.7 25.6 189.7 26.1" class="st0"/>
			<polygon points="186.8 26.8 186.8 26.2 189.7 24.6 189.7 25.2" class="st0"/>
			<polygon points="192.2 22.9 192.2 24.8 193.6 24 193.6 22.2" class="st0"/>
			<polygon points="179.1 22.6 179.1 24.5 177.8 23.7 177.8 21.8" class="st0"/>
			<polygon points="181 23.7 181 25.6 179.6 24.8 179.6 22.9" class="st0"/>
			<polygon points="180.6 16.9 180.6 19.7 177.8 18.1 177.8 15.3" class="st6"/>
			<polygon points="180.2 17.5 180.2 17 178.1 15.8 178.1 16.2" class="st0"/>
		<polygon points="194.9 34.5 195 24.1 203.5 19.4 203.4 29.8" class="st12"/>
		<polygon points="194.9 34.5 195 24.1 186.5 19.2 186.5 29.6" class="st13"/>
		<polygon points="186.5 19.2 195 24.1 203.5 19.4 195 14.4" class="st14"/>
			<polygon points="200.3 24.2 198.4 25.2 198.4 22.2 200.3 21.1" class="st0"/>
			<polygon points="200.3 21.1 191.9 16.2 190 17.2 198.4 22.2" class="st15"/>
			<polygon points="196 33 196 32.5 198.9 30.9 198.9 31.5" class="st0"/>
			<polygon points="196 32.1 196.1 31.6 198.9 30 198.9 30.5" class="st0"/>
			<polygon points="201.5 28.2 201.5 30.1 202.8 29.3 202.8 27.5" class="st0"/>
			<polygon points="188.3 27.9 188.3 29.8 187 29 187 27.1" class="st0"/>
			<polygon points="190.2 29 190.2 30.9 188.8 30.1 188.8 28.2" class="st0"/>
			<polygon points="189.8 22.2 189.8 25 187 23.4 187 20.6" class="st6"/>
			<polygon points="189.5 22.8 189.5 22.4 187.3 21.1 187.3 21.5" class="st0"/>
		<polygon points="220 108.1 220.4 44 219.3 43.4 218.9 107.5" class="st9"/>
		<polygon points="220 108.1 221.3 107.4 221.7 43.3 220.4 44" class="st0"/>
		<polygon points="242.7 95.5 243.1 31.5 242 30.8 241.6 94.9" class="st9"/>
		<polygon points="242.7 95.5 244 94.8 244.4 30.7 243.1 31.5" class="st0"/>
		<polygon points="219.3 43.4 220.4 44 221.7 43.3 220.6 42.7" class="st16"/>
		<polygon points="242 30.8 243.1 31.5 244.4 30.7 243.3 30.1" class="st16"/>
	<polygon points="243.6 93.2 242.7 94 220.7 76.5 221.1 75.2" class="st0"/>
	<polygon points="220.7 105.2 220.9 106.5 243.4 64.1 242.9 63.4" class="st0"/>
	<polygon points="243.8 63 242.9 63.8 220.9 46.3 221.3 45" class="st0"/>
	<polygon points="220.9 75 221.1 76.3 243.6 34 243.1 33.2" class="st0"/>
		<polygon points="122.5 102.8 122.9 38.7 121.8 38.1 121.4 102.2" class="st9"/>
		<polygon points="122.5 102.8 123.7 102.1 124.1 38 122.9 38.7" class="st0"/>
		<polygon points="145.2 90.2 145.6 26.2 144.5 25.5 144.1 89.6" class="st9"/>
		<polygon points="145.2 90.2 146.5 89.5 146.9 25.4 145.6 26.2" class="st0"/>
		<polygon points="121.8 38.1 122.9 38.7 124.1 38 123.1 37.4" class="st16"/>
		<polygon points="144.5 25.5 145.6 26.2 146.9 25.4 145.8 24.8" class="st16"/>
	<polygon points="146.1 87.9 145.2 88.7 123.2 71.2 123.6 69.9" class="st0"/>
	<polygon points="123.2 99.9 123.4 101.2 145.9 58.8 145.4 58.1" class="st0"/>
	<polygon points="146.3 57.7 145.4 58.5 123.4 41 123.8 39.7" class="st0"/>
	<polygon points="123.4 69.7 123.6 71 146.1 28.7 145.6 27.9" class="st0"/>
	<polygon points="145.5 85.8 122.8 98.4 171.5 127 194.3 114.3" class="st17"/>
	<polygon points="171.5 128.5 171.5 126.9 194.3 114.3 194.2 115.9" class="st18"/>
	<polygon points="122.8 98.4 122.8 100.1 171.5 128.5 171.5 126.8" class="st19"/>
			<polygon points="186.9 112.1 169.9 121.6 170.4 121.9 187.5 112.4" class="st20"/>
			<polygon points="187.5 112.4 170.4 121.9 170.4 124.3 187.5 114.8" class="st21"/>
			<polygon points="169.9 124 169.9 121.6 170.4 121.9 170.4 124.3" class="st22"/>
			<polygon points="168.1 101.1 151 110.6 151.6 110.9 168.6 101.4" class="st20"/>
			<polygon points="168.6 101.4 151.6 110.9 151.6 113.3 168.6 103.8" class="st21"/>
			<polygon points="151 113 151 110.6 151.6 110.9 151.6 113.3" class="st22"/>
			<polygon points="177.2 106.3 160.2 115.8 160.7 116.1 177.8 106.7" class="st20"/>
			<polygon points="177.8 106.7 160.7 116.1 160.7 118.5 177.8 109" class="st21"/>
			<polygon points="160.2 118.2 160.2 115.8 160.7 116.1 160.7 118.5" class="st22"/>
			<polygon points="170.4 121.2 151 109.9 151 110.7 170.4 122" class="st22"/>
			<polygon points="172.5 120.1 170.4 121.2 151 109.9 153.1 108.8" class="st20"/>
			<polygon points="172.5 120.1 170.4 121.2 170.4 122.6 172.5 121.5" class="st21"/>
			<polygon points="174.2 119 154.8 107.7 154.8 108.5 174.2 119.8" class="st22"/>
			<polygon points="176.3 117.9 174.2 119 154.8 107.7 156.8 106.6" class="st20"/>
			<polygon points="176.3 117.9 174.2 119 174.2 120.5 176.3 119.3" class="st21"/>
			<polygon points="178.1 116.9 158.7 105.5 158.6 106.3 178.1 117.7" class="st22"/>
			<polygon points="180.2 115.8 178.1 116.9 158.7 105.5 160.7 104.4" class="st20"/>
			<polygon points="180.2 115.8 178.1 116.9 178.1 118.3 180.2 117.2" class="st21"/>
			<polygon points="181.9 114.7 162.5 103.5 162.5 104.2 181.9 115.5" class="st22"/>
			<polygon points="184 113.6 181.9 114.7 162.5 103.5 164.5 102.4" class="st20"/>
			<polygon points="184 113.6 181.9 114.7 181.9 116.2 184 115" class="st21"/>
			<polygon points="185.4 112.9 166 101.5 166 102.3 185.4 113.6" class="st22"/>
			<polygon points="187.5 111.8 185.4 112.9 166 101.5 168 100.4" class="st20"/>
			<polygon points="187.5 111.8 185.4 112.9 185.4 114.3 187.5 113.1" class="st21"/>
		<polygon points="161.8 114.7 161.8 108.7 153.1 103.6 153 109.6" class="st12"/>
		<polygon points="161.8 114.7 161.8 108.7 174.5 101.7 174.5 107.6" class="st13"/>
		<polygon points="174.5 101.7 161.8 108.7 153.1 103.6 165.8 96.6" class="st14"/>
			<polygon points="156.3 108.7 158.3 109.8 158.3 106.7 156.3 105.5" class="st0"/>
			<polygon points="156.3 105.5 169 98.5 171 99.6 158.3 106.7" class="st15"/>
			<polygon points="161.1 113.7 161.1 113.2 158.2 111.4 158.2 112" class="st0"/>
			<polygon points="161.1 112.7 161.1 112.2 158.2 110.4 158.2 111" class="st0"/>
			<polygon points="172.7 105.9 172.7 107.9 174.1 107.2 174.1 105.1" class="st0"/>
			<polygon points="170.8 107 170.8 109 172.2 108.2 172.2 106.2" class="st0"/>
			<polygon points="168.8 108.1 168.8 110.1 170.2 109.3 170.2 107.3" class="st0"/>
			<polygon points="162.2 109 162.2 111.9 165.1 110.3 165.1 107.4" class="st6"/>
			<polygon points="162.6 109.6 162.6 109.1 164.9 107.9 164.8 108.3" class="st0"/>
		<polygon points="171.4 120.4 171.4 114.4 162.7 109.3 162.6 115.3" class="st12"/>
		<polygon points="171.4 120.4 171.4 114.4 184.1 107.4 184.1 113.3" class="st13"/>
		<polygon points="184.1 107.4 171.4 114.4 162.7 109.3 175.4 102.3" class="st14"/>
			<polygon points="165.9 114.4 167.9 115.5 167.9 112.4 165.9 111.2" class="st0"/>
			<polygon points="165.9 111.2 178.6 104.2 180.6 105.3 167.9 112.4" class="st15"/>
			<polygon points="170.8 119.4 170.8 118.8 167.8 117.1 167.8 117.7" class="st0"/>
			<polygon points="170.8 118.4 170.8 117.9 167.8 116.1 167.8 116.7" class="st0"/>
			<polygon points="182.3 111.6 182.3 113.6 183.7 112.8 183.7 110.8" class="st0"/>
			<polygon points="180.4 112.7 180.4 114.7 181.8 113.9 181.8 111.9" class="st0"/>
			<polygon points="178.4 113.8 178.4 115.8 179.8 115 179.9 113" class="st0"/>
			<polygon points="171.8 114.7 171.8 117.6 174.7 116 174.7 113.1" class="st6"/>
			<polygon points="172.2 115.3 172.2 114.8 174.5 113.5 174.5 114" class="st0"/>
		<polygon points="161.8 108.1 161.9 102.2 153.1 97.1 153.1 103" class="st12"/>
		<polygon points="161.8 108.1 161.9 102.2 174.6 95.1 174.5 101.1" class="st13"/>
		<polygon points="174.6 95.1 161.9 102.2 153.1 97.1 165.8 90" class="st14"/>
			<polygon points="156.3 102.1 158.3 103.2 158.3 100.1 156.4 98.9" class="st0"/>
			<polygon points="156.4 98.9 169.1 91.9 171 93 158.3 100.1" class="st15"/>
			<polygon points="161.2 107.1 161.2 106.6 158.2 104.9 158.2 105.4" class="st0"/>
			<polygon points="161.2 106.1 161.2 105.6 158.3 103.9 158.2 104.4" class="st0"/>
			<polygon points="172.8 99.3 172.7 101.4 174.2 100.6 174.2 98.6" class="st0"/>
			<polygon points="170.8 100.4 170.8 102.4 172.2 101.6 172.2 99.6" class="st0"/>
			<polygon points="168.9 101.5 168.9 103.5 170.3 102.7 170.3 100.7" class="st0"/>
			<polygon points="162.3 102.4 162.2 105.3 165.1 103.7 165.2 100.8" class="st6"/>
			<polygon points="162.6 103 162.6 102.5 164.9 101.3 164.9 101.7" class="st0"/>
		<polygon points="171.4 113.8 171.5 107.8 162.7 102.7 162.7 108.7" class="st12"/>
		<polygon points="171.4 113.8 171.5 107.8 184.2 100.8 184.1 106.7" class="st13"/>
		<polygon points="184.2 100.8 171.5 107.8 162.7 102.7 175.4 95.7" class="st14"/>
			<polygon points="166 107.8 167.9 108.9 167.9 105.8 166 104.6" class="st0"/>
			<polygon points="166 104.6 178.7 97.6 180.6 98.7 167.9 105.8" class="st15"/>
			<polygon points="170.8 112.8 170.8 112.3 167.9 110.5 167.9 111.1" class="st0"/>
			<polygon points="170.8 111.8 170.8 111.3 167.9 109.5 167.9 110.1" class="st0"/>
			<polygon points="182.4 105 182.4 107 183.8 106.3 183.8 104.2" class="st0"/>
			<polygon points="180.4 106.1 180.4 108.1 181.8 107.3 181.9 105.3" class="st0"/>
			<polygon points="178.5 107.2 178.5 109.2 179.9 108.4 179.9 106.4" class="st0"/>
			<polygon points="171.9 108.1 171.8 111 174.8 109.4 174.8 106.5" class="st6"/>
			<polygon points="172.2 108.7 172.2 108.2 174.5 107 174.5 107.4" class="st0"/>
	<polygon points="145.7 61.3 123 74 171.7 102.5 194.4 89.9" class="st17"/>
	<polygon points="171.7 104.1 171.7 102.4 194.4 89.8 194.4 91.4" class="st18"/>
	<polygon points="123 74 123 75.6 171.7 104 171.7 102.4" class="st19"/>
			<polygon points="163.9 74.3 146.9 83.8 147.4 84.1 164.4 74.6" class="st20"/>
			<polygon points="164.4 74.6 147.4 84.1 147.4 86.5 164.4 77" class="st21"/>
			<polygon points="146.8 86.2 146.9 83.8 147.4 84.1 147.4 86.5" class="st22"/>
			<polygon points="145 63.3 128 72.7 128.5 73.1 145.6 63.6" class="st20"/>
			<polygon points="145.6 63.6 128.5 73.1 128.5 75.4 145.6 66" class="st21"/>
			<polygon points="128 75.1 128 72.7 128.5 73.1 128.5 75.4" class="st22"/>
			<polygon points="154.2 68.5 137.2 78 137.7 78.3 154.7 68.8" class="st20"/>
			<polygon points="154.7 68.8 137.7 78.3 137.7 80.7 154.7 71.2" class="st21"/>
			<polygon points="137.1 80.4 137.2 78 137.7 78.3 137.7 80.7" class="st22"/>
			<polygon points="147.4 83.4 128 72.1 128 72.8 147.4 84.1" class="st22"/>
			<polygon points="149.4 82.3 147.4 83.4 128 72.1 130 71" class="st20"/>
			<polygon points="149.4 82.3 147.4 83.4 147.4 84.8 149.4 83.6" class="st21"/>
			<polygon points="151.2 81.2 131.8 69.9 131.8 70.6 151.2 82" class="st22"/>
			<polygon points="153.2 80.1 151.2 81.2 131.8 69.9 133.8 68.8" class="st20"/>
			<polygon points="153.2 80.1 151.2 81.2 151.2 82.6 153.2 81.5" class="st21"/>
			<polygon points="155.1 79.1 135.6 67.7 135.6 68.5 155.1 79.8" class="st22"/>
			<polygon points="157.1 78 155.1 79.1 135.6 67.7 137.6 66.6" class="st20"/>
			<polygon points="157.1 78 155.1 79.1 155.1 80.5 157.1 79.4" class="st21"/>
			<polygon points="158.9 76.9 139.5 65.6 139.5 66.4 158.9 77.7" class="st22"/>
			<polygon points="160.9 75.8 158.9 76.9 139.5 65.6 141.5 64.5" class="st20"/>
			<polygon points="160.9 75.8 158.9 76.9 158.9 78.4 160.9 77.2" class="st21"/>
			<polygon points="162.4 75 142.9 63.7 142.9 64.5 162.4 75.8" class="st22"/>
			<polygon points="164.4 73.9 162.4 75 142.9 63.7 145 62.6" class="st20"/>
			<polygon points="164.4 73.9 162.4 75 162.4 76.5 164.4 75.3" class="st21"/>
		<polygon points="146.1 72.4 146.2 62 154.7 57.3 154.6 67.7" class="st12"/>
		<polygon points="146.1 72.4 146.2 62 137.7 57.1 137.7 67.5" class="st13"/>
		<polygon points="137.7 57.1 146.2 62 154.7 57.3 146.2 52.3" class="st14"/>
			<polygon points="151.5 62.1 149.6 63.1 149.6 60.1 151.5 59" class="st0"/>
			<polygon points="151.5 59 143.1 54.1 141.2 55.2 149.6 60.1" class="st15"/>
			<polygon points="147.2 71 147.2 70.4 150.1 68.8 150.1 69.4" class="st0"/>
			<polygon points="147.2 70 147.2 69.5 150.1 67.9 150.1 68.4" class="st0"/>
			<polygon points="152.7 66.1 152.7 68 154 67.3 154 65.4" class="st0"/>
			<polygon points="139.5 65.8 139.5 67.7 138.2 67 138.2 65" class="st0"/>
			<polygon points="141.4 66.9 141.4 68.8 140 68 140 66.1" class="st0"/>
			<polygon points="141 60.1 141 62.9 138.2 61.3 138.2 58.5" class="st6"/>
			<polygon points="140.7 60.7 140.7 60.3 138.5 59 138.5 59.4" class="st0"/>
		<polygon points="155.3 77.8 155.4 67.3 163.9 62.6 163.8 73" class="st12"/>
		<polygon points="155.3 77.8 155.4 67.3 147 62.4 146.9 72.8" class="st13"/>
		<polygon points="147 62.4 155.4 67.3 163.9 62.6 155.5 57.7" class="st14"/>
			<polygon points="160.7 67.4 158.8 68.4 158.8 65.4 160.7 64.3" class="st0"/>
			<polygon points="160.7 64.3 152.3 59.4 150.4 60.5 158.8 65.4" class="st15"/>
			<polygon points="156.5 76.3 156.5 75.7 159.3 74.2 159.3 74.7" class="st0"/>
			<polygon points="156.5 75.3 156.5 74.8 159.3 73.2 159.3 73.7" class="st0"/>
			<polygon points="161.9 71.5 161.9 73.3 163.2 72.6 163.3 70.7" class="st0"/>
			<polygon points="148.8 71.1 148.8 73.1 147.4 72.3 147.4 70.3" class="st0"/>
			<polygon points="150.6 72.2 150.6 74.1 149.2 73.4 149.3 71.4" class="st0"/>
			<polygon points="150.2 65.5 150.2 68.3 147.4 66.6 147.5 63.8" class="st6"/>
			<polygon points="149.9 66 149.9 65.6 147.7 64.3 147.7 64.8" class="st0"/>
		<polygon points="137.4 77.5 137.4 67.1 145.9 62.3 145.9 72.8" class="st12"/>
		<polygon points="137.4 77.5 137.4 67.1 129 62.2 128.9 72.6" class="st13"/>
		<polygon points="129 62.2 137.4 67.1 145.9 62.3 137.5 57.4" class="st14"/>
			<polygon points="142.7 67.1 140.8 68.2 140.9 65.2 142.8 64.1" class="st0"/>
			<polygon points="142.8 64.1 134.3 59.2 132.4 60.2 140.9 65.2" class="st15"/>
			<polygon points="138.5 76 138.5 75.5 141.3 73.9 141.3 74.5" class="st0"/>
			<polygon points="138.5 75.1 138.5 74.5 141.3 72.9 141.3 73.5" class="st0"/>
			<polygon points="143.9 71.2 143.9 73.1 145.3 72.3 145.3 70.5" class="st0"/>
			<polygon points="130.8 70.9 130.8 72.8 129.4 72 129.4 70.1" class="st0"/>
			<polygon points="132.6 72 132.6 73.9 131.3 73.1 131.3 71.2" class="st0"/>
			<polygon points="132.3 65.2 132.2 68 129.5 66.4 129.5 63.6" class="st6"/>
			<polygon points="131.9 65.8 131.9 65.3 129.7 64.1 129.7 64.5" class="st0"/>
		<polygon points="146.6 82.8 146.6 72.4 155.1 67.7 155.1 78.1" class="st12"/>
		<polygon points="146.6 82.8 146.6 72.4 138.2 67.5 138.1 77.9" class="st13"/>
		<polygon points="138.2 67.5 146.6 72.4 155.1 67.7 146.7 62.8" class="st14"/>
			<polygon points="152 72.5 150.1 73.5 150.1 70.5 152 69.4" class="st0"/>
			<polygon points="152 69.4 143.6 64.5 141.7 65.6 150.1 70.5" class="st15"/>
			<polygon points="147.7 81.4 147.7 80.8 150.6 79.2 150.6 79.8" class="st0"/>
			<polygon points="147.7 80.4 147.7 79.9 150.6 78.3 150.6 78.8" class="st0"/>
			<polygon points="153.1 76.6 153.1 78.4 154.5 77.7 154.5 75.8" class="st0"/>
			<polygon points="140 76.2 140 78.1 138.6 77.4 138.7 75.4" class="st0"/>
			<polygon points="141.9 77.3 141.9 79.2 140.5 78.4 140.5 76.5" class="st0"/>
			<polygon points="141.5 70.5 141.5 73.3 138.7 71.7 138.7 68.9" class="st6"/>
			<polygon points="141.1 71.1 141.1 70.7 139 69.4 139 69.8" class="st0"/>
			<polygon points="187.1 87.7 170 97.2 170.6 97.5 187.6 88.1" class="st20"/>
			<polygon points="187.6 88.1 170.6 97.5 170.6 99.9 187.6 90.4" class="st21"/>
			<polygon points="170 99.6 170 97.2 170.6 97.5 170.6 99.9" class="st22"/>
			<polygon points="168.2 76.7 151.2 86.2 151.7 86.5 168.8 77" class="st20"/>
			<polygon points="168.8 77 151.7 86.5 151.7 88.9 168.8 79.4" class="st21"/>
			<polygon points="151.2 88.6 151.2 86.2 151.7 86.5 151.7 88.9" class="st22"/>
			<polygon points="177.4 82 160.4 91.4 160.9 91.7 177.9 82.3" class="st20"/>
			<polygon points="177.9 82.3 160.9 91.7 160.9 94.1 177.9 84.7" class="st21"/>
			<polygon points="160.3 93.8 160.4 91.4 160.9 91.7 160.9 94.1" class="st22"/>
			<polygon points="170.6 96.8 151.2 85.5 151.2 86.3 170.6 97.6" class="st22"/>
			<polygon points="172.6 95.7 170.6 96.8 151.2 85.5 153.2 84.4" class="st20"/>
			<polygon points="172.6 95.7 170.6 96.8 170.6 98.2 172.6 97.1" class="st21"/>
			<polygon points="174.4 94.6 155 83.3 154.9 84.1 174.4 95.4" class="st22"/>
			<polygon points="176.4 93.5 174.4 94.6 155 83.3 157 82.2" class="st20"/>
			<polygon points="176.4 93.5 174.4 94.6 174.4 96.1 176.4 94.9" class="st21"/>
			<polygon points="178.3 92.5 158.8 81.2 158.8 81.9 178.3 93.3" class="st22"/>
			<polygon points="180.3 91.4 178.3 92.5 158.8 81.2 160.8 80.1" class="st20"/>
			<polygon points="180.3 91.4 178.3 92.5 178.3 94 180.3 92.8" class="st21"/>
			<polygon points="182.1 90.4 162.7 79.1 162.7 79.8 182.1 91.1" class="st22"/>
			<polygon points="184.1 89.3 182.1 90.4 162.7 79.1 164.7 78" class="st20"/>
			<polygon points="184.1 89.3 182.1 90.4 182.1 91.8 184.1 90.7" class="st21"/>
			<polygon points="185.6 88.5 166.1 77.1 166.1 77.9 185.6 89.2" class="st22"/>
			<polygon points="187.6 87.4 185.6 88.5 166.1 77.1 168.1 76" class="st20"/>
			<polygon points="187.6 87.4 185.6 88.5 185.6 89.9 187.6 88.8" class="st21"/>
		<polygon points="169.3 85.9 169.4 75.4 177.9 70.7 177.8 81.1" class="st12"/>
		<polygon points="169.3 85.9 169.4 75.4 160.9 70.5 160.9 81" class="st13"/>
		<polygon points="160.9 70.5 169.4 75.4 177.9 70.7 169.4 65.8" class="st14"/>
			<polygon points="174.7 75.5 172.8 76.6 172.8 73.5 174.7 72.5" class="st0"/>
			<polygon points="174.7 72.5 166.3 67.5 164.4 68.6 172.8 73.5" class="st15"/>
			<polygon points="170.4 84.4 170.4 83.9 173.3 82.3 173.3 82.8" class="st0"/>
			<polygon points="170.4 83.4 170.4 82.9 173.3 81.3 173.3 81.9" class="st0"/>
			<polygon points="175.9 79.6 175.8 81.5 177.2 80.7 177.2 78.8" class="st0"/>
			<polygon points="162.7 79.3 162.7 81.2 161.4 80.4 161.4 78.5" class="st0"/>
			<polygon points="164.6 80.3 164.6 82.3 163.2 81.5 163.2 79.5" class="st0"/>
			<polygon points="164.2 73.6 164.2 76.4 161.4 74.8 161.4 72" class="st6"/>
			<polygon points="163.9 74.2 163.9 73.7 161.7 72.4 161.7 72.9" class="st0"/>
		<polygon points="178.5 91.2 178.6 80.8 187.1 76 187 86.5" class="st12"/>
		<polygon points="178.5 91.2 178.6 80.8 170.2 75.8 170.1 86.3" class="st13"/>
		<polygon points="170.2 75.8 178.6 80.8 187.1 76 178.7 71.1" class="st14"/>
			<polygon points="183.9 80.8 182 81.9 182 78.8 183.9 77.8" class="st0"/>
			<polygon points="183.9 77.8 175.5 72.9 173.6 73.9 182 78.8" class="st15"/>
			<polygon points="179.7 89.7 179.7 89.2 182.5 87.6 182.5 88.1" class="st0"/>
			<polygon points="179.7 88.8 179.7 88.2 182.5 86.6 182.5 87.2" class="st0"/>
			<polygon points="185.1 84.9 185.1 86.8 186.4 86 186.4 84.2" class="st0"/>
			<polygon points="172 84.6 172 86.5 170.6 85.7 170.6 83.8" class="st0"/>
			<polygon points="173.8 85.7 173.8 87.6 172.4 86.8 172.5 84.9" class="st0"/>
			<polygon points="173.4 78.9 173.4 81.7 170.6 80.1 170.6 77.3" class="st6"/>
			<polygon points="173.1 79.5 173.1 79 170.9 77.8 170.9 78.2" class="st0"/>
		<polygon points="160.6 91 160.6 80.5 169.1 75.8 169 86.2" class="st12"/>
		<polygon points="160.6 91 160.6 80.5 152.2 75.6 152.1 86" class="st13"/>
		<polygon points="152.2 75.6 160.6 80.5 169.1 75.8 160.7 70.9" class="st14"/>
			<polygon points="165.9 80.6 164 81.6 164.1 78.6 166 77.5" class="st0"/>
			<polygon points="166 77.5 157.5 72.6 155.6 73.7 164.1 78.6" class="st15"/>
			<polygon points="161.7 89.5 161.7 88.9 164.5 87.4 164.5 87.9" class="st0"/>
			<polygon points="161.7 88.5 161.7 88 164.5 86.4 164.5 86.9" class="st0"/>
			<polygon points="167.1 84.7 167.1 86.5 168.5 85.8 168.5 83.9" class="st0"/>
			<polygon points="154 84.3 154 86.3 152.6 85.5 152.6 83.5" class="st0"/>
			<polygon points="155.8 85.4 155.8 87.4 154.5 86.6 154.5 84.6" class="st0"/>
			<polygon points="155.5 78.7 155.4 81.5 152.7 79.8 152.7 77" class="st6"/>
			<polygon points="155.1 79.2 155.1 78.8 152.9 77.5 152.9 78" class="st0"/>
		<polygon points="169.8 96.3 169.8 85.8 178.3 81.1 178.3 91.5" class="st12"/>
		<polygon points="169.8 96.3 169.8 85.8 161.4 80.9 161.3 91.4" class="st13"/>
		<polygon points="161.4 80.9 169.8 85.8 178.3 81.1 169.9 76.2" class="st14"/>
			<polygon points="175.2 85.9 173.3 87 173.3 83.9 175.2 82.9" class="st0"/>
			<polygon points="175.2 82.9 166.8 77.9 164.9 79 173.3 83.9" class="st15"/>
			<polygon points="170.9 94.8 170.9 94.3 173.8 92.7 173.8 93.2" class="st0"/>
			<polygon points="170.9 93.8 170.9 93.3 173.8 91.7 173.8 92.3" class="st0"/>
			<polygon points="176.3 90 176.3 91.9 177.7 91.1 177.7 89.2" class="st0"/>
			<polygon points="163.2 89.7 163.2 91.6 161.8 90.8 161.9 88.9" class="st0"/>
			<polygon points="165.1 90.7 165 92.7 163.7 91.9 163.7 89.9" class="st0"/>
			<polygon points="164.7 84 164.7 86.8 161.9 85.2 161.9 82.4" class="st6"/>
			<polygon points="164.3 84.6 164.3 84.1 162.1 82.8 162.1 83.3" class="st0"/>
	<polygon points="145.8 37.5 123.1 50.1 171.8 78.7 194.6 66.1" class="st17"/>
	<polygon points="171.8 80.3 171.8 78.6 194.6 66 194.5 67.6" class="st18"/>
	<polygon points="123.1 50.1 123.1 51.8 171.8 80.2 171.8 78.5" class="st19"/>
			<polygon points="164 49.5 147 59 147.5 59.3 164.6 49.9" class="st20"/>
			<polygon points="164.6 49.9 147.5 59.3 147.5 61.7 164.6 52.2" class="st21"/>
			<polygon points="147 61.4 147 59 147.5 59.3 147.5 61.7" class="st22"/>
			<polygon points="145.2 38.5 128.2 48 128.7 48.3 145.7 38.8" class="st20"/>
			<polygon points="145.7 38.8 128.7 48.3 128.7 50.7 145.7 41.2" class="st21"/>
			<polygon points="128.1 50.4 128.2 48 128.7 48.3 128.7 50.7" class="st22"/>
			<polygon points="154.3 43.8 137.3 53.2 137.8 53.6 154.9 44.1" class="st20"/>
			<polygon points="154.9 44.1 137.8 53.6 137.8 55.9 154.9 46.5" class="st21"/>
			<polygon points="137.3 55.6 137.3 53.2 137.8 53.6 137.8 55.9" class="st22"/>
			<polygon points="147.5 58.6 128.2 47.3 128.2 48.1 147.5 59.4" class="st22"/>
			<polygon points="149.6 57.5 147.5 58.6 128.2 47.3 130.2 46.2" class="st20"/>
			<polygon points="149.6 57.5 147.5 58.6 147.5 60 149.6 58.9" class="st21"/>
			<polygon points="151.3 56.4 131.9 45.1 131.9 45.9 151.3 57.2" class="st22"/>
			<polygon points="153.4 55.3 151.3 56.4 131.9 45.1 133.9 44" class="st20"/>
			<polygon points="153.4 55.3 151.3 56.4 151.3 57.9 153.4 56.7" class="st21"/>
			<polygon points="155.2 54.3 135.8 43 135.8 43.7 155.2 55.1" class="st22"/>
			<polygon points="157.3 53.2 155.2 54.3 135.8 43 137.8 41.9" class="st20"/>
			<polygon points="157.3 53.2 155.2 54.3 155.2 55.8 157.3 54.6" class="st21"/>
			<polygon points="159.1 52.2 139.6 40.9 139.6 41.6 159 52.9" class="st22"/>
			<polygon points="161.1 51.1 159.1 52.2 139.6 40.9 141.7 39.8" class="st20"/>
			<polygon points="161.1 51.1 159.1 52.2 159 53.6 161.1 52.5" class="st21"/>
			<polygon points="162.6 50.3 143.1 38.9 143.1 39.7 162.6 51" class="st22"/>
			<polygon points="164.6 49.2 162.6 50.3 143.1 38.9 145.1 37.8" class="st20"/>
			<polygon points="164.6 49.2 162.6 50.3 162.5 51.7 164.6 50.6" class="st21"/>
		<polygon points="146.3 47.7 146.3 37.2 154.8 32.5 154.8 43" class="st12"/>
		<polygon points="146.3 47.7 146.3 37.2 137.9 32.3 137.8 42.8" class="st13"/>
		<polygon points="137.9 32.3 146.3 37.2 154.8 32.5 146.4 27.6" class="st14"/>
			<polygon points="151.6 37.3 149.8 38.4 149.8 35.3 151.7 34.3" class="st0"/>
			<polygon points="151.7 34.3 143.2 29.4 141.3 30.4 149.8 35.3" class="st15"/>
			<polygon points="147.4 46.2 147.4 45.7 150.2 44.1 150.2 44.6" class="st0"/>
			<polygon points="147.4 45.2 147.4 44.7 150.3 43.1 150.3 43.7" class="st0"/>
			<polygon points="152.8 41.4 152.8 43.3 154.2 42.5 154.2 40.6" class="st0"/>
			<polygon points="139.7 41.1 139.7 43 138.3 42.2 138.3 40.3" class="st0"/>
			<polygon points="141.5 42.1 141.5 44.1 140.2 43.3 140.2 41.3" class="st0"/>
			<polygon points="141.2 35.4 141.2 38.2 138.4 36.6 138.4 33.8" class="st6"/>
			<polygon points="140.8 36 140.8 35.5 138.6 34.2 138.6 34.7" class="st0"/>
		<polygon points="155.5 53 155.6 42.6 164.1 37.8 164 48.3" class="st12"/>
		<polygon points="155.5 53 155.6 42.6 147.1 37.6 147 48.1" class="st13"/>
		<polygon points="147.1 37.6 155.6 42.6 164.1 37.8 155.6 32.9" class="st14"/>
			<polygon points="160.9 42.6 159 43.7 159 40.6 160.9 39.6" class="st0"/>
			<polygon points="160.9 39.6 152.5 34.7 150.6 35.7 159 40.7" class="st15"/>
			<polygon points="156.6 51.5 156.6 51 159.5 49.4 159.5 49.9" class="st0"/>
			<polygon points="156.6 50.6 156.6 50 159.5 48.4 159.5 49" class="st0"/>
			<polygon points="162 46.7 162 48.6 163.4 47.8 163.4 46" class="st0"/>
			<polygon points="148.9 46.4 148.9 48.3 147.6 47.5 147.6 45.6" class="st0"/>
			<polygon points="150.8 47.5 150.8 49.4 149.4 48.6 149.4 46.7" class="st0"/>
			<polygon points="150.4 40.7 150.4 43.5 147.6 41.9 147.6 39.1" class="st6"/>
			<polygon points="150 41.3 150.1 40.8 147.9 39.6 147.9 40" class="st0"/>
		<polygon points="137.5 52.8 137.6 42.3 146.1 37.6 146 48" class="st12"/>
		<polygon points="137.5 52.8 137.6 42.3 129.1 37.4 129.1 47.8" class="st13"/>
		<polygon points="129.1 37.4 137.6 42.3 146.1 37.6 137.6 32.7" class="st14"/>
			<polygon points="142.9 42.4 141 43.5 141 40.4 142.9 39.3" class="st0"/>
			<polygon points="142.9 39.3 134.5 34.4 132.6 35.5 141 40.4" class="st15"/>
			<polygon points="138.6 51.3 138.6 50.8 141.5 49.2 141.5 49.7" class="st0"/>
			<polygon points="138.6 50.3 138.7 49.8 141.5 48.2 141.5 48.7" class="st0"/>
			<polygon points="144.1 46.5 144.1 48.3 145.4 47.6 145.4 45.7" class="st0"/>
			<polygon points="130.9 46.1 130.9 48.1 129.6 47.3 129.6 45.3" class="st0"/>
			<polygon points="132.8 47.2 132.8 49.2 131.4 48.4 131.4 46.4" class="st0"/>
			<polygon points="132.4 40.5 132.4 43.3 129.6 41.6 129.6 38.9" class="st6"/>
			<polygon points="132.1 41 132.1 40.6 129.9 39.3 129.9 39.8" class="st0"/>
		<polygon points="146.7 58.1 146.8 47.6 155.3 42.9 155.2 53.4" class="st12"/>
		<polygon points="146.7 58.1 146.8 47.6 138.4 42.7 138.3 53.2" class="st13"/>
		<polygon points="138.4 42.7 146.8 47.6 155.3 42.9 146.9 38" class="st14"/>
			<polygon points="152.1 47.7 150.2 48.8 150.2 45.7 152.1 44.7" class="st0"/>
			<polygon points="152.1 44.7 143.7 39.8 141.8 40.8 150.2 45.7" class="st15"/>
			<polygon points="147.9 56.6 147.9 56.1 150.7 54.5 150.7 55" class="st0"/>
			<polygon points="147.9 55.7 147.9 55.1 150.7 53.5 150.7 54.1" class="st0"/>
			<polygon points="153.3 51.8 153.3 53.7 154.6 52.9 154.7 51" class="st0"/>
			<polygon points="140.2 51.5 140.2 53.4 138.8 52.6 138.8 50.7" class="st0"/>
			<polygon points="142 52.5 142 54.5 140.7 53.7 140.7 51.7" class="st0"/>
			<polygon points="141.6 45.8 141.6 48.6 138.8 47 138.9 44.2" class="st6"/>
			<polygon points="141.3 46.4 141.3 45.9 139.1 44.6 139.1 45.1" class="st0"/>
			<polygon points="187.2 63 170.2 72.5 170.7 72.8 187.8 63.3" class="st20"/>
			<polygon points="187.8 63.3 170.7 72.8 170.7 75.2 187.8 65.7" class="st21"/>
			<polygon points="170.2 74.9 170.2 72.5 170.7 72.8 170.7 75.2" class="st22"/>
			<polygon points="168.4 52 151.4 61.4 151.9 61.8 168.9 52.3" class="st20"/>
			<polygon points="168.9 52.3 151.9 61.8 151.9 64.1 168.9 54.7" class="st21"/>
			<polygon points="151.3 63.8 151.4 61.4 151.9 61.8 151.9 64.1" class="st22"/>
			<polygon points="177.5 57.2 160.5 66.7 161 67 178.1 57.5" class="st20"/>
			<polygon points="178.1 57.5 161 67 161 69.4 178.1 59.9" class="st21"/>
			<polygon points="160.5 69.1 160.5 66.7 161 67 161 69.4" class="st22"/>
			<polygon points="170.7 72.1 151.4 60.8 151.4 61.5 170.7 72.8" class="st22"/>
			<polygon points="172.8 71 170.7 72.1 151.4 60.8 153.4 59.7" class="st20"/>
			<polygon points="172.8 71 170.7 72.1 170.7 73.5 172.8 72.3" class="st21"/>
			<polygon points="174.5 69.9 155.1 58.6 155.1 59.3 174.5 70.7" class="st22"/>
			<polygon points="176.6 68.8 174.5 69.9 155.1 58.6 157.1 57.5" class="st20"/>
			<polygon points="176.6 68.8 174.5 69.9 174.5 71.3 176.6 70.2" class="st21"/>
			<polygon points="178.4 67.8 159 56.4 159 57.2 178.4 68.5" class="st22"/>
			<polygon points="180.5 66.7 178.4 67.8 159 56.4 161 55.3" class="st20"/>
			<polygon points="180.5 66.7 178.4 67.8 178.4 69.2 180.5 68.1" class="st21"/>
			<polygon points="182.2 65.6 162.8 54.3 162.8 55.1 182.2 66.4" class="st22"/>
			<polygon points="184.3 64.5 182.2 65.6 162.8 54.3 164.8 53.2" class="st20"/>
			<polygon points="184.3 64.5 182.2 65.6 182.2 67 184.3 65.9" class="st21"/>
			<polygon points="185.8 63.7 166.3 52.4 166.3 53.2 185.7 64.5" class="st22"/>
			<polygon points="187.8 62.6 185.8 63.7 166.3 52.4 168.3 51.3" class="st20"/>
			<polygon points="187.8 62.6 185.8 63.7 185.7 65.2 187.8 64" class="st21"/>
		<polygon points="170.5 59.9 170.6 55.6 176.9 52.1 176.8 56.5" class="st12"/>
		<polygon points="170.5 59.9 170.6 55.6 163.3 51.4 163.3 55.7" class="st13"/>
		<polygon points="163.3 51.4 170.6 55.6 176.9 52.1 169.6 47.9" class="st14"/>
			<polygon points="171.1 59.2 171.1 58.7 173.4 57.4 173.4 57.8" class="st0"/>
			<polygon points="171.1 58.4 171.1 57.9 173.4 56.6 173.4 57" class="st0"/>
			<polygon points="165.4 53.6 165.4 55.6 164 54.7 164 52.7" class="st0"/>
		<polygon points="166.8 54.1 166.7 56.5 163.8 54.8 163.8 52.4" class="st6"/>
		<polygon points="166.3 54.7 166.3 54.2 164.2 53 164.2 53.4" class="st0"/>
		<polygon points="175 53.1 173.4 54 173.4 56.3 175 55.4" class="st0"/>
		<polygon points="175 53.1 167.8 48.9 166.2 49.8 173.4 54" class="st15"/>
		<polygon points="161.1 65.2 161.1 60.9 167.4 57.4 167.4 61.7" class="st12"/>
		<polygon points="161.1 65.2 161.1 60.9 153.9 56.6 153.8 61" class="st13"/>
		<polygon points="153.9 56.6 161.1 60.9 167.4 57.4 160.1 53.1" class="st14"/>
			<polygon points="161.6 64.4 161.6 63.9 164 62.6 164 63.1" class="st0"/>
			<polygon points="161.6 63.6 161.6 63.2 164 61.8 164 62.3" class="st0"/>
			<polygon points="156 58.8 155.9 60.8 154.5 60 154.6 58" class="st0"/>
		<polygon points="157.3 59.3 157.3 61.7 154.4 60 154.4 57.6" class="st6"/>
		<polygon points="156.8 59.9 156.8 59.5 154.7 58.2 154.7 58.6" class="st0"/>
		<polygon points="165.6 58.4 163.9 59.3 163.9 61.6 165.5 60.7" class="st0"/>
		<polygon points="165.6 58.4 158.3 54.2 156.7 55.1 163.9 59.3" class="st15"/>
		<polygon points="179.7 65.3 179.8 61 186.1 57.5 186 61.9" class="st12"/>
		<polygon points="179.7 65.3 179.8 61 172.5 56.8 172.5 61.1" class="st13"/>
		<polygon points="172.5 56.8 179.8 61 186.1 57.5 178.8 53.3" class="st14"/>
			<polygon points="180.3 64.6 180.3 64.1 182.6 62.8 182.6 63.2" class="st0"/>
			<polygon points="180.3 63.8 180.3 63.3 182.6 62 182.6 62.4" class="st0"/>
			<polygon points="174.6 59 174.6 61 173.2 60.1 173.2 58.1" class="st0"/>
		<polygon points="176 59.5 175.9 61.9 173 60.2 173 57.8" class="st6"/>
		<polygon points="175.5 60.1 175.5 59.6 173.4 58.4 173.4 58.8" class="st0"/>
		<polygon points="184.2 58.5 182.6 59.4 182.6 61.7 184.2 60.8" class="st0"/>
		<polygon points="184.2 58.5 177 54.3 175.4 55.2 182.6 59.4" class="st15"/>
		<polygon points="170.3 70.6 170.3 66.3 176.6 62.8 176.6 67.1" class="st12"/>
		<polygon points="170.3 70.6 170.3 66.3 163.1 62 163 66.4" class="st13"/>
		<polygon points="163.1 62 170.3 66.3 176.6 62.8 169.3 58.5" class="st14"/>
			<polygon points="170.8 69.8 170.8 69.4 173.2 68 173.2 68.5" class="st0"/>
			<polygon points="170.8 69 170.8 68.6 173.2 67.2 173.2 67.7" class="st0"/>
			<polygon points="165.1 64.2 165.1 66.2 163.7 65.4 163.7 63.4" class="st0"/>
		<polygon points="166.5 64.7 166.5 67.1 163.6 65.4 163.6 63" class="st6"/>
		<polygon points="166 65.3 166 64.9 163.9 63.6 163.9 64.1" class="st0"/>
		<polygon points="174.7 63.8 173.1 64.7 173.1 67 174.7 66.1" class="st0"/>
		<polygon points="174.7 63.8 167.5 59.6 165.9 60.5 173.1 64.7" class="st15"/>
		<polygon points="170.6 55.2 170.6 50.9 176.9 47.4 176.9 51.7" class="st12"/>
		<polygon points="170.6 55.2 170.6 50.9 163.4 46.7 163.3 51" class="st13"/>
		<polygon points="163.4 46.7 170.6 50.9 176.9 47.4 169.6 43.2" class="st14"/>
			<polygon points="171.1 54.4 171.1 54 173.5 52.6 173.5 53.1" class="st0"/>
			<polygon points="171.1 53.6 171.1 53.2 173.5 51.8 173.5 52.3" class="st0"/>
			<polygon points="165.5 48.8 165.4 50.8 164 50 164.1 48" class="st0"/>
		<polygon points="166.8 49.4 166.8 51.7 163.9 50 163.9 47.7" class="st6"/>
		<polygon points="166.3 49.9 166.4 49.5 164.2 48.2 164.2 48.7" class="st0"/>
		<polygon points="175.1 48.4 173.4 49.3 173.4 51.6 175 50.7" class="st0"/>
		<polygon points="175.1 48.4 167.8 44.2 166.2 45.1 173.4 49.3" class="st15"/>
		<polygon points="161.1 60.4 161.1 56.1 167.4 52.6 167.4 56.9" class="st12"/>
		<polygon points="161.1 60.4 161.1 56.1 153.9 51.9 153.9 56.2" class="st13"/>
		<polygon points="153.9 51.9 161.1 56.1 167.4 52.6 160.2 48.4" class="st14"/>
			<polygon points="161.6 59.6 161.6 59.2 164 57.9 164 58.3" class="st0"/>
			<polygon points="161.6 58.8 161.6 58.4 164 57.1 164 57.5" class="st0"/>
			<polygon points="156 54 156 56 154.6 55.2 154.6 53.2" class="st0"/>
		<polygon points="157.3 54.6 157.3 57 154.4 55.3 154.4 52.9" class="st6"/>
		<polygon points="156.9 55.2 156.9 54.7 154.7 53.5 154.7 53.9" class="st0"/>
		<polygon points="165.6 53.6 164 54.5 163.9 56.8 165.6 55.9" class="st0"/>
		<polygon points="165.6 53.6 158.4 49.4 156.7 50.3 164 54.5" class="st15"/>
		<polygon points="179.8 60.6 179.8 56.3 186.1 52.8 186.1 57.1" class="st12"/>
		<polygon points="179.8 60.6 179.8 56.3 172.6 52.1 172.5 56.4" class="st13"/>
		<polygon points="172.6 52.1 179.8 56.3 186.1 52.8 178.8 48.6" class="st14"/>
			<polygon points="180.3 59.8 180.3 59.4 182.7 58 182.7 58.5" class="st0"/>
			<polygon points="180.3 59 180.3 58.6 182.7 57.2 182.7 57.7" class="st0"/>
			<polygon points="174.7 54.2 174.6 56.2 173.2 55.4 173.2 53.4" class="st0"/>
		<polygon points="176 54.8 176 57.1 173.1 55.4 173.1 53.1" class="st6"/>
		<polygon points="175.5 55.3 175.5 54.9 173.4 53.6 173.4 54.1" class="st0"/>
		<polygon points="184.2 53.8 182.6 54.7 182.6 57 184.2 56.1" class="st0"/>
		<polygon points="184.2 53.8 177 49.6 175.4 50.5 182.6 54.7" class="st15"/>
		<polygon points="170.3 65.8 170.3 61.5 176.6 58 176.6 62.3" class="st12"/>
		<polygon points="170.3 65.8 170.3 61.5 163.1 57.3 163.1 61.6" class="st13"/>
		<polygon points="163.1 57.3 170.3 61.5 176.6 58 169.4 53.8" class="st14"/>
			<polygon points="170.8 65 170.8 64.6 173.2 63.3 173.2 63.7" class="st0"/>
			<polygon points="170.8 64.3 170.8 63.8 173.2 62.5 173.2 62.9" class="st0"/>
			<polygon points="165.2 59.4 165.2 61.5 163.8 60.6 163.8 58.6" class="st0"/>
		<polygon points="166.5 60 166.5 62.4 163.6 60.7 163.6 58.3" class="st6"/>
		<polygon points="166.1 60.6 166.1 60.1 163.9 58.9 163.9 59.3" class="st0"/>
		<polygon points="174.8 59 173.2 59.9 173.1 62.2 174.8 61.3" class="st0"/>
		<polygon points="174.8 59 167.5 54.8 165.9 55.7 173.2 59.9" class="st15"/>
		<polygon points="171.8 131.7 172.2 67.6 171.1 67 170.7 131" class="st9"/>
		<polygon points="171.8 131.7 173.1 130.9 173.5 66.9 172.2 67.6" class="st0"/>
		<polygon points="194.5 119.1 194.9 55 193.9 54.4 193.5 118.4" class="st9"/>
		<polygon points="194.5 119.1 195.8 118.4 196.2 54.3 194.9 55" class="st0"/>
		<polygon points="171.1 67 172.2 67.6 173.5 66.9 172.4 66.3" class="st16"/>
		<polygon points="193.9 54.4 194.9 55 196.2 54.3 195.1 53.7" class="st16"/>
	<polygon points="195.4 116.7 194.5 117.6 172.6 100 173 98.8" class="st0"/>
	<polygon points="172.5 128.8 172.7 130 195.2 87.7 194.7 87" class="st0"/>
	<polygon points="195.6 86.5 194.7 87.4 172.7 69.8 173.2 68.6" class="st0"/>
	<polygon points="172.7 98.6 172.9 99.8 195.4 57.5 194.9 56.8" class="st0"/>
		<polygon points="73.4 128 73.8 63.9 72.7 63.3 72.3 127.4" class="st9"/>
		<polygon points="73.4 128 74.7 127.3 75.1 63.2 73.8 63.9" class="st0"/>
		<polygon points="96.1 115.4 96.5 51.3 95.5 50.7 95.1 114.8" class="st9"/>
		<polygon points="96.1 115.4 97.4 114.7 97.8 50.6 96.5 51.3" class="st0"/>
		<polygon points="72.7 63.3 73.8 63.9 75.1 63.2 74 62.6" class="st16"/>
		<polygon points="95.5 50.7 96.5 51.3 97.8 50.6 96.8 50" class="st16"/>
	<polygon points="97 113.1 96.1 113.9 74.2 96.4 74.6 95.1" class="st0"/>
	<polygon points="74.2 125.1 74.4 126.4 96.8 84 96.3 83.3" class="st0"/>
	<polygon points="97.2 82.9 96.3 83.7 74.4 66.2 74.8 64.9" class="st0"/>
	<polygon points="74.3 94.9 74.5 96.2 97 53.9 96.5 53.1" class="st0"/>
	<polygon points="96.5 111 73.8 123.6 122.5 152.2 145.2 139.5" class="st17"/>
	<polygon points="122.5 153.7 122.5 152.1 145.2 139.4 145.2 141.1" class="st18"/>
	<polygon points="73.8 123.6 73.8 125.3 122.5 153.7 122.5 152" class="st19"/>
			<polygon points="137.9 137.3 120.8 146.8 121.4 147.1 138.4 137.6" class="st20"/>
			<polygon points="138.4 137.6 121.4 147.1 121.4 149.5 138.4 140" class="st21"/>
			<polygon points="120.8 149.2 120.8 146.8 121.4 147.1 121.4 149.5" class="st22"/>
			<polygon points="119 126.3 102 135.7 102.5 136.1 119.6 126.6" class="st20"/>
			<polygon points="119.6 126.6 102.5 136.1 102.5 138.5 119.6 129" class="st21"/>
			<polygon points="102 138.2 102 135.7 102.5 136.1 102.5 138.5" class="st22"/>
			<polygon points="128.2 131.5 111.1 141 111.7 141.3 128.7 131.8" class="st20"/>
			<polygon points="128.7 131.8 111.7 141.3 111.7 143.7 128.7 134.2" class="st21"/>
			<polygon points="111.1 143.4 111.1 141 111.7 141.3 111.7 143.7" class="st22"/>
			<polygon points="121.4 146.4 102 135.1 102 135.9 121.4 147.2" class="st22"/>
			<polygon points="123.4 145.3 121.4 146.4 102 135.1 104 134" class="st20"/>
			<polygon points="123.4 145.3 121.4 146.4 121.4 147.8 123.4 146.7" class="st21"/>
			<polygon points="125.2 144.2 105.7 132.9 105.7 133.7 125.2 145" class="st22"/>
			<polygon points="127.2 143.1 125.2 144.2 105.7 132.9 107.8 131.8" class="st20"/>
			<polygon points="127.2 143.1 125.2 144.2 125.2 145.7 127.2 144.5" class="st21"/>
			<polygon points="129.1 142.1 109.6 130.7 109.6 131.5 129.1 142.9" class="st22"/>
			<polygon points="131.1 141 129.1 142.1 109.6 130.7 111.6 129.6" class="st20"/>
			<polygon points="131.1 141 129.1 142.1 129.1 143.5 131.1 142.4" class="st21"/>
			<polygon points="132.9 139.9 113.5 128.6 113.4 129.4 132.9 140.7" class="st22"/>
			<polygon points="134.9 138.8 132.9 139.9 113.5 128.6 115.5 127.5" class="st20"/>
			<polygon points="134.9 138.8 132.9 139.9 132.9 141.4 134.9 140.2" class="st21"/>
			<polygon points="136.4 138 116.9 126.7 116.9 127.5 136.4 138.8" class="st22"/>
			<polygon points="138.4 136.9 136.4 138 116.9 126.7 118.9 125.6" class="st20"/>
			<polygon points="138.4 136.9 136.4 138 136.4 139.5 138.4 138.3" class="st21"/>
		<polygon points="112.7 139.9 112.8 133.9 104 128.8 104 134.8" class="st12"/>
		<polygon points="112.7 139.9 112.8 133.9 125.5 126.9 125.4 132.8" class="st13"/>
		<polygon points="125.5 126.9 112.8 133.9 104 128.8 116.7 121.8" class="st14"/>
			<polygon points="107.3 133.9 109.2 135 109.2 131.9 107.3 130.7" class="st0"/>
			<polygon points="107.3 130.7 120 123.7 121.9 124.8 109.2 131.9" class="st15"/>
			<polygon points="112.1 138.9 112.1 138.4 109.2 136.6 109.1 137.2" class="st0"/>
			<polygon points="112.1 137.9 112.1 137.4 109.2 135.6 109.2 136.2" class="st0"/>
			<polygon points="123.7 131.1 123.7 133.1 125.1 132.4 125.1 130.3" class="st0"/>
			<polygon points="121.7 132.2 121.7 134.2 123.1 133.4 123.2 131.4" class="st0"/>
			<polygon points="119.8 133.3 119.8 135.3 121.2 134.5 121.2 132.5" class="st0"/>
			<polygon points="113.2 134.2 113.1 137.1 116 135.5 116.1 132.6" class="st6"/>
			<polygon points="113.5 134.8 113.5 134.3 115.8 133 115.8 133.5" class="st0"/>
		<polygon points="122.3 145.6 122.4 139.6 113.6 134.5 113.6 140.5" class="st12"/>
		<polygon points="122.3 145.6 122.4 139.6 135.1 132.6 135 138.5" class="st13"/>
		<polygon points="135.1 132.6 122.4 139.6 113.6 134.5 126.3 127.5" class="st14"/>
			<polygon points="116.9 139.6 118.8 140.7 118.8 137.6 116.9 136.4" class="st0"/>
			<polygon points="116.9 136.4 129.6 129.4 131.5 130.5 118.8 137.6" class="st15"/>
			<polygon points="121.7 144.6 121.7 144 118.8 142.3 118.8 142.9" class="st0"/>
			<polygon points="121.7 143.6 121.7 143 118.8 141.3 118.8 141.9" class="st0"/>
			<polygon points="133.3 136.8 133.3 138.8 134.7 138 134.7 136" class="st0"/>
			<polygon points="131.3 137.9 131.3 139.9 132.7 139.1 132.8 137.1" class="st0"/>
			<polygon points="129.4 139 129.4 141 130.8 140.2 130.8 138.2" class="st0"/>
			<polygon points="122.8 139.9 122.8 142.8 125.7 141.2 125.7 138.3" class="st6"/>
			<polygon points="123.1 140.5 123.1 140 125.4 138.7 125.4 139.2" class="st0"/>
		<polygon points="112.8 133.3 112.8 127.4 104.1 122.2 104 128.2" class="st12"/>
		<polygon points="112.8 133.3 112.8 127.4 125.5 120.3 125.5 126.3" class="st13"/>
		<polygon points="125.5 120.3 112.8 127.4 104.1 122.2 116.8 115.2" class="st14"/>
			<polygon points="107.3 127.3 109.2 128.4 109.3 125.3 107.3 124.1" class="st0"/>
			<polygon points="107.3 124.1 120 117.1 122 118.2 109.3 125.3" class="st15"/>
			<polygon points="112.1 132.3 112.1 131.8 109.2 130.1 109.2 130.6" class="st0"/>
			<polygon points="112.1 131.3 112.1 130.8 109.2 129.1 109.2 129.6" class="st0"/>
			<polygon points="123.7 124.5 123.7 126.6 125.1 125.8 125.1 123.8" class="st0"/>
			<polygon points="121.8 125.6 121.8 127.6 123.2 126.8 123.2 124.8" class="st0"/>
			<polygon points="119.8 126.7 119.8 128.7 121.2 127.9 121.2 125.9" class="st0"/>
			<polygon points="113.2 127.6 113.2 130.5 116.1 128.9 116.1 126" class="st6"/>
			<polygon points="113.5 128.2 113.6 127.7 115.8 126.5 115.8 126.9" class="st0"/>
		<polygon points="122.4 139 122.4 133 113.7 127.9 113.6 133.9" class="st12"/>
		<polygon points="122.4 139 122.4 133 135.1 126 135.1 131.9" class="st13"/>
		<polygon points="135.1 126 122.4 133 113.7 127.9 126.4 120.9" class="st14"/>
			<polygon points="116.9 133 118.9 134.1 118.9 131 116.9 129.8" class="st0"/>
			<polygon points="116.9 129.8 129.6 122.8 131.6 123.9 118.9 131" class="st15"/>
			<polygon points="121.7 138 121.7 137.5 118.8 135.7 118.8 136.3" class="st0"/>
			<polygon points="121.7 137 121.7 136.5 118.8 134.7 118.8 135.3" class="st0"/>
			<polygon points="133.3 130.2 133.3 132.2 134.7 131.5 134.7 129.4" class="st0"/>
			<polygon points="131.4 131.3 131.4 133.3 132.8 132.5 132.8 130.5" class="st0"/>
			<polygon points="129.4 132.4 129.4 134.4 130.8 133.6 130.8 131.6" class="st0"/>
			<polygon points="122.8 133.3 122.8 136.2 125.7 134.6 125.7 131.7" class="st6"/>
			<polygon points="123.2 133.9 123.2 133.4 125.5 132.1 125.5 132.6" class="st0"/>
	<polygon points="96.6 86.5 73.9 99.2 122.6 127.7 145.4 115.1" class="st17"/>
	<polygon points="122.6 129.3 122.6 127.6 145.4 115 145.3 116.6" class="st18"/>
	<polygon points="73.9 99.2 73.9 100.8 122.6 129.2 122.6 127.6" class="st19"/>
			<polygon points="138 112.9 121 122.4 121.5 122.7 138.6 113.2" class="st20"/>
			<polygon points="138.6 113.2 121.5 122.7 121.5 125.1 138.6 115.6" class="st21"/>
			<polygon points="121 124.8 121 122.4 121.5 122.7 121.5 125.1" class="st22"/>
			<polygon points="119.2 101.9 102.1 111.4 102.7 111.7 119.7 102.2" class="st20"/>
			<polygon points="119.7 102.2 102.7 111.7 102.7 114.1 119.7 104.6" class="st21"/>
			<polygon points="102.1 113.8 102.1 111.4 102.7 111.7 102.7 114.1" class="st22"/>
			<polygon points="128.3 107.2 111.3 116.6 111.8 116.9 128.9 107.5" class="st20"/>
			<polygon points="128.9 107.5 111.8 116.9 111.8 119.3 128.9 109.8" class="st21"/>
			<polygon points="111.3 119 111.3 116.6 111.8 116.9 111.8 119.3" class="st22"/>
			<polygon points="121.5 122 102.1 110.7 102.1 111.5 121.5 122.8" class="st22"/>
			<polygon points="123.6 120.9 121.5 122 102.1 110.7 104.2 109.6" class="st20"/>
			<polygon points="123.6 120.9 121.5 122 121.5 123.4 123.6 122.3" class="st21"/>
			<polygon points="125.3 119.8 105.9 108.5 105.9 109.3 125.3 120.6" class="st22"/>
			<polygon points="127.4 118.7 125.3 119.8 105.9 108.5 107.9 107.4" class="st20"/>
			<polygon points="127.4 118.7 125.3 119.8 125.3 121.3 127.4 120.1" class="st21"/>
			<polygon points="129.2 117.7 109.8 106.4 109.7 107.1 129.2 118.5" class="st22"/>
			<polygon points="131.3 116.6 129.2 117.7 109.8 106.4 111.8 105.3" class="st20"/>
			<polygon points="131.3 116.6 129.2 117.7 129.2 119.2 131.3 118" class="st21"/>
			<polygon points="133 115.6 113.6 104.3 113.6 105 133 116.3" class="st22"/>
			<polygon points="135.1 114.5 133 115.6 113.6 104.3 115.6 103.2" class="st20"/>
			<polygon points="135.1 114.5 133 115.6 133 117 135.1 115.8" class="st21"/>
			<polygon points="136.5 113.7 117.1 102.3 117.1 103.1 136.5 114.4" class="st22"/>
			<polygon points="138.6 112.6 136.5 113.7 117.1 102.3 119.1 101.2" class="st20"/>
			<polygon points="138.6 112.6 136.5 113.7 136.5 115.1 138.6 114" class="st21"/>
		<polygon points="120.3 111.1 120.3 100.6 128.8 95.9 128.7 106.3" class="st12"/>
		<polygon points="120.3 111.1 120.3 100.6 111.9 95.7 111.8 106.1" class="st13"/>
		<polygon points="111.9 95.7 120.3 100.6 128.8 95.9 120.4 91" class="st14"/>
			<polygon points="125.6 100.7 123.7 101.8 123.8 98.7 125.7 97.7" class="st0"/>
			<polygon points="125.7 97.7 117.2 92.7 115.3 93.8 123.8 98.7" class="st15"/>
			<polygon points="121.4 109.6 121.4 109.1 124.2 107.5 124.2 108" class="st0"/>
			<polygon points="121.4 108.6 121.4 108.1 124.2 106.5 124.2 107.1" class="st0"/>
			<polygon points="126.8 104.8 126.8 106.7 128.2 105.9 128.2 104" class="st0"/>
			<polygon points="113.7 104.4 113.7 106.4 112.3 105.6 112.3 103.7" class="st0"/>
			<polygon points="115.5 105.5 115.5 107.5 114.2 106.7 114.2 104.7" class="st0"/>
			<polygon points="115.2 98.8 115.1 101.6 112.4 100 112.4 97.2" class="st6"/>
			<polygon points="114.8 99.4 114.8 98.9 112.6 97.6 112.6 98.1" class="st0"/>
		<polygon points="129.5 116.4 129.5 106 138 101.2 138 111.7" class="st12"/>
		<polygon points="129.5 116.4 129.5 106 121.1 101 121 111.5" class="st13"/>
		<polygon points="121.1 101 129.5 106 138 101.2 129.6 96.3" class="st14"/>
			<polygon points="134.9 106 133 107.1 133 104 134.9 103" class="st0"/>
			<polygon points="134.9 103 126.5 98.1 124.6 99.1 133 104" class="st15"/>
			<polygon points="130.6 114.9 130.6 114.4 133.5 112.8 133.5 113.3" class="st0"/>
			<polygon points="130.6 114 130.6 113.4 133.5 111.8 133.5 112.4" class="st0"/>
			<polygon points="136 110.1 136 112 137.4 111.2 137.4 109.4" class="st0"/>
			<polygon points="122.9 109.8 122.9 111.7 121.5 110.9 121.6 109" class="st0"/>
			<polygon points="124.8 110.8 124.7 112.8 123.4 112 123.4 110.1" class="st0"/>
			<polygon points="124.4 104.1 124.4 106.9 121.6 105.3 121.6 102.5" class="st6"/>
			<polygon points="124 104.7 124 104.2 121.8 102.9 121.8 103.4" class="st0"/>
		<polygon points="111.5 116.2 111.6 105.7 120.1 101 120 111.4" class="st12"/>
		<polygon points="111.5 116.2 111.6 105.7 103.1 100.8 103.1 111.2" class="st13"/>
		<polygon points="103.1 100.8 111.6 105.7 120.1 101 111.6 96.1" class="st14"/>
			<polygon points="116.9 105.8 115 106.8 115 103.8 116.9 102.7" class="st0"/>
			<polygon points="116.9 102.7 108.5 97.8 106.6 98.9 115 103.8" class="st15"/>
			<polygon points="112.6 114.7 112.6 114.1 115.5 112.6 115.5 113.1" class="st0"/>
			<polygon points="112.6 113.7 112.6 113.2 115.5 111.6 115.5 112.1" class="st0"/>
			<polygon points="118.1 109.9 118 111.7 119.4 111 119.4 109.1" class="st0"/>
			<polygon points="104.9 109.5 104.9 111.5 103.6 110.7 103.6 108.7" class="st0"/>
			<polygon points="106.8 110.6 106.8 112.5 105.4 111.8 105.4 109.8" class="st0"/>
			<polygon points="106.4 103.9 106.4 106.7 103.6 105 103.6 102.2" class="st6"/>
			<polygon points="106.1 104.4 106.1 104 103.9 102.7 103.9 103.2" class="st0"/>
		<polygon points="120.7 121.5 120.8 111 129.3 106.3 129.2 116.7" class="st12"/>
		<polygon points="120.7 121.5 120.8 111 112.4 106.1 112.3 116.6" class="st13"/>
		<polygon points="112.4 106.1 120.8 111 129.3 106.3 120.9 101.4" class="st14"/>
			<polygon points="126.1 111.1 124.2 112.2 124.2 109.1 126.1 108.1" class="st0"/>
			<polygon points="126.1 108.1 117.7 103.1 115.8 104.2 124.2 109.1" class="st15"/>
			<polygon points="121.9 120 121.9 119.5 124.7 117.9 124.7 118.4" class="st0"/>
			<polygon points="121.9 119 121.9 118.5 124.7 116.9 124.7 117.5" class="st0"/>
			<polygon points="127.3 115.2 127.3 117.1 128.6 116.3 128.6 114.4" class="st0"/>
			<polygon points="114.2 114.8 114.1 116.8 112.8 116 112.8 114.1" class="st0"/>
			<polygon points="116 115.9 116 117.9 114.6 117.1 114.7 115.1" class="st0"/>
			<polygon points="115.6 109.2 115.6 112 112.8 110.4 112.8 107.6" class="st6"/>
			<polygon points="115.3 109.8 115.3 109.3 113.1 108 113.1 108.5" class="st0"/>
	<polygon points="96.8 62.7 74.1 75.3 122.8 103.9 145.5 91.3" class="st17"/>
	<polygon points="122.8 105.4 122.8 103.8 145.5 91.2 145.5 92.8" class="st18"/>
	<polygon points="74.1 75.3 74.1 77 122.8 105.4 122.8 103.7" class="st19"/>
			<polygon points="115 74.7 98 84.2 98.5 84.5 115.5 75.1" class="st20"/>
			<polygon points="115.5 75.1 98.5 84.5 98.5 86.9 115.5 77.4" class="st21"/>
			<polygon points="97.9 86.6 98 84.2 98.5 84.5 98.5 86.9" class="st22"/>
			<polygon points="96.1 63.7 79.1 73.2 79.6 73.5 96.7 64" class="st20"/>
			<polygon points="96.7 64 79.6 73.5 79.6 75.9 96.7 66.4" class="st21"/>
			<polygon points="79.1 75.6 79.1 73.2 79.6 73.5 79.6 75.9" class="st22"/>
			<polygon points="105.3 69 88.3 78.4 88.8 78.7 105.8 69.3" class="st20"/>
			<polygon points="105.8 69.3 88.8 78.7 88.8 81.1 105.8 71.7" class="st21"/>
			<polygon points="88.2 80.8 88.3 78.4 88.8 78.7 88.8 81.1" class="st22"/>
			<polygon points="98.5 83.8 79.1 72.5 79.1 73.3 98.5 84.6" class="st22"/>
			<polygon points="100.5 82.7 98.5 83.8 79.1 72.5 81.1 71.4" class="st20"/>
			<polygon points="100.5 82.7 98.5 83.8 98.5 85.2 100.5 84.1" class="st21"/>
			<polygon points="102.3 81.6 82.9 70.3 82.9 71.1 102.3 82.4" class="st22"/>
			<polygon points="104.3 80.5 102.3 81.6 82.9 70.3 84.9 69.2" class="st20"/>
			<polygon points="104.3 80.5 102.3 81.6 102.3 83.1 104.3 81.9" class="st21"/>
			<polygon points="106.2 79.5 86.7 68.2 86.7 68.9 106.2 80.3" class="st22"/>
			<polygon points="108.2 78.4 106.2 79.5 86.7 68.2 88.7 67.1" class="st20"/>
			<polygon points="108.2 78.4 106.2 79.5 106.2 81 108.2 79.8" class="st21"/>
			<polygon points="110 77.4 90.6 66.1 90.6 66.8 110 78.1" class="st22"/>
			<polygon points="112 76.3 110 77.4 90.6 66.1 92.6 65" class="st20"/>
			<polygon points="112 76.3 110 77.4 110 78.8 112 77.6" class="st21"/>
			<polygon points="113.5 75.5 94 64.1 94 64.9 113.5 76.2" class="st22"/>
			<polygon points="115.5 74.4 113.5 75.5 94 64.1 96.1 63" class="st20"/>
			<polygon points="115.5 74.4 113.5 75.5 113.5 76.9 115.5 75.8" class="st21"/>
		<polygon points="97.2 72.9 97.3 62.4 105.8 57.7 105.7 68.1" class="st12"/>
		<polygon points="97.2 72.9 97.3 62.4 88.8 57.5 88.8 68" class="st13"/>
		<polygon points="88.8 57.5 97.3 62.4 105.8 57.7 97.3 52.8" class="st14"/>
			<polygon points="102.6 62.5 100.7 63.6 100.7 60.5 102.6 59.5" class="st0"/>
			<polygon points="102.6 59.5 94.2 54.5 92.3 55.6 100.7 60.5" class="st15"/>
			<polygon points="98.3 71.4 98.3 70.9 101.2 69.3 101.2 69.8" class="st0"/>
			<polygon points="98.3 70.4 98.4 69.9 101.2 68.3 101.2 68.9" class="st0"/>
			<polygon points="103.8 66.6 103.8 68.5 105.1 67.7 105.1 65.8" class="st0"/>
			<polygon points="90.6 66.2 90.6 68.2 89.3 67.4 89.3 65.5" class="st0"/>
			<polygon points="92.5 67.3 92.5 69.3 91.1 68.5 91.1 66.5" class="st0"/>
			<polygon points="92.1 60.6 92.1 63.4 89.3 61.8 89.3 59" class="st6"/>
			<polygon points="91.8 61.2 91.8 60.7 89.6 59.4 89.6 59.9" class="st0"/>
		<polygon points="106.4 78.2 106.5 67.8 115 63 114.9 73.5" class="st12"/>
		<polygon points="106.4 78.2 106.5 67.8 98.1 62.8 98 73.3" class="st13"/>
		<polygon points="98.1 62.8 106.5 67.8 115 63 106.6 58.1" class="st14"/>
			<polygon points="111.8 67.8 109.9 68.9 109.9 65.8 111.8 64.8" class="st0"/>
			<polygon points="111.8 64.8 103.4 59.9 101.5 60.9 109.9 65.8" class="st15"/>
			<polygon points="107.6 76.7 107.6 76.2 110.4 74.6 110.4 75.1" class="st0"/>
			<polygon points="107.6 75.8 107.6 75.2 110.4 73.6 110.4 74.2" class="st0"/>
			<polygon points="113 71.9 113 73.8 114.3 73 114.4 71.2" class="st0"/>
			<polygon points="99.9 71.6 99.9 73.5 98.5 72.7 98.5 70.8" class="st0"/>
			<polygon points="101.7 72.7 101.7 74.6 100.4 73.8 100.4 71.9" class="st0"/>
			<polygon points="101.3 65.9 101.3 68.7 98.5 67.1 98.6 64.3" class="st6"/>
			<polygon points="101 66.5 101 66 98.8 64.8 98.8 65.2" class="st0"/>
		<polygon points="88.5 78 88.5 67.5 97 62.8 97 73.2" class="st12"/>
		<polygon points="88.5 78 88.5 67.5 80.1 62.6 80 73" class="st13"/>
		<polygon points="80.1 62.6 88.5 67.5 97 62.8 88.6 57.9" class="st14"/>
			<polygon points="93.8 67.6 91.9 68.6 92 65.6 93.9 64.5" class="st0"/>
			<polygon points="93.9 64.5 85.4 59.6 83.5 60.7 92 65.6" class="st15"/>
			<polygon points="89.6 76.5 89.6 75.9 92.4 74.4 92.4 74.9" class="st0"/>
			<polygon points="89.6 75.5 89.6 75 92.5 73.4 92.4 73.9" class="st0"/>
			<polygon points="95 71.7 95 73.5 96.4 72.8 96.4 70.9" class="st0"/>
			<polygon points="81.9 71.3 81.9 73.3 80.5 72.5 80.5 70.5" class="st0"/>
			<polygon points="83.7 72.4 83.7 74.4 82.4 73.6 82.4 71.6" class="st0"/>
			<polygon points="83.4 65.7 83.3 68.5 80.6 66.8 80.6 64" class="st6"/>
			<polygon points="83 66.2 83 65.8 80.8 64.5 80.8 65" class="st0"/>
		<polygon points="97.7 83.3 97.7 72.8 106.2 68.1 106.2 78.5" class="st12"/>
		<polygon points="97.7 83.3 97.7 72.8 89.3 67.9 89.2 78.4" class="st13"/>
		<polygon points="89.3 67.9 97.7 72.8 106.2 68.1 97.8 63.2" class="st14"/>
			<polygon points="103.1 72.9 101.2 74 101.2 70.9 103.1 69.9" class="st0"/>
			<polygon points="103.1 69.9 94.7 64.9 92.8 66 101.2 70.9" class="st15"/>
			<polygon points="98.8 81.8 98.8 81.3 101.7 79.7 101.7 80.2" class="st0"/>
			<polygon points="98.8 80.8 98.8 80.3 101.7 78.7 101.7 79.3" class="st0"/>
			<polygon points="104.2 77 104.2 78.9 105.6 78.1 105.6 76.2" class="st0"/>
			<polygon points="91.1 76.7 91.1 78.6 89.8 77.8 89.8 75.9" class="st0"/>
			<polygon points="93 77.7 93 79.7 91.6 78.9 91.6 76.9" class="st0"/>
			<polygon points="92.6 71 92.6 73.8 89.8 72.2 89.8 69.4" class="st6"/>
			<polygon points="92.2 71.6 92.2 71.1 90.1 69.8 90.1 70.3" class="st0"/>
			<polygon points="138.2 88.2 121.2 97.6 121.7 98 138.7 88.5" class="st20"/>
			<polygon points="138.7 88.5 121.7 98 121.7 100.4 138.7 90.9" class="st21"/>
			<polygon points="121.1 100.1 121.2 97.6 121.7 98 121.7 100.4" class="st22"/>
			<polygon points="119.3 77.2 102.3 86.6 102.8 86.9 119.9 77.5" class="st20"/>
			<polygon points="119.9 77.5 102.8 86.9 102.8 89.3 119.9 79.9" class="st21"/>
			<polygon points="102.3 89 102.3 86.6 102.8 86.9 102.8 89.3" class="st22"/>
			<polygon points="128.5 82.4 111.5 91.9 112 92.2 129 82.7" class="st20"/>
			<polygon points="129 82.7 112 92.2 112 94.6 129 85.1" class="st21"/>
			<polygon points="111.4 94.3 111.5 91.9 112 92.2 112 94.6" class="st22"/>
			<polygon points="121.7 97.2 102.3 86 102.3 86.7 121.7 98" class="st22"/>
			<polygon points="123.7 96.1 121.7 97.2 102.3 86 104.3 84.9" class="st20"/>
			<polygon points="123.7 96.1 121.7 97.2 121.7 98.7 123.7 97.5" class="st21"/>
			<polygon points="125.5 95.1 106.1 83.8 106.1 84.5 125.5 95.9" class="st22"/>
			<polygon points="127.5 94 125.5 95.1 106.1 83.8 108.1 82.7" class="st20"/>
			<polygon points="127.5 94 125.5 95.1 125.5 96.5 127.5 95.4" class="st21"/>
			<polygon points="129.4 93 109.9 81.6 109.9 82.4 129.4 93.7" class="st22"/>
			<polygon points="131.4 91.9 129.4 93 109.9 81.6 111.9 80.5" class="st20"/>
			<polygon points="131.4 91.9 129.4 93 129.4 94.4 131.4 93.3" class="st21"/>
			<polygon points="133.2 90.8 113.8 79.5 113.8 80.3 133.2 91.6" class="st22"/>
			<polygon points="135.2 89.7 133.2 90.8 113.8 79.5 115.8 78.4" class="st20"/>
			<polygon points="135.2 89.7 133.2 90.8 133.2 92.2 135.2 91.1" class="st21"/>
			<polygon points="136.7 88.9 117.2 77.6 117.2 78.3 136.7 89.7" class="st22"/>
			<polygon points="138.7 87.8 136.7 88.9 117.2 77.6 119.3 76.5" class="st20"/>
			<polygon points="138.7 87.8 136.7 88.9 136.7 90.3 138.7 89.2" class="st21"/>
		<polygon points="121.5 85.1 121.5 80.8 127.8 77.3 127.8 81.7" class="st12"/>
		<polygon points="121.5 85.1 121.5 80.8 114.3 76.6 114.3 80.9" class="st13"/>
		<polygon points="114.3 76.6 121.5 80.8 127.8 77.3 120.6 73.1" class="st14"/>
			<polygon points="122 84.4 122 83.9 124.4 82.6 124.4 83" class="st0"/>
			<polygon points="122 83.6 122 83.1 124.4 81.8 124.4 82.2" class="st0"/>
			<polygon points="116.4 78.7 116.4 80.8 115 79.9 115 77.9" class="st0"/>
		<polygon points="117.7 79.3 117.7 81.7 114.8 80 114.8 77.6" class="st6"/>
		<polygon points="117.3 79.9 117.3 79.4 115.1 78.2 115.1 78.6" class="st0"/>
		<polygon points="126 78.3 124.4 79.2 124.3 81.5 126 80.6" class="st0"/>
		<polygon points="126 78.3 118.7 74.1 117.1 75 124.4 79.2" class="st15"/>
		<polygon points="112 90.4 112 86.1 118.3 82.6 118.3 86.9" class="st12"/>
		<polygon points="112 90.4 112 86.1 104.8 81.8 104.8 86.2" class="st13"/>
		<polygon points="104.8 81.8 112 86.1 118.3 82.6 111.1 78.3" class="st14"/>
			<polygon points="112.5 89.6 112.6 89.1 114.9 87.8 114.9 88.3" class="st0"/>
			<polygon points="112.6 88.8 112.6 88.3 114.9 87 114.9 87.5" class="st0"/>
			<polygon points="106.9 84 106.9 86 105.5 85.2 105.5 83.2" class="st0"/>
		<polygon points="108.2 84.5 108.2 86.9 105.3 85.2 105.3 82.8" class="st6"/>
		<polygon points="107.8 85.1 107.8 84.7 105.6 83.4 105.6 83.8" class="st0"/>
		<polygon points="116.5 83.6 114.9 84.5 114.9 86.7 116.5 85.8" class="st0"/>
		<polygon points="116.5 83.6 109.3 79.4 107.6 80.3 114.9 84.5" class="st15"/>
		<polygon points="130.7 90.5 130.7 86.2 137 82.7 137 87.1" class="st12"/>
		<polygon points="130.7 90.5 130.7 86.2 123.5 82 123.5 86.3" class="st13"/>
		<polygon points="123.5 82 130.7 86.2 137 82.7 129.8 78.5" class="st14"/>
			<polygon points="131.2 89.8 131.2 89.3 133.6 88 133.6 88.4" class="st0"/>
			<polygon points="131.2 89 131.2 88.5 133.6 87.2 133.6 87.6" class="st0"/>
			<polygon points="125.6 84.1 125.6 86.2 124.2 85.3 124.2 83.3" class="st0"/>
		<polygon points="126.9 84.7 126.9 87.1 124 85.4 124 83" class="st6"/>
		<polygon points="126.5 85.3 126.5 84.8 124.3 83.6 124.3 84" class="st0"/>
		<polygon points="135.2 83.7 133.5 84.6 133.5 86.9 135.2 86" class="st0"/>
		<polygon points="135.2 83.7 127.9 79.5 126.3 80.4 133.5 84.6" class="st15"/>
		<polygon points="121.2 95.8 121.2 91.5 127.5 88 127.5 92.3" class="st12"/>
		<polygon points="121.2 95.8 121.2 91.5 114 87.2 114 91.6" class="st13"/>
		<polygon points="114 87.2 121.2 91.5 127.5 88 120.3 83.7" class="st14"/>
			<polygon points="121.7 95 121.7 94.5 124.1 93.2 124.1 93.7" class="st0"/>
			<polygon points="121.7 94.2 121.8 93.7 124.1 92.4 124.1 92.9" class="st0"/>
			<polygon points="116.1 89.4 116.1 91.4 114.7 90.6 114.7 88.6" class="st0"/>
		<polygon points="117.4 89.9 117.4 92.3 114.5 90.6 114.5 88.2" class="st6"/>
		<polygon points="117 90.5 117 90.1 114.8 88.8 114.8 89.2" class="st0"/>
		<polygon points="125.7 89 124.1 89.9 124.1 92.2 125.7 91.2" class="st0"/>
		<polygon points="125.7 89 118.5 84.8 116.8 85.7 124.1 89.9" class="st15"/>
		<polygon points="121.5 80.4 121.5 76.1 127.8 72.6 127.8 76.9" class="st12"/>
		<polygon points="121.5 80.4 121.5 76.1 114.3 71.8 114.3 76.2" class="st13"/>
		<polygon points="114.3 71.8 121.5 76.1 127.8 72.6 120.6 68.4" class="st14"/>
			<polygon points="122.1 79.6 122.1 79.2 124.4 77.8 124.4 78.3" class="st0"/>
			<polygon points="122.1 78.8 122.1 78.4 124.4 77 124.4 77.5" class="st0"/>
			<polygon points="116.4 74 116.4 76 115 75.2 115 73.2" class="st0"/>
		<polygon points="117.7 74.5 117.7 76.9 114.8 75.2 114.8 72.9" class="st6"/>
		<polygon points="117.3 75.1 117.3 74.7 115.1 73.4 115.1 73.9" class="st0"/>
		<polygon points="126 73.6 124.4 74.5 124.4 76.8 126 75.9" class="st0"/>
		<polygon points="126 73.6 118.8 69.4 117.1 70.3 124.4 74.5" class="st15"/>
		<polygon points="112.1 85.6 112.1 81.3 118.4 77.8 118.3 82.1" class="st12"/>
		<polygon points="112.1 85.6 112.1 81.3 104.8 77.1 104.8 81.4" class="st13"/>
		<polygon points="104.8 77.1 112.1 81.3 118.4 77.8 111.1 73.6" class="st14"/>
			<polygon points="112.6 84.8 112.6 84.4 115 83.1 114.9 83.5" class="st0"/>
			<polygon points="112.6 84 112.6 83.6 115 82.3 115 82.7" class="st0"/>
			<polygon points="106.9 79.2 106.9 81.2 105.5 80.4 105.5 78.4" class="st0"/>
		<polygon points="108.3 79.8 108.3 82.2 105.3 80.5 105.4 78.1" class="st6"/>
		<polygon points="107.8 80.4 107.8 79.9 105.7 78.7 105.7 79.1" class="st0"/>
		<polygon points="116.5 78.8 114.9 79.7 114.9 82 116.5 81.1" class="st0"/>
		<polygon points="116.5 78.8 109.3 74.6 107.7 75.5 114.9 79.7" class="st15"/>
		<polygon points="130.7 85.8 130.7 81.5 137 78 137 82.3" class="st12"/>
		<polygon points="130.7 85.8 130.7 81.5 123.5 77.2 123.5 81.6" class="st13"/>
		<polygon points="123.5 77.2 130.7 81.5 137 78 129.8 73.8" class="st14"/>
			<polygon points="131.2 85 131.2 84.6 133.6 83.2 133.6 83.7" class="st0"/>
			<polygon points="131.3 84.2 131.3 83.8 133.6 82.4 133.6 82.9" class="st0"/>
			<polygon points="125.6 79.4 125.6 81.4 124.2 80.6 124.2 78.6" class="st0"/>
		<polygon points="126.9 79.9 126.9 82.3 124 80.6 124 78.3" class="st6"/>
		<polygon points="126.5 80.5 126.5 80.1 124.3 78.8 124.3 79.3" class="st0"/>
		<polygon points="135.2 79 133.6 79.9 133.6 82.2 135.2 81.3" class="st0"/>
		<polygon points="135.2 79 128 74.8 126.3 75.7 133.6 79.9" class="st15"/>
		<polygon points="121.2 91 121.3 86.7 127.6 83.2 127.5 87.5" class="st12"/>
		<polygon points="121.2 91 121.3 86.7 114 82.5 114 86.8" class="st13"/>
		<polygon points="114 82.5 121.3 86.7 127.6 83.2 120.3 79" class="st14"/>
			<polygon points="121.8 90.2 121.8 89.8 124.1 88.5 124.1 88.9" class="st0"/>
			<polygon points="121.8 89.4 121.8 89 124.1 87.7 124.1 88.1" class="st0"/>
			<polygon points="116.1 84.6 116.1 86.6 114.7 85.8 114.7 83.8" class="st0"/>
		<polygon points="117.5 85.2 117.4 87.6 114.5 85.9 114.5 83.5" class="st6"/>
		<polygon points="117 85.8 117 85.3 114.9 84.1 114.9 84.5" class="st0"/>
		<polygon points="125.7 84.2 124.1 85.1 124.1 87.4 125.7 86.5" class="st0"/>
		<polygon points="125.7 84.2 118.5 80 116.9 80.9 124.1 85.1" class="st15"/>
		<polygon points="122.7 156.8 123.1 92.8 122.1 92.2 121.7 156.2" class="st9"/>
		<polygon points="122.7 156.8 124 156.1 124.4 92.1 123.1 92.8" class="st0"/>
		<polygon points="145.5 144.3 145.9 80.2 144.8 79.6 144.4 143.6" class="st9"/>
		<polygon points="145.5 144.3 146.8 143.5 147.2 79.5 145.9 80.2" class="st0"/>
		<polygon points="122.1 92.2 123.1 92.8 124.4 92.1 123.4 91.5" class="st16"/>
		<polygon points="144.8 79.6 145.9 80.2 147.2 79.5 146.1 78.9" class="st16"/>
	<polygon points="146.3 141.9 145.5 142.8 123.5 125.2 123.9 123.9" class="st0"/>
	<polygon points="123.5 154 123.7 155.2 146.2 112.9 145.7 112.2" class="st0"/>
	<polygon points="146.5 111.7 145.7 112.6 123.7 95 124.1 93.8" class="st0"/>
	<polygon points="123.7 123.8 123.9 125 146.4 82.7 145.9 82" class="st0"/>
</svg>
