<?xml version="1.0" encoding="UTF-8" standalone="no"?>
<!-- Generator: Adobe Illustrator 22.0.0, SVG Export Plug-In . SVG Version: 6.00 Build 0)  -->
<svg id="レイヤー_1" style="enable-background:new 0 0 850.4 464.9" xmlns="http://www.w3.org/2000/svg" xml:space="preserve" viewBox="0 0 850.4 464.9" version="1.1" y="0px" x="0px" xmlns:xlink="http://www.w3.org/1999/xlink">
<style type="text/css">
	.st0{fill:none;stroke:#62BBE0;stroke-width:2;stroke-miterlimit:10;}
	.st1{fill:none;stroke:#62BBE0;stroke-width:2;stroke-miterlimit:10;stroke-dasharray:7.6851,7.6851;}
	.st2{fill:#FFFFFF;}
	.st3{fill:none;stroke:#62BBE0;stroke-width:2;stroke-miterlimit:10;stroke-dasharray:7.2972,7.2972;}
	.st4{fill:none;stroke:#62BBE0;stroke-width:2;stroke-miterlimit:10;stroke-dasharray:7.5834,7.5834;}
	.st5{fill:none;stroke:#62BBE0;stroke-width:2;stroke-miterlimit:10;stroke-dasharray:9.1676,9.1676;}
	.st6{fill:#F4A994;}
	.st7{fill:#4E4D4D;}
	.st8{fill:#126684;}
	.st9{fill:#D02334;}
	.st10{fill:#E8373E;}
	.st11{fill:#2184A0;}
	.st12{fill:#F7C1B0;}
	.st13{fill:#D5A363;}
	.st14{fill:#E2B277;}
	.st15{fill:#FCDFBF;}
	.st16{fill:#6E6E6D;}
	.st17{fill:#0A5073;}
	.st18{fill:#F18C1B;}
	.st19{fill:#DB740E;}
	.st20{fill:none;stroke:#62BBE0;stroke-width:2;stroke-miterlimit:10;stroke-dasharray:7.6613,7.6613;}
	.st21{fill:none;stroke:#62BBE0;stroke-width:2;stroke-miterlimit:10;stroke-dasharray:6.2738,6.2738;}
	.st22{fill:none;stroke:#62BBE0;stroke-width:2;stroke-miterlimit:10;stroke-dasharray:6.7034,6.7034;}
	.st23{fill:#62BBE0;}
</style>
		<line y1="391.3" x2="297" x1="293.6" y2="389.5" class="st0"/>
		<line y1="386" x2="722.5" x1="303.8" y2="166.7" class="st1"/>
		<line y1="164.9" x2="729.2" x1="725.9" y2="163.1" class="st0"/>
<rect y="125.5" x="505.2" height="7.1" class="st2" width="7.1"/>
		<line y1="138.5" x2="716.1" x1="719.5" y2="136.7" class="st0"/>
		<line y1="133.5" x2="569.5" x1="709.6" y2="63" class="st3"/>
		<line y1="61.3" x2="562.8" x1="566.2" y2="59.6" class="st0"/>
		<line y1="297.1" x2="412.1" x1="415.5" y2="295.4" class="st0"/>
		<line y1="292" x2="259.7" x1="405.4" y2="218.7" class="st4"/>
		<line y1="217" x2="252.9" x1="256.3" y2="215.3" class="st0"/>
		<line y1="157" x2="368.2" x1="371.6" y2="155.3" class="st0"/>
		<line y1="151.1" x2="347.7" x1="360" y2="144.9" class="st5"/>
		<line y1="142.9" x2="340.2" x1="343.6" y2="141.2" class="st0"/>
	<path class="st6" d="m487.2 59.7c-1-0.2-2.1-0.3-2.1-0.3s0.1-0.2 0.3-0.9c0.2-0.7 0-1.3-0.3-0.7s-0.7 1.5-2.3 2.2c-1.6 0.7-6.2-2-6.2-2l-0.3 0.4c-0.4 3.4 2.2 3.1 2.2 3.1s2.4 0.6 4 0.6c1.8-0.1 3.3-0.2 4.3-0.5 2.3-0.4 1.4-1.6 0.4-1.9z"/>
		<path class="st7" d="m499.8 91s-0.8 0.8-1.8 1.9c-1 0.9-1.3 1.2-2.2 2.1-0.5 0.5-0.1 1 0.9 0.9 0.9 0 2.9-0.5 4-0.9 0.8-0.3 2.2-1.1 3-1.5 0.7-0.5 0.9-1.1 0.9-1.1v-1.6l-4.8 0.2z"/>
		<path class="st7" d="m514.1 89.6s-0.5 0.7-1.5 1.7c-1 0.9-1.2 1.3-2.1 2.4-0.2 0.3-0.3 1 0.7 0.9 0.9 0 2.2-0.4 3.3-0.8 1.3-0.5 2.3-1.7 3.1-2.2 0.7-0.5 1.1-1.5 1.1-1.5l-0.5-1.5-4.1 1z"/>
		<path class="st8" d="m513.7 64.2c0.4-5.7-2.8-8.8-2.8-8.8 0.3-1.9-8.7 0.8-8.7 0.8s-1.9 10.4-2.7 15.9c-1 6.2-0.5 18.9-0.5 18.9s0.1 1.4 2.4 1.3c1.8 0 3.1-1.6 3.1-1.6l0.2-14.4 2.1-10.2s2 8.3 2.6 11.3c0.7 3.2 3.2 12.6 3.2 12.6s1.7 1.9 3.7 0.9c2.1-1 1.7-2.2 1.7-2.2s-0.4-6.7-3-12.7c-0.2-4.5-1.5-9.2-1.3-11.8z"/>
		<path class="st9" d="m503.4 41.1s-1.3-0.1-2.6 2.4-2.6 5.1-2.6 5.1 1.9 0.3 4 2.2c2.9-2.5 3.3-8.5 1.2-9.7z"/>
		<path class="st10" d="m503.4 41.1s-0.7 1.4-1.4 3.9-0.4 14.4-0.4 14.4 2.7 1.9 7.3 1.6c2.7-0.2 4.1-1.9 4.1-1.9s1.6-11.6 1.4-13.2c-0.2-1.7-3.7-5.6-3.7-5.6s-4.6-0.3-7.3 0.8z"/>
		<path class="st6" d="m506.5 39.5l-0.5 3.1s1.6 1.8 3.1 0.4c1.5-1.3 1.8-1.9 1.8-1.9l-0.8-4.2-3.6 2.6z"/>
			<path class="st8" d="m507.2 48.3s2-3 3.6-3.8 2.4-1 2.4-1-0.6-1.2-1-1.3c-0.7 0.1-1.1 0.3-2.5 1s-3 2.5-3.6 3.6c-1.2 2.2 0.2 2.8 1.1 1.5z"/>
			<path class="st8" d="m504 40.8s-1.3 3.1-1.5 4.6 0.1 2 0.7 2c0.6 0.1 0.6-1 0.8-2.2 0.2-1.1 1.3-4.8 1.3-4.8l-1.3 0.4z"/>
			<path class="st8" d="m513.2 57.4s-1.5 1.2-2.9 1c-1.3-0.1-3.1-1.4-3-5.4s0.5-5.8 0.5-5.8l-4.8-2.2s-1.3 3-1.6 9l-0.4 8s5.2 0.3 8.2 0 4.3-0.7 4.3-0.7l-0.3-3.9z"/>
			<path class="st2" d="m503.5 46.1c0 0.2-0.1 0.4-0.3 0.4s-0.3-0.2-0.3-0.4 0.1-0.4 0.3-0.4 0.3 0.2 0.3 0.4z"/>
			<path class="st2" d="m506.4 47.5c-0.1 0.2-0.1 0.4 0 0.5s0.4 0 0.5-0.2 0.1-0.4 0-0.5-0.4 0-0.5 0.2z"/>
			<path class="st11" d="m502.5 48.1c-0.2 1-0.1 4.1 1.7 4.6 1.6 0.4 2-1.5 2.4-3-2.1-0.4-4.1-1.6-4.1-1.6z"/>
		<path class="st12" d="m508.7 32.2c-1.3-1-4.5-1.3-5.6 1.9-1.2 3.4 1.9 7.6 3.5 6.9 0.9-0.4 2.8-1.8 3.4-3.6 0.6-2-0.3-4.4-1.3-5.2z"/>
			<polygon points="496.1 69.1 496.1 56.8 506 51.9 506 63.5" class="st13"/>
			<polygon points="496.1 69.1 496.1 56.8 486.2 51.9 486.2 63.5" class="st14"/>
			<polygon points="496.1 69.2 496.1 56.8 506 51.1 506 63.5" class="st13"/>
			<polygon points="496.1 69.2 496.1 56.8 486.2 51.1 486.2 63.5" class="st14"/>
			<polygon points="486.2 51.1 496.1 56.8 506 51.1 496.1 45.4" class="st15"/>
				<polygon points="502.3 56.8 500.1 58.1 500.1 54.5 502.3 53.2" class="st7"/>
				<polygon points="502.3 53.2 492.4 47.5 490.2 48.8 500.1 54.5" class="st16"/>
				<polygon points="497.4 67.4 497.4 66.8 500.7 64.9 500.7 65.5" class="st7"/>
				<polygon points="497.4 66.3 497.4 65.7 500.7 63.7 500.7 64.4" class="st7"/>
				<polygon points="503.7 61.7 503.7 63.9 505.3 63 505.3 60.7" class="st7"/>
				<polygon points="488.3 61.4 488.3 63.7 486.7 62.8 486.7 60.5" class="st7"/>
				<polygon points="490.5 62.7 490.5 65 488.9 64.1 488.9 61.8" class="st7"/>
				<polygon points="490 54.7 490 58 486.7 56.1 486.7 52.8" class="st2"/>
				<polygon points="489.6 55.4 489.6 54.8 487 53.3 487 53.9" class="st7"/>
		<path class="st12" d="m508.4 51.8s-1.9 3.9-2.7 5-3.9 3.6-4.6 4c-0.6 0.4-2.1 0.8-2.9 0.8-0.8-0.1-1.3 0.3-0.6 0.6s1.5 0.3 1.5 0.3-1.4 1-1.9 1.9c-0.4 0.7-0.8 2 0.9 1.6 1.4-0.3 3.2-2.4 3.7-2.8 0.9-0.9 4.6-2.9 5.5-3.5 1.2-0.8 4.5-5.8 4.5-5.8s-0.9-2.6-3.4-2.1z"/>
		<path class="st9" d="m513.8 44.4c-1-0.8-3.1 1.9-4.2 3.5-1.1 1.7-2 4.1-2 4.1s1.3 1 2.5 1.7c1 0.6 2.1 1.1 2.1 1.1s4.9-7.7 1.6-10.4z"/>
		<path class="st7" d="m502.8 35.2c0.5 0.6 1.3 1.2 3 0.9 1.3-0.2 2.3-0.8 2.3-0.8l0.3 1.8s0.3 0 0.5-0.2c0-0.7 0.3-0.9 0.7-0.7s0.5 1.3 0.5 1.3 1.3-1.3 0.9-3.3c-0.3-1.3-2-3.8-4.4-3.5-2.4 0.2-3.8 1.8-4.1 3.2-0.2 0.5 0.1 1 0.3 1.3z"/>
			<path class="st8" d="m502.3 33.6s-3.1 2.2-3.6 2.6c-0.5 0.5 2.4 2.4 4.5 1.8s5.2-3 5.2-3l-6.1-1.4z"/>
			<path class="st17" d="m502.3 33.6s3.5 2.2 5.7 1.5c2.2-0.6 2.8-1.2 2.8-1.2s-0.2-4.5-4.2-4.5c-4 0.1-4.3 4.2-4.3 4.2z"/>
			<path class="st8" d="m506.8 29.6c0 0.2-0.3 0.3-0.6 0.3s-0.6-0.1-0.6-0.3 0.3-0.3 0.6-0.3 0.6 0.1 0.6 0.3z"/>
			<path class="st12" d="m472 103.7c1.2-0.6 2.3-1.3 1.9-1.9-0.2-0.3-0.5-0.4-0.9-0.5-1.1 0.4-1.6 0.6-1.6 0.6s0.1-6.2 0.6-8.8c0.2-0.8-3.9-0.9-3.9-0.9-0.1 0.6-0.3 5.8 0 9 0.1 1.1 0 1.8 0 2.3 0.3 0.1 0.8 0.4 1.3 0.6s1.5 0.2 2.6-0.4z"/>
			<path class="st7" d="m468 105.2c0.4 0.9 1.3 0.8 3.1 0.2 1.6-0.6 2.9-1.2 4.1-2.1 1.1-0.8 1.2-1 1.3-1.5 0.2-0.8-1-1.2-2.9-0.6-0.2 0.1-0.4 0.1-0.5 0.2 0.4 0.1 0.7 0.2 0.9 0.5 0.4 0.7-0.7 1.4-1.9 1.9-1.2 0.6-2.1 0.6-2.7 0.3-0.4-0.2-1-0.4-1.3-0.6-0.2 0.8-0.3 1.1-0.1 1.7z"/>
			<path class="st12" d="m477.6 107c1.2-0.6 2.3-1.3 1.9-1.9-0.2-0.3-0.5-0.4-0.9-0.5-1.1 0.4-1.6 0.6-1.6 0.6s0.3-9.7 0.8-12.3c0.2-0.8-3.9 0.4-3.9 0.4-0.1 0.6-0.4 8-0.2 11.2 0.1 1.1 0 1.8 0 2.3 0.3 0.1 0.8 0.4 1.3 0.6s1.5 0.2 2.6-0.4z"/>
			<path class="st7" d="m473.6 108.4c0.4 0.9 1.3 0.8 3.1 0.2 1.6-0.6 2.9-1.2 4.1-2.1 1.1-0.8 1.2-1 1.3-1.5 0.2-0.8-1-1.2-2.9-0.6-0.2 0.1-0.4 0.1-0.5 0.2 0.4 0.1 0.7 0.2 0.9 0.5 0.4 0.7-0.7 1.4-1.9 1.9-1.2 0.6-2.1 0.6-2.7 0.3-0.4-0.2-1-0.4-1.3-0.6-0.1 0.8-0.3 1.2-0.1 1.7z"/>
		<path class="st12" d="m473.4 40.9c0.5 0.3 2.3 0.7 2.8 4.7 0.4 3.5-0.3 4.4-1 4.7-0.4 0.2-1.8 0.2-1.8 0.2l0.1 2.9s-1.7 0.7-3.4 0-1.7-0.7-1.7-0.7 0.6-1.1 0.5-3c-0.1-2.4-1-5.8-0.4-7.1 1.1-2.3 3.6-2.6 4.9-1.7z"/>
		<path class="st18" d="m467.5 50.8s4.7 1.4 5.9 1.8c1.1 0.4 2 1.2 3.2 3.6s0.3 6 0.3 6l-0.4 6.5s-2.5 3-4.7 3.2c-3 0.3-3.3-1.4-3.3-1.4s-3.8-8.4-3.2-12.3c0.7-3.6 2.2-7.4 2.2-7.4z"/>
		<path class="st7" d="m476.3 44.2c-0.1 1.4-1.2 1.8-2.2 2.8s-1.1 2.4-1.4 3.3c-0.3 0.9 0.1 5-1.4 8.1-1.6 3.3-3.7 4-3.7 4s-2.9-4.4-3.9-9.7 2.7-12.3 6.6-13.1c4.3-0.8 6.3 1.9 6 4.6z"/>
		<path class="st12" d="m475.6 54.8c-1-0.1-2 1.7-1.9 3.9 0.1 2.8 6 7.7 6 7.7 2 1.2 8-0.6 9.5-0.7 1.4-0.2 3.1 0.3 4 0.1s2.1-1.6 1.5-2.1c-0.5-0.4-3.2-0.4-3.2-0.4s0.5-1.1 0.5-1.5c0-1.3-0.6 0.2-1.5 0.8-1 0.8-1.5 0.8-2.4 0.9-3.7 0.5-7.1-0.3-7.1-0.3s-3.6-8.2-5.4-8.4z"/>
		<path class="st18" d="m470.8 39.6s3.8 0.3 3.5 3.6-0.3 3.8-0.3 3.8 0.7-2 1.1-3.5c0.4-1.5-0.1-5-4.3-3.9z"/>
		<path class="st12" d="m475.1 46.2s-1-1.8-1.5 0c-0.4 1.6 1 2.2 1 2.2l0.5-2.2z"/>
		<path class="st18" d="m468.3 67.3s-1.3 3.9-1.7 6.3c-1 5.8-0.7 18.7-0.7 18.7s5.3 3 8.9 2.8c5.3-0.4 6.9-2.8 6.9-2.8s-2.1-12.4-2.5-15.1c-0.7-5.2-3-10.2-3-10.2l-7.9 0.3z"/>
		<path class="st19" d="m467.5 69.9s3.5 1.2 6.1 0.4c2.5-0.9 3.4-1.4 3.4-1.4l-0.3-1.5s-1.7 0.8-4.4 1.2c-2.4 0.4-4.7-0.6-4.7-0.6l-0.1 1.9z"/>
		<line y1="273.2" x2="141" x1="137.6" y2="271.5" class="st0"/>
		<line y1="268.1" x2="363.6" x1="147.9" y2="159.8" class="st20"/>
		<line y1="158.1" x2="370.4" x1="367" y2="156.4" class="st0"/>
		<line y1="273.2" x2="134.2" x1="137.6" y2="271.5" class="st0"/>
		<line y1="268.7" x2="109" x1="128.6" y2="258.8" class="st21"/>
		<line y1="257.3" x2="102.8" x1="106.2" y2="255.6" class="st0"/>
		<line y1="77.4" x2="530.7" x1="527.3" y2="75.7" class="st0"/>
		<line y1="72.7" x2="557.7" x1="536.7" y2="62.2" class="st22"/>
		<line y1="60.7" x2="564.1" x1="560.7" y2="59" class="st0"/>
			<path class="st23" d="m521.9 80.1c3-0.3 7-0.3 9.8 0.4l-3.7-3.5-0.6-5c-1.1 2.7-3.4 5.9-5.5 8.1z"/>
</svg>
