<?xml version="1.0" encoding="UTF-8" standalone="no"?>
<!-- Generator: Adobe Illustrator 22.0.0, SVG Export Plug-In . SVG Version: 6.00 Build 0)  -->
<svg id="レイヤー_1" style="enable-background:new 0 0 425.2 116.2" xmlns="http://www.w3.org/2000/svg" xml:space="preserve" viewBox="0 0 425.2 116.2" version="1.1" y="0px" x="0px" xmlns:xlink="http://www.w3.org/1999/xlink">
<style type="text/css">
	.st0{fill:#F4A994;}
	.st1{fill:#4E4D4D;}
	.st2{fill:#126684;}
	.st3{fill:#D02334;}
	.st4{fill:#E8373E;}
	.st5{fill:#FFFFFF;}
	.st6{fill:#2184A0;}
	.st7{fill:#F7C1B0;}
	.st8{fill:#D5A363;}
	.st9{fill:#E2B277;}
	.st10{fill:#FCDFBF;}
	.st11{fill:#6E6E6D;}
	.st12{fill:#0A5073;}
	.st13{fill:#F18C1B;}
	.st14{fill:#DB740E;}
	.st15{fill:#2D3033;}
</style>
<path class="st0" d="m62 59.7c-1-0.2-2.1-0.3-2.1-0.3s0.1-0.2 0.3-0.9 0-1.3-0.3-0.7-0.7 1.5-2.3 2.2-6.2-2-6.2-2l-0.3 0.4c-0.4 3.4 2.2 3.1 2.2 3.1s2.4 0.6 4 0.6c1.8-0.1 3.3-0.2 4.3-0.5 2.3-0.4 1.4-1.6 0.4-1.9z"/>
	<path class="st1" d="m76.7 93.2s-0.9 0.9-2.1 2.2c-1.2 1-1.5 1.4-2.5 2.4-0.6 0.6-0.1 1.2 1 1 1 0 3.4-0.6 4.6-1 0.9-0.3 2.5-1.3 3.5-1.7 0.8-0.6 1-1.3 1-1.3v-1.8l-5.5 0.2z"/>
	<path class="st1" d="m93.3 91.6s-0.6 0.8-1.7 2c-1.2 1-1.4 1.5-2.4 2.8-0.2 0.3-0.3 1.2 0.8 1 1 0 2.5-0.5 3.8-0.9 1.5-0.6 2.7-2 3.6-2.5 0.8-0.6 1.3-1.7 1.3-1.7l-0.7-1.9-4.7 1.2z"/>
	<path class="st2" d="m92.8 62.2c0.5-6.6-3.2-10.2-3.2-10.2 0.3-2.2-10.1 0.9-10.1 0.9s-2.2 12-3.1 18.4c-1.2 7.2-0.6 21.9-0.6 21.9s0.1 1.6 2.8 1.5c2.1 0 3.6-1.9 3.6-1.9l0.2-16.7 2.4-11.8s2.3 9.6 3 13.1c0.8 3.7 3.7 14.6 3.7 14.6s2 2.2 4.3 1c2.4-1.2 2-2.5 2-2.5s-0.5-7.8-3.5-14.7c-0.2-5.1-1.7-10.6-1.5-13.6z"/>
	<path class="st3" d="m80.9 35.5s-1.5-0.1-3 2.8-3 5.9-3 5.9 2.2 0.3 4.6 2.5c3.4-2.9 3.8-9.8 1.4-11.2z"/>
	<path class="st4" d="m80.9 35.5s-0.8 1.6-1.6 4.5-0.5 16.7-0.5 16.7 3.1 2.2 8.4 1.9c3.1-0.2 4.7-2.2 4.7-2.2s1.9-13.4 1.6-15.3c-0.2-2-4.3-6.5-4.3-6.5s-5.2-0.4-8.3 0.9z"/>
	<path class="st0" d="m84.5 33.6l-0.6 3.6s1.9 2.1 3.6 0.5c1.7-1.5 2.1-2.2 2.1-2.2l-0.9-4.9-4.2 3z"/>
		<path class="st2" d="m85.3 43.8s2.3-3.5 4.2-4.4 2.8-1.2 2.8-1.2-0.7-1.4-1.2-1.5c-0.8 0.1-1.3 0.3-2.9 1.2-1.6 0.8-3.5 2.9-4.2 4.2-1.4 2.5 0.3 3.2 1.3 1.7z"/>
		<path class="st2" d="m81.6 35.1s-1.5 3.6-1.7 5.3 0.1 2.3 0.8 2.3c0.7 0.1 0.7-1.2 0.9-2.5s1.5-5.6 1.5-5.6l-1.5 0.5z"/>
		<path class="st2" d="m92.2 54.3s-1.7 1.4-3.4 1.2c-1.5-0.1-3.6-1.6-3.5-6.2s0.6-6.7 0.6-6.7l-5.5-2.6s-1.5 3.5-1.9 10.4c-0.3 6.9-0.5 9.3-0.5 9.3s6 0.3 9.5 0c3.5-0.3 5-0.8 5-0.8l-0.3-4.6z"/>
		<path class="st5" d="m81 41.3c0 0.2-0.1 0.5-0.3 0.5s-0.3-0.2-0.3-0.5 0.1-0.5 0.3-0.5c0.2 0 0.3 0.2 0.3 0.5z"/>
		<path class="st5" d="m84.4 42.9c-0.1 0.2-0.1 0.5 0 0.6s0.5 0 0.6-0.2 0.1-0.5 0-0.6c-0.2-0.2-0.5 0-0.6 0.2z"/>
		<path class="st6" d="m79.9 43.6c-0.2 1.2-0.1 4.7 2 5.3 1.9 0.5 2.3-1.7 2.8-3.5-2.5-0.4-4.8-1.8-4.8-1.8z"/>
	<path class="st7" d="m87 25.2c-1.5-1.2-5.2-1.5-6.5 2.2-1.4 3.9 2.2 8.8 4.1 8 1-0.5 3.2-2.1 3.9-4.2 0.7-2.3-0.3-5.1-1.5-6z"/>
		<polygon points="72.5 67.9 72.5 53.6 83.9 48 83.9 61.4" class="st8"/>
		<polygon points="72.5 67.9 72.5 53.6 61 48 61 61.4" class="st9"/>
		<polygon points="72.5 68 72.5 53.6 83.9 47 83.9 61.4" class="st8"/>
		<polygon points="72.5 68 72.5 53.6 61 47 61 61.4" class="st9"/>
		<polygon points="61 47 72.5 53.6 83.9 47 72.5 40.5" class="st10"/>
			<polygon points="79.6 53.6 77.1 55.2 77.1 51 79.6 49.5" class="st1"/>
			<polygon points="79.6 49.5 68.2 42.9 65.6 44.4 77.1 51" class="st11"/>
			<polygon points="74 65.9 74 65.2 77.8 63 77.8 63.7" class="st1"/>
			<polygon points="74 64.6 74 63.9 77.8 61.6 77.8 62.4" class="st1"/>
			<polygon points="81.3 59.3 81.3 61.9 83.1 60.8 83.1 58.2" class="st1"/>
			<polygon points="63.4 59 63.4 61.6 61.6 60.6 61.6 57.9" class="st1"/>
			<polygon points="66 60.5 66 63.1 64.1 62.1 64.1 59.4" class="st1"/>
			<polygon points="65.4 51.2 65.4 55 61.6 52.8 61.6 49" class="st5"/>
			<polygon points="64.9 52 64.9 51.3 61.9 49.6 61.9 50.3" class="st1"/>
	<path class="st7" d="m86.7 47.9s-2.2 4.5-3.1 5.8-4.5 4.2-5.3 4.6c-0.7 0.5-2.4 0.9-3.4 0.9-0.9-0.1-1.5 0.3-0.7 0.7 0.8 0.3 1.7 0.3 1.7 0.3s-1.6 1.2-2.2 2.2c-0.5 0.8-0.9 2.3 1 1.9 1.6-0.3 3.7-2.8 4.3-3.2 1-1 5.3-3.4 6.4-4.1 1.4-0.9 5.2-6.7 5.2-6.7s-1-3-3.9-2.4z"/>
	<path class="st3" d="m92.9 39.3c-1.2-0.9-3.6 2.2-4.9 4.1-1.3 2-2.3 4.7-2.3 4.7s1.5 1.2 2.9 2c1.2 0.7 2.4 1.3 2.4 1.3s5.8-9 1.9-12.1z"/>
	<path class="st1" d="m80.2 28.6c0.6 0.7 1.5 1.4 3.5 1 1.5-0.2 2.7-0.9 2.7-0.9l0.3 2.1s0.3 0 0.6-0.2c0-0.8 0.3-1 0.8-0.8s0.6 1.5 0.6 1.5 1.5-1.5 1-3.8c-0.3-1.5-2.3-4.4-5.1-4.1-2.8 0.2-4.4 2.1-4.7 3.7-0.3 0.6 0.1 1.2 0.3 1.5z"/>
		<path class="st2" d="m79.6 26.8s-3.6 2.5-4.2 3c-0.6 0.6 2.8 2.8 5.2 2.1s6-3.5 6-3.5l-7-1.6z"/>
		<path class="st12" d="m79.6 26.8s4.1 2.5 6.6 1.7c2.5-0.7 3.2-1.4 3.2-1.4s-0.2-5.2-4.9-5.2c-4.5 0.1-4.9 4.9-4.9 4.9z"/>
		<path class="st2" d="m84.8 22.2c0 0.2-0.3 0.3-0.7 0.3s-0.7-0.1-0.7-0.3c0-0.2 0.3-0.3 0.7-0.3s0.7 0 0.7 0.3z"/>
		<path class="st7" d="m46.8 103.7c1.2-0.6 2.3-1.3 1.9-1.9-0.2-0.3-0.5-0.4-0.9-0.5-1.1 0.4-1.6 0.6-1.6 0.6s0.1-6.2 0.6-8.8c0.2-0.8-3.9-0.9-3.9-0.9-0.1 0.6-0.3 5.8 0 9 0.1 1.1 0 1.8 0 2.3 0.3 0.1 0.8 0.4 1.3 0.6s1.5 0.2 2.6-0.4z"/>
		<path class="st1" d="m42.8 105.2c0.4 0.9 1.3 0.8 3.1 0.2 1.6-0.6 2.9-1.2 4.1-2.1 1.1-0.8 1.2-1 1.3-1.5 0.2-0.8-1-1.2-2.9-0.6-0.2 0.1-0.4 0.1-0.5 0.2 0.4 0.1 0.7 0.2 0.9 0.5 0.4 0.7-0.7 1.4-1.9 1.9-1.2 0.6-2.1 0.6-2.7 0.3-0.4-0.2-1-0.4-1.3-0.6-0.2 0.8-0.3 1.1-0.1 1.7z"/>
		<path class="st7" d="m52.4 107c1.2-0.6 2.3-1.3 1.9-1.9-0.2-0.3-0.5-0.4-0.9-0.5-1.1 0.4-1.6 0.6-1.6 0.6s0.3-9.7 0.8-12.3c0.2-0.8-3.9 0.4-3.9 0.4-0.1 0.6-0.4 8-0.2 11.2 0.1 1.1 0 1.8 0 2.3 0.3 0.1 0.8 0.4 1.3 0.6s1.5 0.2 2.6-0.4z"/>
		<path class="st1" d="m48.4 108.4c0.4 0.9 1.3 0.8 3.1 0.2 1.6-0.6 2.9-1.2 4.1-2.1 1.1-0.8 1.2-1 1.3-1.5 0.2-0.8-1-1.2-2.9-0.6-0.2 0.1-0.4 0.1-0.5 0.2 0.4 0.1 0.7 0.2 0.9 0.5 0.4 0.7-0.7 1.4-1.9 1.9-1.2 0.6-2.1 0.6-2.7 0.3-0.4-0.2-1-0.4-1.3-0.6-0.1 0.8-0.3 1.2-0.1 1.7z"/>
	<path class="st7" d="m48.2 40.9c0.5 0.3 2.3 0.7 2.8 4.7 0.4 3.5-0.3 4.4-1 4.7-0.4 0.2-1.8 0.2-1.8 0.2l0.1 2.9s-1.7 0.7-3.4 0-1.7-0.7-1.7-0.7 0.6-1.1 0.5-3c-0.1-2.4-1-5.8-0.4-7.1 1.1-2.3 3.6-2.6 4.9-1.7z"/>
	<path class="st13" d="m42.3 50.8s4.7 1.4 5.9 1.8c1.1 0.4 2 1.2 3.2 3.6s0.3 6 0.3 6l-0.4 6.5s-2.5 3-4.7 3.2c-3 0.3-3.3-1.4-3.3-1.4s-3.8-8.4-3.2-12.3c0.7-3.6 2.2-7.4 2.2-7.4z"/>
	<path class="st1" d="m51.1 44.2c-0.1 1.4-1.2 1.8-2.2 2.8s-1.1 2.4-1.4 3.3c-0.3 0.9 0.1 5-1.4 8.1-1.6 3.3-3.7 4-3.7 4s-2.9-4.4-3.9-9.7 2.7-12.3 6.6-13.1c4.3-0.8 6.3 1.9 6 4.6z"/>
	<path class="st7" d="m50.4 54.8c-1-0.1-2 1.7-1.9 3.9 0.1 2.8 6 7.7 6 7.7 2 1.2 8-0.6 9.5-0.7 1.4-0.2 3.1 0.3 4 0.1s2.1-1.6 1.5-2.1c-0.5-0.4-3.2-0.4-3.2-0.4s0.5-1.1 0.5-1.5c0-1.3-0.6 0.2-1.5 0.8-1 0.8-1.5 0.8-2.4 0.9-3.7 0.5-7.1-0.3-7.1-0.3s-3.6-8.2-5.4-8.4z"/>
	<path class="st13" d="m45.6 39.6s3.8 0.3 3.5 3.6-0.3 3.8-0.3 3.8 0.7-2 1.1-3.5-0.1-5-4.3-3.9z"/>
	<path class="st7" d="m49.9 46.2s-1-1.8-1.5 0c-0.4 1.6 1 2.2 1 2.2l0.5-2.2z"/>
	<path class="st13" d="m43.1 67.3s-1.3 3.9-1.7 6.3c-1 5.8-0.7 18.7-0.7 18.7s5.3 3 8.9 2.8c5.3-0.4 6.9-2.8 6.9-2.8s-2.1-12.4-2.5-15.1c-0.7-5.2-3-10.2-3-10.2l-7.9 0.3z"/>
	<path class="st14" d="m42.3 69.9s3.5 1.2 6.1 0.4c2.5-0.9 3.4-1.4 3.4-1.4l-0.3-1.5s-1.7 0.8-4.4 1.2c-2.4 0.4-4.7-0.6-4.7-0.6l-0.1 1.9z"/>
	<path class="st15" d="m156.6 24.1v6.9c1.2 2 3.6 2 7.4 2 2.6 0 5.7-0.1 7.9-0.3-0.4 0.8-0.9 2.3-1 3.3-1.7 0.1-3.9 0.2-6 0.2-5.5 0-7.7-0.1-9.7-2.4-0.9 0.8-1.8 1.6-2.6 2.2 0 0.3-0.1 0.4-0.4 0.5l-1.6-3.5c0.9-0.5 1.9-1.1 2.8-1.8v-4.1h-2.3v-2.9h5.5zm-3.1-8c1.3 0.9 2.9 2.2 3.6 3.3l-2.6 2.1c-0.6-1-2.2-2.5-3.4-3.5l2.4-1.9zm18 10.6h-5c1 1.7 2.7 2.8 5.1 3.4-0.7 0.6-1.6 1.9-2 2.7-2.3-0.7-3.9-2.1-5.1-4-0.9 1.5-2.5 2.9-5.1 4-0.4-0.7-1.4-1.7-2.1-2.3 3-1 4.3-2.4 4.8-3.8h-4.8v-2.8h5.1v-1.7h-4.4v-2.8h1.8c-0.4-0.8-0.9-1.8-1.4-2.6l2.7-1.1c0.8 1 1.6 2.3 1.9 3.3l-1 0.4h3.8l-0.7-0.3c0.7-0.9 1.5-2.3 2-3.4l3.6 1.3c-0.1 0.2-0.4 0.3-0.7 0.3-0.4 0.7-1.1 1.5-1.7 2.2h2.4v2.8h-5v1.7h5.8v2.7z"/>
	<path class="st15" d="m174.1 28.8c-0.4-1.7-0.6-3.7-0.6-5.1s0.2-3.8 0.6-6.4l4 0.5c-0.1 0.2-0.3 0.4-0.5 0.4-0.4 1.5-0.8 4.4-0.8 5.6 0.4-0.9 1.1-2 1.6-2.8 0.3 0.6 1.1 1.7 1.5 2.1-1.3 1.8-2.2 3.5-2.4 4-0.1 0.2-0.1 0.4-0.1 0.6v0.6l-3.3 0.5zm13.1-12.1c0 0.2-0.2 0.4-0.5 0.5 0.2 1.7 0.4 4.5 0.4 7.4 0 4.2-1.3 8.3-8.5 11.3-0.5-0.7-1.7-2-2.4-2.7 6.1-2.4 7.2-5.9 7.2-8.6 0-3.2-0.3-6.2-0.6-8.1l4.4 0.2z"/>
	<path class="st15" d="m209.6 24.8h-5.1c0.9 3.8 2.6 7.1 5.5 8.9-0.7 0.6-1.8 1.9-2.3 2.8-2.2-1.6-3.6-3.9-4.7-6.6-0.9 2.6-2.4 4.9-4.8 6.6-0.5-0.8-1.5-1.8-2.3-2.4v2.4h-3.1v-5.8c-0.9 0.7-1.7 1.3-2.4 1.8 0 0.2-0.1 0.4-0.3 0.6l-1.6-3.4c1.1-0.5 2.6-1.5 4.2-2.4v-3.9c-0.9 0.4-1.7 0.7-2.6 1.1-0.1-1.3-0.8-3.4-1.5-5l2.7-1.1c0.5 1 1 2.2 1.3 3.2v-5.9l3.8 0.2c0 0.2-0.2 0.4-0.7 0.5v17.8c3.2-2.3 4.4-5.5 4.9-9.3h-4.4v-3.2h4.6c0.1-1.9 0-3.9 0.1-6l4 0.2c0 0.3-0.2 0.4-0.7 0.5 0 1.8 0 3.5-0.1 5.3h5.3v3.1zm-2.2-8.7c0.9 1.1 1.9 2.7 2.4 3.8l-2.7 1.4c-0.4-1.1-1.3-2.7-2.2-3.9l2.5-1.3z"/>
	<path class="st15" d="m218.8 26.1c0 1.7-1.4 3.1-3.1 3.1s-3.1-1.4-3.1-3.1 1.4-3.1 3.1-3.1c1.7 0 3.1 1.4 3.1 3.1z"/>
	<path class="st15" d="m232.5 32.6h-3.1c1.1 0.4 2.3 0.5 5.5 0.5 2.6 0 5.7-0.1 7.9-0.3-0.4 0.8-0.9 2.3-1 3.3-1.7 0.1-3.9 0.2-6 0.2-5.5 0-7.7-0.1-9.7-2.4-0.9 0.8-1.8 1.6-2.6 2.2 0 0.3-0.1 0.4-0.4 0.5l-1.6-3.5c0.9-0.5 1.9-1.1 2.8-1.8v-4.1h-2.3v-2.9h5.4v6.7c0.4 0.7 1.1 1.2 1.9 1.5v-14.7h3.3c0.3-0.8 0.5-1.6 0.6-2.2l4.2 0.6c-0.1 0.2-0.3 0.3-0.6 0.4-0.2 0.4-0.5 0.9-0.8 1.3h4v6.5h-7.6v0.8h8.5v7.5h-3.1v-0.7h-5.4v0.6zm-8.1-16.5c1.3 0.9 2.9 2.2 3.6 3.3l-2.6 2.1c-0.6-1-2.2-2.5-3.4-3.5l2.4-1.9zm12.6 5.6v-1.3h-4.5v1.3h4.5zm0.8 6h-5.4v1.7h5.4v-1.7z"/>
	<path class="st15" d="m263 23.6c1 2 1.8 4.7 2 6.4l-2.7 1.1c-0.1-1.1-0.5-2.6-0.9-4.1v6.1c0 2.4-0.5 3.3-4.4 3.3-0.1-0.9-0.4-2.2-0.8-3.1h2c0.3 0 0.4-0.1 0.4-0.4v-10.6h-0.6c-0.1 6.3-0.5 11.2-4.5 14.1-0.4-0.7-1.3-1.8-1.9-2.3 2.5-1.8 3.3-4.3 3.5-7.9-0.4 1.7-1 3.4-1.8 4.6-0.5-0.4-1.5-1-2.1-1.4 0.2-0.2 0.3-0.5 0.4-0.7h-1.4v2.3l1.9-0.4 0.2 2.6c-2.6 0.6-5.4 1.2-7.2 1.6 0 0.2-0.2 0.4-0.4 0.4l-1-3.1 0.9-0.1v-6.8l3 0.2v-1.4h-2.8v-7.6h7.2v7.6h-1.8v2.1h1.8v1.8c0.5-1.3 0.8-2.8 1-4.2l2.2 0.5v-1.9h-2.9v-3h4.4v-3.7l3.9 0.2c0 0.3-0.2 0.4-0.7 0.5v3h4.7v3h-3.2v1.9l1.6-0.6zm-16 8l0.5-0.1v-5.9c-0.1 0.1-0.2 0.2-0.5 0.3v5.7zm0.3-12.6v2.4h1.8v-2.4h-1.8z"/>
	<path class="st15" d="m286.2 24.1h-5.4c1.7 1.1 4 1.9 6.2 2.4-0.7 0.6-1.6 1.9-2.1 2.7-0.4-0.1-0.8-0.3-1.3-0.4v7.7h-3.2v-0.6h-8.3v0.7h-3.1v-7.9c-0.5 0.2-0.9 0.4-1.4 0.5-0.4-0.7-1.3-1.8-2-2.4 2.1-0.6 4.2-1.5 5.9-2.6h-5.3v-2.6h3.9c-0.3-0.6-0.7-1.3-1.1-1.9l0.9-0.3h-1.8c-0.1-0.7-0.4-1.8-0.6-2.4 5.3-0.1 11.4-0.5 15.2-1.2l2 2.4c-0.1 0-0.2 0.1-0.4 0.1h-0.3c-0.9 0.2-2 0.3-3.1 0.5l2.8 0.9c-0.1 0.2-0.3 0.3-0.7 0.3-0.3 0.6-0.7 1.2-1.2 1.8h4.1v2.3zm-11.7 1.1c-1.1 0.9-2.3 1.8-3.6 2.5h10.4c-1.3-0.7-2.6-1.6-3.7-2.6v2.3h-3.2v-2.2zm0.1 5.6v-0.7h-2.6v0.7h2.6zm-2.5 2v0.7h2.6v-0.7h-2.6zm2.4-11.3v-2.4c-0.7 0-1.5 0.1-2.3 0.1 0.4 0.6 0.9 1.3 1.1 1.9l-1.1 0.4h2.3zm5.9 9.3v-0.7h-2.8v0.7h2.8zm-2.8 2.7h2.8v-0.7h-2.8v0.7zm2-12l-0.8-0.3c0.4-0.7 0.9-1.7 1.1-2.6-0.7 0.1-1.5 0.2-2.3 0.2v2.6h2z"/>
	<path class="st15" d="m308.3 27.2h-12.3l-0.3 1h7l0.7-0.1 2 0.5c0 0.2-0.1 0.6-0.2 0.8-0.7 6.7-1.8 7.1-6.3 7.1h-2c0-0.9-0.5-2.2-1.1-3 1.4 0.1 3.1 0.1 3.8 0.1 1 0 1.5 0 2-2.5h-6.8l-0.4 1c-1.2-0.2-2.3-0.4-3.5-0.5 0.5-1.1 1-2.8 1.5-4.3h-4.3v-2.9h20.2v2.8zm-3-10.8v7.2h-14.1v-7.2h14.1zm-3.4 4.5v-1.7h-7.6v1.7h7.6z"/>
	<path class="st15" d="m163.1 50.6c0 0.1-0.2 0.2-0.3 0.2-0.7 1.8-1.9 3.8-3.2 5-0.4-0.3-1.1-0.8-1.5-1 1-0.9 1.9-2.3 2.3-3.2l-3.9 0.7 1.4 7.1-1.8 0.3-1.4-7.1-3.6 0.7-0.3-1.7 3.6-0.7-0.7-3.4 2.3-0.2c0 0.2-0.2 0.3-0.4 0.4l0.5 2.9 5.2-1 0.2-0.1 1.6 1.1z"/>
	<path class="st15" d="m176.2 50.1c0 0.1-0.1 0.2-0.3 0.2-1.2 1.8-3.3 3.8-5.2 5.3 0.8 0.7 1.9 1.6 2.5 2.3l-1.6 1.4c-1.6-1.8-4-3.8-6.1-5l1.2-1.3c0.8 0.4 1.8 1.1 2.6 1.7 1.5-1.1 2.9-2.5 3.8-3.7h-9v-1.7h10.4l0.2-0.1 1.5 0.9z"/>
	<path class="st15" d="m185.5 55.4c-1.2-0.7-3-1.5-4.4-2.1v6.6h-1.9v-12.4l2.3 0.1c0 0.2-0.1 0.3-0.4 0.4v4l0.4-0.5c1.5 0.5 3.6 1.5 5 2.2l-1 1.7z"/>
	<path class="st15" d="m188.7 56c1 0.8 2.4 2.2 3 3l-1.4 1.3c-0.6-0.8-2-2.4-2.9-3.2l1.3-1.1z"/>
	<path class="st15" d="m205.1 58.3h2.8v1.6h-7.5v-1.6h3.1v-3.1h-1.9v-0.1c-0.6 1.6-1.5 3.1-2.5 4.1-0.2-0.3-0.6-0.8-1-1.1v2.2h-1.6v-7.2c-0.4 0.6-0.8 1.1-1.2 1.6-0.2-0.4-0.6-1.3-0.8-1.7 1.2-1.3 2.5-3.6 3.2-5.9l1.9 0.6c-0.1 0.1-0.2 0.2-0.4 0.2l-1.2 2.7 0.5 0.1c0 0.1-0.1 0.2-0.4 0.2v6.7c1.4-1.5 2.3-3.7 2.8-6.4h-2.2v-1.6h2.5c0.1-0.8 0.3-1.7 0.4-2.5l2.1 0.3c0 0.1-0.2 0.2-0.4 0.2-0.1 0.7-0.2 1.3-0.3 2h5v1.6h-5.3c-0.2 0.8-0.4 1.5-0.6 2.3h5.5v1.6h-2.4v3.2z"/>
	<path class="st15" d="m210.3 47.8l2.1 0.1c0 0.2-0.1 0.2-0.4 0.3v4.5c0 2.7-0.2 5.6-2.1 7.7-0.3-0.4-1-0.9-1.4-1.2 1.6-1.8 1.8-4.2 1.8-6.6v-4.8zm4.4 0.6l2.1 0.1c0 0.1-0.1 0.2-0.4 0.3v10.2h-1.7v-10.6zm4.6-0.7l2.1 0.1c0 0.1-0.1 0.2-0.4 0.3v12.1h-1.7v-12.5z"/>
	<path class="st15" d="m223.7 56c1 0.8 2.4 2.2 3 3l-1.4 1.3c-0.6-0.8-2-2.4-2.9-3.2l1.3-1.1z"/>
	<path class="st15" d="m236.4 51.5v1.2h1v1.4h-1v1.3h0.8v1.4h-2.9v1.1l2.9-0.3v1.4c-2.5 0.3-5.1 0.6-6.8 0.8 0 0.1-0.1 0.2-0.3 0.2l-0.5-1.7c0.9-0.1 1.9-0.2 3.1-0.3v-1.3h-2.7v-1.4h0.8v-1.3h-1.1v-1.4h1.1v-1.2h-0.8v-1.4h2.8v-0.9c-0.9 0.1-1.7 0.1-2.5 0.2-0.1-0.4-0.3-0.9-0.4-1.3 2.2-0.1 4.7-0.4 6.2-0.8l1.2 1.3h-0.4c-0.7 0.2-1.7 0.3-2.6 0.4v1.1h3v1.4h-0.9zm-4.4 0v1.2h0.8v-1.2h-0.8zm0 3.9h0.8v-1.3h-0.8v1.3zm3.1-3.9h-0.8v1.2h0.8v-1.2zm0 3.9v-1.3h-0.8v1.3h0.8zm6.9-7.6l1 0.4c0 0.1-0.1 0.2-0.1 0.2-0.4 1.2-1 2.7-1.6 4.2 1.2 1.4 1.7 2.5 1.7 3.4 0 2.6-1.7 2.6-2.6 2.6h-0.4c0-0.4-0.2-1.1-0.5-1.6h0.7c0.7 0 1.2 0 1.2-1.1 0-0.8-0.5-1.7-1.7-3.1 0.5-1.2 0.8-2.4 1.2-3.5h-1.5v10.9h-1.6v-12.4h3.9 0.3z"/>
	<path class="st15" d="m256.9 51.2h-1c-0.3 2.1-0.8 3.8-1.6 5.3 0.7 1 1.6 1.8 2.8 2.4-0.4 0.3-0.9 1-1.1 1.4-1.1-0.6-2-1.4-2.7-2.3-0.9 1-2 1.8-3.5 2.4-0.2-0.4-0.6-1.1-0.8-1.4 1.5-0.5 2.6-1.3 3.4-2.4-0.4-0.9-0.8-1.8-1.1-2.8-0.2 0.4-0.4 0.7-0.7 1l-1.2-1.2h-1.1v3c0.6-0.1 1.3-0.3 1.9-0.4l0.2 1.6c-2.1 0.5-4.4 1-5.9 1.3 0 0.1-0.1 0.2-0.3 0.3l-0.5-1.9c0.3 0 0.5-0.1 0.9-0.1v-6l1.8 0.1c0 0.1-0.1 0.2-0.3 0.3v5.4l0.7-0.1v-7.4h-2.7v-1.6h6.4v1.6h-2.1v2.3h1.6v0.9c0.9-1.4 1.5-3.6 1.8-5.8l2 0.4c0 0.1-0.2 0.2-0.4 0.2-0.1 0.7-0.3 1.3-0.4 2h4.2v1.5zm-4.6 0l-0.1 0.2c0.2 1.2 0.6 2.4 1 3.4 0.4-1 0.7-2.2 0.9-3.5h-1.8z"/>
	<path class="st15" d="m261.4 48.2c0 0.2-0.2 0.3-0.4 0.3-0.5 2.5-0.7 5-0.7 6.2 0 0.8 0 1.5 0.1 2 0.2-0.4 0.7-1.6 0.9-2l0.8 1.3c-0.5 1-1 1.8-1.2 2.4-0.1 0.2-0.1 0.5-0.1 0.7s0 0.3 0.1 0.5l-1.8 0.3c-0.4-1.3-0.6-3.1-0.6-5s0.3-4.5 0.7-6.8l2.2 0.1zm8.4 10.5h-1.6c-0.9 0-1.8 0-2.4-0.1-1.9-0.3-2.7-1.3-2.7-2.5 0-1 0.5-1.9 1.2-2.8l1.7 0.6c-0.6 0.6-1 1.3-1 2 0 1.1 1.3 1.2 2.9 1.2 0.7 0 1.4 0 2-0.1l-0.1 1.7zm-6.4-9.1c1.6 0 4.2-0.2 5.9-0.5l0.2 1.7c-1.7 0.3-4.4 0.4-6 0.5l-0.1-1.7z"/>
	<path class="st15" d="m272.7 51.8c0.6 0.6 1.2 1.4 1.9 2.1 0.3-0.9 0.5-1.8 0.7-2.8l1.9 0.4c0 0.1-0.2 0.2-0.4 0.2-0.3 1.3-0.6 2.5-1.1 3.6 0.6 0.8 1.1 1.6 1.5 2.3l-1.3 1.1c-0.2-0.5-0.6-1.1-1-1.8-0.7 1.2-1.7 2.2-2.9 3-0.2-0.4-0.7-1-1-1.3 1.3-0.7 2.2-1.8 2.9-3.1-0.7-1-1.6-2-2.4-2.9l1.2-0.8zm11.5-1.6v1.6h-1.5v6.4c0 1.6-0.5 2.1-3.3 2.1-0.1-0.5-0.3-1.3-0.5-1.8h1.3c0.8 0 0.8 0 0.8-0.3v-6.4h-3.5v-0.9h-6.5v-1.6h2.7v-2.3l2 0.1c0 0.1-0.1 0.2-0.4 0.3v1.9h2.7v0.9h3v-3.2l2 0.1c0 0.1-0.1 0.2-0.4 0.3v2.8h1.6zm-5.4 6.5c-0.2-0.8-0.8-2.1-1.5-3.1l1.3-0.6c0.7 0.9 1.3 2.1 1.6 3l-1.4 0.7z"/>
	<path class="st15" d="m287.8 50.3v2c0 2.3-0.2 5.8-1.5 8-0.3-0.3-1.1-0.8-1.5-1 1.2-2 1.3-5 1.3-7v-3.6h5v-1.6l2.1 0.1c0 0.1-0.1 0.2-0.4 0.3v1.2h5.2v1.6h-6c1.1 0.5 2.6 1.4 3.4 2l-1.2 1.2c-0.7-0.6-2.2-1.6-3.4-2.2l1.1-1.1h-4.1zm2.4 4.1c-0.2 1.6-0.4 3.4-1.1 4.6l-1.5-0.7c0.6-1.1 0.9-2.7 1-4.3l1.6 0.4zm2.2 3.7c0 0.5 0.1 0.6 0.4 0.6h1c0.4 0 0.5-0.3 0.5-2.3 0.3 0.3 1.1 0.6 1.5 0.7-0.1 2.4-0.5 3.1-1.8 3.1h-1.4c-1.4 0-1.8-0.5-1.8-2.1v-4.8l2 0.1c0 0.1-0.1 0.2-0.4 0.3v4.4zm4.3 1c-0.2-1.2-0.9-3.1-1.7-4.6l1.5-0.6c0.8 1.4 1.6 3.2 1.8 4.5l-1.6 0.7z"/>
	<path class="st15" d="m302.7 47.8c0 0.2-0.2 0.3-0.4 0.3-0.1 1.9-0.3 5.1-0.3 7.2 0 1.8 0.9 2.6 2.4 2.6 1.4 0 2.9-0.7 4.5-2.3 0.2 0.4 0.8 1.3 1 1.6-1.8 1.7-3.6 2.5-5.6 2.5-3.1 0-4.3-1.7-4.3-4.5 0-1.9 0.1-5.9 0.2-7.6l2.5 0.2z"/>
	<path class="st15" d="m310 48.8h1.5c1.6-0.1 7.7-0.5 10-0.6v1.9c-1.2 0-1.9 0.1-3 0.9-1.5 1-3.4 3-3.4 4.6s1.4 2.5 4.5 2.8l-0.9 1.8c-4-0.5-5.5-2.2-5.5-4.6 0-1.7 1.6-3.9 3.7-5.4-1.6 0.1-5 0.4-6.3 0.5 0 0.1-0.2 0.2-0.3 0.2l-0.3-2.1z"/>
	<path class="st15" d="m325.5 49c0 0.1-0.2 0.2-0.4 0.2-0.2 1.1-0.4 2.6-0.4 3.9 0 3.1 0.9 4.2 1.7 4.2 0.5 0 1.1-1.4 1.4-2.6 0.3 0.3 1 0.9 1.4 1.1-0.7 2.3-1.6 3.4-2.9 3.4-2.2 0-3.2-2.7-3.4-5 0-0.5-0.1-1.1-0.1-1.6 0-1.3 0.1-2.7 0.3-4l2.4 0.4zm7.9 6.8c-0.4-2.5-1.6-4-3.3-5l1.1-1.3c2 1.1 3.6 3 4 5.7l-1.8 0.6z"/>
	<path class="st15" d="m336.5 49c0.9 0.1 2.2 0.1 3.2 0.1h1.3v-1.7l2.2 0.1c0 0.2-0.1 0.3-0.4 0.3v1.2c1.4-0.1 2.9-0.2 4.2-0.5l0.2 1.6c-1.3 0.2-2.7 0.3-4.4 0.4v1.9c1.3-0.1 2.6-0.3 3.5-0.5l0.1 1.6c-0.9 0.2-2.3 0.3-3.6 0.4 0 0.7 0.1 1.3 0.1 1.8 1.3 0.4 2.6 1.1 3.8 2l-1.1 1.5c-0.9-0.8-1.8-1.4-2.7-1.8v0.4c0 1.1-1 1.9-2.9 1.9s-3.1-0.9-3.1-2.2c0-1.4 1.5-2.3 3.2-2.3 0.3 0 0.7 0 1.1 0.1v-1.4h-1.1c-1.9 0-3.1-0.3-3.1-1.3 0-0.6 0.4-1.1 1.5-1.7l1.2 0.6c-0.5 0.2-0.9 0.5-0.9 0.7s0.2 0.3 1.6 0.3h0.8l-0.1-2h-1.4-3.2v-1.5zm4.8 7.9c-0.4-0.1-0.9-0.2-1.2-0.2-0.9 0-1.5 0.4-1.5 0.9 0 0.6 0.7 0.9 1.6 0.9 0.8 0 1.2-0.4 1.2-1l-0.1-0.6z"/>
	<path class="st15" d="m348.7 49.3c0.9 0 2.1 0 3.2-0.1 0.7 0 1.7-0.1 2.7-0.1 0-0.2 0-1.3-0.1-2l2.3 0.1c0 0.1-0.2 0.3-0.4 0.3v1.5c1.8-0.1 3.7-0.1 4.4-0.1v1.7h-1.5-2.9l0.1 2.5c0.2 0.6 0.2 1.2 0.2 1.6 0 0.7-0.1 1.4-0.3 1.8-0.6 1.5-1.8 2.8-4 3.6-0.3-0.4-0.9-1.1-1.3-1.4 1.5-0.5 2.7-1.2 3.2-2.1-0.2 0.2-0.5 0.3-0.8 0.3-1.2 0-2.5-1-2.5-2.5 0-1.6 1.3-2.7 2.7-2.7 0.3 0 0.6 0.1 0.9 0.2v-1.2c-1 0-5.7 0.2-5.9 0.2v-1.6zm6.2 5.1c0-0.3 0-1.3-1.1-1.3-0.7 0-1.2 0.5-1.2 1.3 0 0.7 0.6 1.2 1.1 1.2 0.7 0 1.2-0.5 1.2-1.2z"/>
</svg>
