<?xml version="1.0" encoding="utf-8"?>
<!-- Generator: Adobe Illustrator 22.0.0, SVG Export Plug-In . SVG Version: 6.00 Build 0)  -->
<svg version="1.1" id="レイヤー_1" xmlns="http://www.w3.org/2000/svg" xmlns:xlink="http://www.w3.org/1999/xlink" x="0px"
	 y="0px" viewBox="0 0 1440 900" style="enable-background:new 0 0 1440 900;" xml:space="preserve">
<style type="text/css">
	.st0{fill:#F7F9FB;}
	.st1{fill:#EBECEE;}
	.st2{fill:#FFFFFF;}
	.st3{fill:#3A3A3A;}
	.st4{font-family:'KozGoPr6N-Medium-83pv-RKSJ-H';}
	.st5{font-size:14px;}
	.st6{fill:none;stroke:#DCDCDC;stroke-width:0.75;}
	.st7{font-family:'KozGoPr6N-Bold-83pv-RKSJ-H';}
	.st8{font-size:20px;}
	.st9{fill:#909090;}
	.st10{font-size:12px;}
	.st11{font-family:'KozGoPr6N-Regular-83pv-RKSJ-H';}
	.st12{font-family:'KozGoPr6N-Heavy-83pv-RKSJ-H';}
	.st13{fill:none;stroke:#DCDCDC;stroke-width:2;}
	.st14{fill:#3E4246;}
	.st15{font-size:16px;}
	.st16{fill:none;stroke:#DCDCDC;stroke-width:0.5;}
	.st17{fill:#EEEEEE;}
	.st18{fill:#FF4158;}
	.st19{fill:#FCD81C;}
	.st20{fill:#00EF72;}
	.st21{fill:none;stroke:#EBECEE;stroke-width:2;stroke-miterlimit:10;}
	.st22{font-size:30px;}
	.st23{fill:#EB9783;}
	.st24{fill:#917751;}
	.st25{fill:#E2BB9A;}
	.st26{fill:#E9C29C;}
	.st27{fill:#A58763;}
	.st28{fill:#9E835A;}
	.st29{font-size:22px;}
	.st30{font-size:24px;}
	.st31{fill:none;stroke:#B9B9B9;stroke-miterlimit:10;}
	.st32{fill:#B9B9B9;}
	.st33{fill:#999999;}
	.st34{fill:none;stroke:#EB9783;stroke-miterlimit:10;}
	.st35{fill:#DC2D15;}
</style>
<g>
	
		<image style="overflow:visible;opacity:0.25;" width="330" height="809" xlink:href="6BA06372C650337E.png"  transform="matrix(1 0 0 1 228.2992 93.2992)">
	</image>
	<g>
		<rect x="229.9" y="95.3" class="st0" width="325.1" height="804.7"/>
	</g>
</g>
<path class="st1" d="M536.9,138H248c-2.1,0-3.8-1.7-3.8-3.8v-19.4c0-2.1,1.7-3.8,3.8-3.8h288.9c2.1,0,3.8,1.7,3.8,3.8v19.4
	C540.8,136.3,539,138,536.9,138z"/>
<rect x="230.2" y="150.9" class="st2" width="353.2" height="100.5"/>
<text transform="matrix(1 0 0 1 256.3184 175.3007)" class="st3 st4 st5">楽天市場からの注文</text>
<line class="st6" x1="230.3" y1="150.7" x2="556.2" y2="150.7"/>
<text transform="matrix(1 0 0 1 256.3185 201.1863)" class="st3 st7 st8">山田さま</text>
<text transform="matrix(1 0 0 1 494.5442 175.3007)" class="st9 st4 st10">3:21 PM</text>
<text transform="matrix(1 0 0 1 256.3187 224.7015)"><tspan x="0" y="0" class="st9 st11 st5">Tシャツ(紺色)、靴(赤色)</tspan><tspan x="150.8" y="0" class="st9 st12 st5">２</tspan></text>
<line class="st13" x1="230.3" y1="251.7" x2="556.3" y2="251.7"/>
<rect x="243.7" y="253.4" class="st0" width="296.5" height="97.6"/>
<text transform="matrix(1 0 0 1 256.3184 276.3666)" class="st3 st4 st5">　　　　からの注文</text>
<text transform="matrix(1 0 0 1 256.3182 302.2521)" class="st3 st7 st8">鈴木さま</text>
<g>
	<rect y="90.7" class="st14" width="230.2" height="814.2"/>
	<text transform="matrix(1 0 0 1 51.5162 160.7744)" class="st2 st4 st15">入荷作業</text>
	<text transform="matrix(1 0 0 1 51.5163 204.7884)" class="st2 st4 st15">出荷作業</text>
	<text transform="matrix(1 0 0 1 51.5166 247.8961)" class="st2 st4 st15">在庫表</text>
	<text transform="matrix(1 0 0 1 51.5165 293.4226)" class="st2 st4 st15">データ連携</text>
	<text transform="matrix(1 0 0 1 51.5165 373.5829)" class="st2 st4 st15">商品</text>
	<text transform="matrix(1 0 0 1 51.5165 417.5417)" class="st2 st4 st15">ロケーション</text>
	<text transform="matrix(1 0 0 1 51.5164 462.2944)" class="st2 st4 st15">仕入先リスト</text>
	<text transform="matrix(1 0 0 1 51.5164 505.8457)" class="st2 st4 st15">出荷先リスト</text>
	<text transform="matrix(1 0 0 1 51.5164 593.994)" class="st2 st4 st15">メンバー管理</text>
	<text transform="matrix(1 0 0 1 51.5164 635.95)" class="st2 st4 st15">会社情報</text>
	<text transform="matrix(1 0 0 1 14.6353 333.1937)" class="st2 st4 st5">マスター</text>
	<text transform="matrix(1 0 0 1 14.6355 119.517)" class="st2 st4 st5">メイン</text>
	<text transform="matrix(1 0 0 1 14.6353 548.5481)" class="st2 st4 st5">設定</text>
</g>
<text transform="matrix(1 0 0 1 494.5444 276.3664)" class="st9 st4 st10">3:26 PM</text>
<text transform="matrix(1 0 0 1 256.3187 325.7674)" class="st9 st11 st5">バッグ(コーチ)</text>
<line class="st16" x1="250.2" y1="352.6" x2="546.8" y2="352.6"/>
<rect x="243.7" y="354.4" class="st0" width="296.5" height="97.6"/>
<text transform="matrix(1 0 0 1 256.3187 377.2956)" class="st3 st4 st5">楽天市場　  からの注文</text>
<text transform="matrix(1 0 0 1 256.318 403.1808)" class="st3 st7 st8">山本さま</text>
<text transform="matrix(1 0 0 1 494.5446 377.2956)" class="st9 st4 st10">3:40 PM</text>
<text transform="matrix(1 0 0 1 256.3185 426.6964)" class="st9 st11 st5">スラックス(上下セット)</text>
<line class="st16" x1="250.2" y1="453.6" x2="546.8" y2="453.6"/>
<rect x="243.7" y="455.3" class="st0" width="296.5" height="97.6"/>
<text transform="matrix(1 0 0 1 256.3181 478.2493)" class="st3 st4 st5">楽天市場   からの注文</text>
<text transform="matrix(1 0 0 1 256.3178 505.8461)" class="st3 st7 st8">太田さま</text>
<text transform="matrix(1 0 0 1 494.5444 478.2493)" class="st9 st4 st10">4:00 PM</text>
<text transform="matrix(1 0 0 1 256.3185 527.6506)" class="st9 st11 st5">Tシャツ(紺色)</text>
<line class="st16" x1="250.2" y1="555.8" x2="546.8" y2="555.8"/>
<rect x="243.7" y="557.5" class="st0" width="296.5" height="97.6"/>
<text transform="matrix(1 0 0 1 256.3188 580.4139)" class="st3 st4 st5">楽天市場からの注文</text>
<text transform="matrix(1 0 0 1 256.3186 606.2991)" class="st3 st7 st8">Mickeyさま</text>
<text transform="matrix(1 0 0 1 494.5444 580.4139)" class="st9 st4 st10">4:21 PM</text>
<text transform="matrix(1 0 0 1 256.3186 629.8151)"><tspan x="0" y="0" class="st9 st11 st5">靴(青色)</tspan><tspan x="50.7" y="0" class="st9 st12 st5">３</tspan></text>
<line class="st16" x1="250.2" y1="658.6" x2="546.8" y2="658.6"/>
<rect x="243.7" y="660.3" class="st0" width="296.5" height="97.6"/>
<text transform="matrix(1 0 0 1 256.3188 683.2)" class="st3 st4 st5">メールでの注文</text>
<text transform="matrix(1 0 0 1 256.3186 709.0853)" class="st3 st7 st8">谷口さま</text>
<text transform="matrix(1 0 0 1 494.5448 683.2001)" class="st9 st4 st10">4:26 PM</text>
<text transform="matrix(1 0 0 1 256.3176 732.6003)" class="st9 st11 st5">バッグ(紺色)</text>
<line class="st16" x1="244.2" y1="760.3" x2="540.8" y2="760.3"/>
<rect x="244.2" y="762.6" class="st0" width="296.5" height="97.6"/>
<text transform="matrix(1 0 0 1 256.3188 785.55)" class="st3 st4 st5">楽天市    からの注文</text>
<text transform="matrix(1 0 0 1 256.3187 811.4362)" class="st3 st7 st8">木村さま</text>
<text transform="matrix(1 0 0 1 494.5444 785.5497)" class="st9 st4 st10">4:40 PM</text>
<text transform="matrix(1 0 0 1 256.3187 834.9512)"><tspan x="0" y="0" class="st9 st11 st5">インナーウェア(Mサイズ)</tspan><tspan x="160.8" y="0" class="st9 st12 st5">３</tspan></text>
<g>
	
		<image style="overflow:visible;" width="500" height="250" id="I9j6l5" xlink:href="6BA06372C6503382.jpg"  transform="matrix(0.1129 0 0 0.1069 255.8524 155.5237)">
	</image>
</g>
<g>
	
		<image style="overflow:visible;" width="500" height="250" id="I9j6l5_2_" xlink:href="6BA06372C6503385.jpg"  transform="matrix(0.1129 0 0 0.1069 255.8524 560.0821)">
	</image>
</g>
<g id="VHD4gR.tif">
	
		<image style="overflow:visible;" width="272" height="104" id="Layer_0" xlink:href="6BA06372C6503386.png"  transform="matrix(0.1862 0 0 0.1862 258.1011 262.1973)">
	</image>
</g>
<g>
	
		<image style="overflow:visible;" width="421" height="120" id="zvLqcm" xlink:href="6BA06372C6503386.jpg"  transform="matrix(0.1493 0 0 0.1493 256.3188 464.1837)">
	</image>
</g>
<line class="st16" x1="243.7" y1="862.6" x2="540.2" y2="862.6"/>
<g>
	
		<image style="overflow:visible;" width="500" height="150" id="k8DHxB" xlink:href="6BA06372C6503383.jpg"  transform="matrix(0.1493 0 0 0.1493 256.3176 360.677)">
	</image>
</g>
<g id="_x31_YDV9H.tif">
	
		<image style="overflow:visible;" width="1200" height="630" id="Layer_0_1_" xlink:href="6BA06372C6503382.png"  transform="matrix(4.262370e-02 0 0 4.262370e-02 256.3176 765.8429)">
	</image>
</g>
<g>
	<g>
		
			<image style="overflow:visible;opacity:0.25;" width="1444" height="58" xlink:href="6BA06372C650338E.png"  transform="matrix(1 0 0 1 -1.7008 42.2992)">
		</image>
		<g>
			<rect y="44.2" class="st2" width="1440" height="52.7"/>
		</g>
	</g>
	<rect class="st17" width="1440" height="46"/>
	<circle class="st18" cx="20.6" cy="23" r="5.9"/>
	<circle class="st19" cx="43.4" cy="23" r="5.9"/>
	<circle class="st20" cx="66.2" cy="23" r="5.9"/>
	<path class="st2" d="M1031.3,37.2H411.4c-4.2,0-7.7-3.4-7.7-7.7V17.9c0-4.2,3.4-7.7,7.7-7.7h619.8c4.2,0,7.7,3.4,7.7,7.7v11.7
		C1038.9,33.8,1035.5,37.2,1031.3,37.2z"/>
	<line class="st21" x1="230.2" y1="64" x2="247.8" y2="64"/>
	<line class="st21" x1="230.2" y1="71.4" x2="247.8" y2="71.4"/>
	<line class="st21" x1="230.2" y1="78.8" x2="247.8" y2="78.8"/>
</g>
<text transform="matrix(1 0 0 1 583.3964 196.0167)" class="st3 st4 st22">出荷日：明日12月13日 18:00迄</text>
<text transform="matrix(1 0 0 1 583.3966 150.9434)" class="st9 st4 st15">本日12月12日　3:21 PM</text>
<g>
	<g>
		<path class="st23" d="M619,209.5c-19.7,0-35.6,16-35.6,35.6c0,19.7,16,35.6,35.6,35.6c19.7,0,35.6-16,35.6-35.6
			C654.7,225.4,638.7,209.5,619,209.5z"/>
		<path class="st23" d="M599.2,274.7c5.7,3.8,12.5,6.1,19.9,6.1c7.4,0,14.4-2.3,20.1-6.2L599.2,274.7z"/>
	</g>
	<path class="st24" d="M637.1,238.7c0-12.4-8-17.1-18-17.1c-10,0-18,4.6-18,17.1c0,5.3-3.1,22.7-4.5,34.1c0.8,0.7,1.7,1.3,2.6,1.9
		l40-0.1c0.9-0.6,1.8-1.3,2.6-2C640.5,261.4,637.1,243.9,637.1,238.7z"/>
	<polygon class="st25" points="624.5,260 613.5,260 611.6,271.4 626.3,271.4 	"/>
	<path class="st23" d="M619,280.8C619,280.8,619,280.8,619,280.8c0.1,0,0.1,0,0.1,0C619.1,280.8,619.1,280.8,619,280.8z"/>
	<path class="st25" d="M639.9,268.1c0,0-10.3-2.4-20.8-2.4c-10.5,0-20.6,2.4-20.6,2.4c-1.8,0-3.5,1.1-4.4,2.6
		c6.4,6.2,15.2,10.1,24.8,10.1c0,0,0.1,0,0.1,0c9.8,0,18.6-4,25-10.3C643.2,269.1,641.7,268.1,639.9,268.1z"/>
	<ellipse class="st26" cx="632.2" cy="246.5" rx="1.3" ry="3.1"/>
	<ellipse class="st25" cx="605.6" cy="246.5" rx="1.3" ry="3.1"/>
	<path class="st26" d="M619.1,225.1c-8,0-14.4,3.9-14.4,14.4c0,4.7,1.2,12.7,3.4,15.9c1.6,2.3,6.8,7.7,11,7.7c4.1,0,9.2-4.9,11-7.9
		c2.1-3.3,3.4-11.2,3.4-15.8C633.5,229,627,225.1,619.1,225.1z"/>
	<path class="st27" d="M620.1,222.5c-25.9-6.5-19.5,33.2-19.5,33.2c5.1-14.7,7.5-19.8,22.7-22.7
		C627.9,232.2,620.1,222.5,620.1,222.5z"/>
	<path class="st28" d="M615,221.9c0,0,6,18.4,23.8,28.4C638.8,250.2,642.3,214.7,615,221.9z"/>
	<path class="st27" d="M623,224.2l12.1,13.2C633.1,225.3,623,224.2,623,224.2z"/>
</g>
<text transform="matrix(1 0 0 1 672.806 238.7935)" class="st3 st4 st29">楽天市  からの注文</text>
<g>
	
		<image style="overflow:visible;" width="500" height="250" id="I9j6l5_1_" xlink:href="6BA06372C650338E.jpg"  transform="matrix(0.1497 0 0 0.1517 670.4703 211.8078)">
	</image>
</g>
<text transform="matrix(1 0 0 1 673.3336 275.3665)"><tspan x="0" y="0" class="st3 st4 st30">山田 花子</tspan><tspan x="101.4" y="0" class="st3 st4 st8">様</tspan></text>
<line class="st31" x1="619" y1="280.8" x2="619" y2="417.5"/>
<circle class="st32" cx="619" cy="417.5" r="14.6"/>
<g>
	<text transform="matrix(1 0 0 1 673.3334 426.6967)" class="st3 st4 st29">倉庫Aのロケーション(A-12-2)からピッキングしてください。</text>
</g>
<text transform="matrix(1 0 0 1 639.126 349.1627)" class="st9 st4 st15">現在：出荷待ち</text>
<text transform="matrix(1 0 0 1 578.6737 453.6023)" class="st9 st4 st10">明日12日 16:00</text>
<circle class="st33" cx="619" cy="596.9" r="14.6"/>
<g>
	<text transform="matrix(1 0 0 1 672.806 606.2991)" class="st3 st4 st29">ヤマト運輸で発送してください。</text>
</g>
<g>
	
		<image style="overflow:visible;" width="600" height="450" id="pC9xJF" xlink:href="8E2E5F96A9977181.jpg"  transform="matrix(9.765004e-02 0 0 9.765004e-02 589.8782 574.9305)">
	</image>
</g>
<line class="st31" x1="619.1" y1="460.1" x2="619.1" y2="584.1"/>
<text transform="matrix(1 0 0 1 578.6736 629.8149)" class="st9 st4 st10">明日12日 18:00</text>
<line class="st34" x1="619" y1="280.8" x2="619" y2="343.2"/>
<circle class="st23" cx="619" cy="343.2" r="3.7"/>
<text transform="matrix(1 0 0 1 673.3335 464.1833)"><tspan x="0" y="0" class="st9 st4 st8">・Tシャツ(紺色)　SB-0024</tspan><tspan x="0" y="31.8" class="st9 st4 st8">・靴(赤色)　　　 CB-1123 </tspan><tspan x="237.9" y="31.8" class="st35 st12 st30">②</tspan></text>
</svg>
