<?xml version="1.0" encoding="utf-8"?>
<!-- Generator: Adobe Illustrator 22.0.0, SVG Export Plug-In . SVG Version: 6.00 Build 0)  -->
<svg version="1.1" id="レイヤー_1" xmlns="http://www.w3.org/2000/svg" xmlns:xlink="http://www.w3.org/1999/xlink" x="0px"
	 y="0px" viewBox="0 0 675.3 174.8" style="enable-background:new 0 0 675.3 174.8;" xml:space="preserve">
<style type="text/css">
	.st0{fill:url(#SVGID_1_);}
	.st1{fill:#FFFFFF;}
</style>
<title>logikura2</title>
<linearGradient id="SVGID_1_" gradientUnits="userSpaceOnUse" x1="-269.4172" y1="1309.2002" x2="630.9828" y2="1309.2002" gradientTransform="matrix(0.75 0 0 -0.75 202.0629 1069.3002)">
	<stop  offset="0" style="stop-color:#28536C"/>
	<stop  offset="1" style="stop-color:#698FA3"/>
</linearGradient>
<rect class="st0" width="675.3" height="174.8"/>
<path class="st1" d="M182.3,81.5c-4.9-4.9-11.3-8-18.2-8.9c-1.3-24-21.9-42.4-45.9-41.1C98.6,32.6,82.1,46.8,78,66
	c-18.9-3.2-36.8,9.6-40,28.6c-3.2,18.9,9.6,36.8,28.6,40c1.9,0.3,3.8,0.5,5.7,0.5h87.9c17.3,0,31.3-14,31.3-31.4
	C191.5,95.4,188.2,87.4,182.3,81.5z M176.5,120c-4.3,4.3-10.2,6.8-16.4,6.8H72.3c-14.7,0-26.6-11.9-26.6-26.6
	c0-14.7,11.9-26.6,26.6-26.6c2.7,0,5.3,0.4,7.8,1.2l4.8,1.5l0.5-5c2-19.5,19.5-33.6,38.9-31.5c18,1.9,31.7,17.1,31.7,35.2
	c0,0.3,0,0.7,0,1.2l-0.2,4.4l4.3-0.2c12.8,0.1,23.1,10.5,23.1,23.3C183.3,109.9,180.8,115.7,176.5,120L176.5,120z"/>
<path class="st1" d="M297.1,117.6c0,7.8-3.9,11.7-11.4,11.7h-55.9c-7.4,0-11.4-3.9-11.4-11.7V64.3c0-7.8,4.1-11.8,11.4-11.8h55.9
	c7.5,0,11.4,4.1,11.4,11.8V117.6z M282.5,120.5c4.1,0,5.1-1,5.1-4.7V66.1c0-3.7-1.1-4.8-5.1-4.8H233c-4.1,0-5.1,1-5.1,4.8v49.7
	c0,3.8,1.1,4.7,5.1,4.7H282.5z"/>
<path class="st1" d="M354.4,88.2c1.5,1,2.1,2.3,2.1,3.7c0,1-0.3,2-0.7,2.9c-0.9,1.5-2.5,2.2-4.1,2.2c-1,0-2-0.3-2.9-1
	c-6.2-4.3-16-9.6-24-13c-1.5-0.6-2.3-1.8-2.3-3.3c0-0.9,0.3-1.8,0.7-2.6c0.9-1.7,2.1-2.5,3.6-2.5c0.8,0,1.5,0.1,2.2,0.4
	C337,78.3,347.1,83.6,354.4,88.2z M407.1,72.5c0,0.5-0.1,1.1-0.2,1.7c-5,18-15.4,33.3-29.1,43.5c-12.5,9.3-31.3,15.3-48.2,16.4H329
	c-2.7,0-4.6-1.5-4.8-4.4c-0.1-0.2-0.1-0.5-0.1-0.7c0-2.3,1.4-3.9,4.3-4.2c15.6-1.1,33.2-6.4,44.4-14.9c12.1-9.2,21-22,25.4-38.3
	c0.5-2.2,1.9-3.6,4.1-3.6c0.5,0,1.1,0,1.7,0.2C405.9,68.9,407.1,70.4,407.1,72.5L407.1,72.5z M364,65.4c0,0.9-0.2,1.7-0.6,2.5
	c-0.8,1.5-2.4,2.5-4.2,2.5c-0.9,0-1.7-0.2-2.5-0.7c-7.2-4.6-16-9.4-23.4-12.4c-1.6-0.6-2.5-1.9-2.5-3.5c0-0.8,0.3-1.7,0.7-2.3
	c1-1.6,2.3-2.5,3.9-2.5c0.8,0,1.6,0.1,2.3,0.4c7.3,2.9,16.3,7.5,23.8,12.3C363.3,62.6,364,64,364,65.4z M392.1,44.6
	c1.2,0,1.9,0.3,2.8,1.2c3.3,3.3,7.2,8.4,9.2,12c0.3,0.6,0.7,1.4,0.7,2.8c0,1.6-1.5,3-3.5,3c-1.3,0-2.1-0.5-2.8-1.8
	c-2.2-3.9-5.4-8.3-8.4-11.6c-0.6-0.7-1.1-1.6-1.1-2.6C389,46.1,390.4,44.6,392.1,44.6z M404.2,38.2c1.2,0,1.9,0.4,2.9,1.3
	c2.8,2.7,6.8,8.2,8.8,11.6c0.4,0.8,0.6,1.7,0.6,2.7c0,1.3-1.3,3-3.3,3c-1.3,0-2-0.5-2.8-1.7c-2.3-4.1-5.1-8.2-8-11.3
	c-1-1-1.3-1.5-1.3-2.8C401.1,39.6,402.7,38.2,404.2,38.2L404.2,38.2z"/>
<path class="st1" d="M460.8,66.8c-6.2,9.6-14.7,18.5-24.1,24.7c-1,0.5-1.8,0.9-2.8,0.9c-1.4,0-2.7-0.7-3.6-1.9
	c-0.6-0.8-0.9-1.8-0.9-2.8c0-1.6,0.8-3.1,2.2-3.9c10.6-6.8,21.2-18.6,28.4-36.4c0.7-1.9,2-3.1,4.2-3.1c0.7,0,1.3,0.1,1.9,0.3
	c2.2,0.5,3.3,2.1,3.3,3.8c0,0.5-0.1,0.9-0.2,1.4c-0.6,2.2-2.1,5.2-4.2,8.8l33.4-0.6c6.8-0.1,11.1,3.7,11.1,10.7
	c0,1.4-0.1,2.7-0.4,4.1c-6.4,30.2-27.6,54.6-64,63.4c-0.4,0.1-0.9,0.1-1.3,0.1c-2.1,0-3.7-1.1-4.4-3.1c-0.1-0.5-0.2-1.1-0.2-1.6
	c0-1.9,1.2-3.5,3.5-4.1c31.2-8.2,50.3-27.2,56.7-56.1c0.1-0.7,0.2-1.3,0.2-1.9c0-2-1.1-3-4.1-3h-0.4L460.8,66.8z"/>
<path class="st1" d="M606.4,73.4c5,0,8.1,1.8,9.9,4.8c1,1.6,1.4,3.5,1.4,5.8c0,1.7-0.2,3.4-0.6,5.1c-5.2,22.8-26.6,41.3-56.2,45.6
	c-0.3,0.1-0.6,0.1-1,0.1c-2.5,0-4.2-1.5-4.5-3.9c-0.1-0.3-0.1-0.6-0.1-1c0-2.2,1.4-3.8,3.7-4.3c25.7-3.9,44-19.1,48.7-38
	c0.2-0.7,0.3-1.4,0.3-2.1c0-2-1.2-3.2-4.7-3.2h-62.7c-2.2,0-3.6-2.1-3.6-4.4s1.4-4.5,3.6-4.5L606.4,73.4z M607.4,48.4
	c2.2,0,3.7,2,3.7,4.4c0,2.2-1.5,4.5-3.7,4.5h-58.5c-2.2,0-3.7-2.2-3.7-4.5s1.5-4.4,3.7-4.4H607.4z"/>
</svg>
